Homoneta-Regular.ufo
<glyph name="numbersign" format="2">
  <advance width="633"/>
  <unicode hex="0023"/>
  <outline>
    <contour>
      <point x="304" y="1" type="line"/>
      <point x="345" y="1" type="line"/>
      <point x="398" y="203" type="line"/>
      <point x="533" y="203" type="line"/>
      <point x="533" y="243" type="line"/>
      <point x="408" y="243" type="line"/>
      <point x="440" y="363" type="line"/>
      <point x="531" y="363" type="line"/>
      <point x="531" y="403" type="line"/>
      <point x="450" y="403" type="line"/>
      <point x="502" y="601" type="line"/>
      <point x="461" y="601" type="line"/>
      <point x="409" y="403" type="line"/>
      <point x="274" y="403" type="line"/>
      <point x="326" y="601" type="line"/>
      <point x="285" y="601" type="line"/>
      <point x="233" y="403" type="line"/>
      <point x="100" y="403" type="line"/>
      <point x="101" y="364" type="line"/>
      <point x="223" y="364" type="line"/>
      <point x="191" y="243" type="line"/>
      <point x="101" y="243" type="line"/>
      <point x="101" y="204" type="line"/>
      <point x="181" y="204" type="line"/>
      <point x="128" y="1" type="line"/>
      <point x="169" y="1" type="line"/>
      <point x="222" y="204" type="line"/>
      <point x="357" y="203" type="line"/>
    </contour>
    <contour>
      <point x="232" y="243" type="line"/>
      <point x="264" y="364" type="line"/>
      <point x="399" y="363" type="line"/>
      <point x="367" y="243" type="line"/>
    </contour>
  </outline>
</glyph>
<glyph name="percent" format="2">
  <advance width="754"/>
  <unicode hex="0025"/>
  <outline>
    <contour>
      <point x="228" y="405" type="curve" smooth="yes"/>
      <point x="281" y="405"/>
      <point x="325" y="453"/>
      <point x="324" y="510" type="curve" smooth="yes"/>
      <point x="323" y="569"/>
      <point x="275" y="609"/>
      <point x="229" y="609" type="curve" smooth="yes"/>
      <point x="177" y="609"/>
      <point x="130" y="573"/>
      <point x="130" y="509" type="curve" smooth="yes"/>
      <point x="130" y="463"/>
      <point x="165" y="405"/>
    </contour>
    <contour>
      <point x="175" y="506" type="curve" smooth="yes"/>
      <point x="175" y="558"/>
      <point x="192" y="590"/>
      <point x="229" y="590" type="curve" smooth="yes"/>
      <point x="264" y="590"/>
      <point x="280" y="559"/>
      <point x="280" y="506" type="curve" smooth="yes"/>
      <point x="280" y="468"/>
      <point x="262" y="427"/>
      <point x="228" y="425" type="curve" smooth="yes"/>
      <point x="190" y="423"/>
      <point x="175" y="480"/>
    </contour>
    <contour>
      <point x="440" y="94" type="curve" smooth="yes"/>
      <point x="440" y="48"/>
      <point x="475" y="-10"/>
      <point x="538" y="-10" type="curve" smooth="yes"/>
      <point x="591" y="-10"/>
      <point x="635" y="38"/>
      <point x="634" y="95" type="curve" smooth="yes"/>
      <point x="633" y="154"/>
      <point x="585" y="194"/>
      <point x="539" y="194" type="curve" smooth="yes"/>
      <point x="487" y="194"/>
      <point x="440" y="158"/>
    </contour>
    <contour>
      <point x="485" y="91" type="curve" smooth="yes"/>
      <point x="485" y="143"/>
      <point x="502" y="175"/>
      <point x="539" y="175" type="curve" smooth="yes"/>
      <point x="574" y="175"/>
      <point x="590" y="144"/>
      <point x="590" y="91" type="curve" smooth="yes"/>
      <point x="590" y="53"/>
      <point x="572" y="12"/>
      <point x="538" y="10" type="curve" smooth="yes"/>
      <point x="500" y="8"/>
      <point x="485" y="65"/>
    </contour>
    <component base="slash" xOffset="209"/>
  </outline>
</glyph>
<glyph name="ampersand" format="2">
  <advance width="599"/>
  <unicode hex="0026"/>
  <outline>
    <contour>
      <point x="183" y="-10" type="curve" smooth="yes"/>
      <point x="266" y="-15"/>
      <point x="316" y="22"/>
      <point x="364" y="69" type="curve"/>
      <point x="400" y="17"/>
      <point x="426" y="0"/>
      <point x="464" y="-8" type="curve" smooth="yes"/>
      <point x="513" y="-16"/>
      <point x="539" y="15"/>
      <point x="566" y="47" type="curve"/>
      <point x="557" y="66" type="line"/>
      <point x="543" y="51"/>
      <point x="530" y="35"/>
      <point x="508" y="35" type="curve" smooth="yes"/>
      <point x="489" y="35"/>
      <point x="467" y="45"/>
      <point x="441" y="79" type="curve" smooth="yes"/>
      <point x="407" y="123" type="line"/>
      <point x="429" y="157"/>
      <point x="462" y="207"/>
      <point x="487" y="260" type="curve"/>
      <point x="500" y="269" type="line"/>
      <point x="569" y="269" type="line"/>
      <point x="569" y="299" type="line"/>
      <point x="437" y="299" type="line"/>
      <point x="436" y="260" type="line"/>
      <point x="427" y="233"/>
      <point x="405" y="194"/>
      <point x="385" y="166" type="curve"/>
      <point x="378" y="166" type="line"/>
      <point x="270" y="328" type="line"/>
      <point x="317" y="361"/>
      <point x="371" y="411"/>
      <point x="368" y="501" type="curve" smooth="yes"/>
      <point x="366" y="565"/>
      <point x="307" y="610"/>
      <point x="255" y="610" type="curve" smooth="yes"/>
      <point x="183" y="610"/>
      <point x="119" y="565"/>
      <point x="119" y="480" type="curve" smooth="yes"/>
      <point x="119" y="426"/>
      <point x="145" y="384"/>
      <point x="183" y="334" type="curve"/>
      <point x="64" y="263"/>
      <point x="40" y="219"/>
      <point x="40" y="134" type="curve" smooth="yes"/>
      <point x="40" y="67"/>
      <point x="102" y="-5"/>
    </contour>
    <contour>
      <point x="120" y="174" type="curve" smooth="yes"/>
      <point x="120" y="224"/>
      <point x="136" y="263"/>
      <point x="204" y="304" type="curve"/>
      <point x="334" y="114" type="line"/>
      <point x="302" y="75"/>
      <point x="272" y="46"/>
      <point x="231" y="46" type="curve" smooth="yes"/>
      <point x="159" y="46"/>
      <point x="120" y="96"/>
    </contour>
    <contour>
      <point x="189" y="476" type="curve" smooth="yes"/>
      <point x="178" y="533"/>
      <point x="208" y="584"/>
      <point x="256" y="584" type="curve" smooth="yes"/>
      <point x="292" y="584"/>
      <point x="323" y="538"/>
      <point x="323" y="495" type="curve" smooth="yes"/>
      <point x="323" y="439"/>
      <point x="303" y="402"/>
      <point x="253" y="371" type="curve"/>
      <point x="239" y="371" type="line"/>
      <point x="199" y="412"/>
      <point x="194" y="445"/>
    </contour>
  </outline>
</glyph>
<glyph name="quotesingle" format="2">
  <advance width="242"/>
  <unicode hex="0027"/>
  <outline>
    <contour>
      <point x="50" y="492" type="line"/>
      <point x="127" y="493"/>
      <point x="172" y="526"/>
      <point x="187" y="573" type="curve" smooth="yes"/>
      <point x="201" y="616"/>
      <point x="181" y="654"/>
      <point x="151" y="663" type="curve" smooth="yes"/>
      <point x="126" y="671"/>
      <point x="102" y="658"/>
      <point x="95" y="636" type="curve" smooth="yes"/>
      <point x="87" y="612"/>
      <point x="97" y="594"/>
      <point x="119" y="587" type="curve" smooth="yes"/>
      <point x="123" y="586"/>
      <point x="128" y="586"/>
      <point x="132" y="587" type="curve" smooth="yes"/>
      <point x="143" y="589"/>
      <point x="149" y="590"/>
      <point x="152" y="589" type="curve" smooth="yes"/>
      <point x="154" y="588"/>
      <point x="155" y="587"/>
      <point x="155" y="584" type="curve" smooth="yes"/>
      <point x="156" y="580"/>
      <point x="155" y="576"/>
      <point x="155" y="572" type="curve"/>
      <point x="148" y="534"/>
      <point x="105" y="509"/>
      <point x="54" y="507" type="curve"/>
    </contour>
  </outline>
</glyph>
<glyph name="parenleft" format="2">
  <advance width="389"/>
  <unicode hex="0028"/>
  <outline>
    <contour>
      <point x="318" y="-129" type="curve"/>
      <point x="339" y="-98" type="line"/>
      <point x="254" y="-58"/>
      <point x="142" y="32"/>
      <point x="142" y="263" type="curve" smooth="yes"/>
      <point x="142" y="493"/>
      <point x="245" y="592"/>
      <point x="330" y="634" type="curve"/>
      <point x="309" y="662" type="line"/>
      <point x="208" y="619"/>
      <point x="70" y="493"/>
      <point x="70" y="263" type="curve" smooth="yes"/>
      <point x="70" y="32"/>
      <point x="217" y="-84"/>
    </contour>
  </outline>
</glyph>
<glyph name="plus" format="2">
  <advance width="579"/>
  <unicode hex="002B"/>
  <outline>
    <contour>
      <point x="269" y="62" type="line"/>
      <point x="306" y="62" type="line"/>
      <point x="306" y="218" type="line"/>
      <point x="323" y="235" type="line"/>
      <point x="479" y="235" type="line"/>
      <point x="479" y="270" type="line"/>
      <point x="323" y="270" type="line"/>
      <point x="306" y="286" type="line"/>
      <point x="306" y="438" type="line"/>
      <point x="269" y="438" type="line"/>
      <point x="269" y="286" type="line"/>
      <point x="254" y="270" type="line"/>
      <point x="100" y="270" type="line"/>
      <point x="100" y="235" type="line"/>
      <point x="254" y="235" type="line"/>
      <point x="269" y="218" type="line"/>
    </contour>
  </outline>
</glyph>
<glyph name="comma" format="2">
  <advance width="227"/>
  <unicode hex="002C"/>
  <outline>
    <contour>
      <point x="50" y="-146" type="line"/>
      <point x="137" y="-117"/>
      <point x="177" y="-64"/>
      <point x="177" y="-5" type="curve" smooth="yes"/>
      <point x="177" y="48"/>
      <point x="141" y="84"/>
      <point x="104" y="84" type="curve" smooth="yes"/>
      <point x="73" y="84"/>
      <point x="50" y="61"/>
      <point x="50" y="33" type="curve" smooth="yes"/>
      <point x="50" y="4"/>
      <point x="67" y="-13"/>
      <point x="95" y="-13" type="curve" smooth="yes"/>
      <point x="100" y="-13"/>
      <point x="105" y="-12"/>
      <point x="110" y="-9" type="curve" smooth="yes"/>
      <point x="121" y="-3"/>
      <point x="128" y="0"/>
      <point x="131" y="0" type="curve" smooth="yes"/>
      <point x="134" y="0"/>
      <point x="136" y="-1"/>
      <point x="137" y="-4" type="curve" smooth="yes"/>
      <point x="139" y="-8"/>
      <point x="140" y="-13"/>
      <point x="141" y="-18" type="curve" smooth="yes"/>
      <point x="146" y="-63"/>
      <point x="107" y="-107"/>
      <point x="50" y="-127" type="curve"/>
    </contour>
  </outline>
</glyph>
<glyph name="hyphen" format="2">
  <advance width="316"/>
  <unicode hex="002D"/>
  <outline>
    <contour>
      <point x="50" y="197" type="line"/>
      <point x="266" y="197" type="line"/>
      <point x="266" y="232" type="line"/>
      <point x="50" y="232" type="line"/>
    </contour>
  </outline>
</glyph>
<glyph name="one" format="2">
  <advance width="280"/>
  <unicode hex="0031"/>
  <outline>
    <contour>
      <point x="32" y="0" type="line"/>
      <point x="230" y="0" type="line"/>
      <point x="230" y="32" type="line"/>
      <point x="180" y="32" type="line"/>
      <point x="161" y="64" type="line"/>
      <point x="161" y="440" type="line"/>
      <point x="139" y="440" type="line"/>
      <point x="10" y="351" type="line"/>
      <point x="10" y="327" type="line"/>
      <point x="83" y="371" type="line"/>
      <point x="105" y="342" type="line"/>
      <point x="105" y="64" type="line"/>
      <point x="86" y="32" type="line"/>
      <point x="32" y="32" type="line"/>
    </contour>
  </outline>
</glyph>
<glyph name="two" format="2">
  <advance width="393"/>
  <unicode hex="0032"/>
  <outline>
    <contour>
      <point x="50" y="1" type="curve"/>
      <point x="343" y="1" type="line"/>
      <point x="343" y="94" type="line"/>
      <point x="316" y="94" type="line"/>
      <point x="316" y="52" type="line"/>
      <point x="295" y="35" type="line"/>
      <point x="127" y="35" type="line"/>
      <point x="155" y="144"/>
      <point x="338" y="222"/>
      <point x="338" y="342" type="curve" smooth="yes"/>
      <point x="338" y="374"/>
      <point x="324" y="399"/>
      <point x="303" y="417" type="curve" smooth="yes"/>
      <point x="277" y="439"/>
      <point x="240" y="450"/>
      <point x="202" y="450" type="curve" smooth="yes"/>
      <point x="141" y="450"/>
      <point x="90" y="425"/>
      <point x="67" y="375" type="curve" smooth="yes"/>
      <point x="53" y="345"/>
      <point x="64" y="312"/>
      <point x="93" y="308" type="curve" smooth="yes"/>
      <point x="120" y="303"/>
      <point x="158" y="318"/>
      <point x="134" y="360" type="curve" smooth="yes"/>
      <point x="116" y="391"/>
      <point x="164" y="427"/>
      <point x="202" y="427" type="curve" smooth="yes"/>
      <point x="233" y="427"/>
      <point x="255" y="415"/>
      <point x="267" y="396" type="curve" smooth="yes"/>
      <point x="283" y="370"/>
      <point x="280" y="331"/>
      <point x="253" y="293" type="curve" smooth="yes"/>
      <point x="169" y="175"/>
      <point x="54" y="123"/>
    </contour>
  </outline>
</glyph>
<glyph name="three" format="2">
  <advance width="436"/>
  <unicode hex="0033"/>
  <outline>
    <contour>
      <point x="220" y="-171" type="curve" smooth="yes"/>
      <point x="317" y="-171"/>
      <point x="418" y="-82"/>
      <point x="405" y="50" type="curve" smooth="yes"/>
      <point x="399" y="111"/>
      <point x="337" y="181"/>
      <point x="280" y="192" type="curve"/>
      <point x="280" y="192"/>
      <point x="357" y="233"/>
      <point x="359" y="324" type="curve" smooth="yes"/>
      <point x="361" y="399"/>
      <point x="302" y="447"/>
      <point x="213" y="450" type="curve" smooth="yes"/>
      <point x="183" y="451"/>
      <point x="155" y="446"/>
      <point x="130" y="436" type="curve" smooth="yes"/>
      <point x="99" y="424"/>
      <point x="75" y="401"/>
      <point x="60" y="370" type="curve" smooth="yes"/>
      <point x="44" y="337"/>
      <point x="55" y="289"/>
      <point x="86" y="284" type="curve" smooth="yes"/>
      <point x="117" y="279"/>
      <point x="150" y="303"/>
      <point x="135" y="352" type="curve" smooth="yes"/>
      <point x="129" y="369"/>
      <point x="136" y="387"/>
      <point x="149" y="400" type="curve" smooth="yes"/>
      <point x="165" y="416"/>
      <point x="189" y="425"/>
      <point x="212" y="424" type="curve" smooth="yes"/>
      <point x="247" y="422"/>
      <point x="271" y="410"/>
      <point x="284" y="389" type="curve" smooth="yes"/>
      <point x="318" y="328"/>
      <point x="290" y="220"/>
      <point x="153" y="186" type="curve"/>
      <point x="153" y="167" type="line"/>
      <point x="234" y="170"/>
      <point x="324" y="116"/>
      <point x="331" y="28" type="curve" smooth="yes"/>
      <point x="339" y="-75"/>
      <point x="271" y="-132"/>
      <point x="218" y="-134" type="curve" smooth="yes"/>
      <point x="146" y="-137"/>
      <point x="93" y="-91"/>
      <point x="56" y="-15" type="curve"/>
      <point x="30" y="-27" type="line"/>
      <point x="59" y="-110"/>
      <point x="125" y="-171"/>
    </contour>
  </outline>
</glyph>
<glyph name="four" format="2">
  <advance width="478"/>
  <unicode hex="0034"/>
  <outline>
    <contour>
      <point x="284" y="-180" type="line"/>
      <point x="354" y="-180" type="line"/>
      <point x="354" y="-14" type="line"/>
      <point x="438" y="-14" type="line"/>
      <point x="438" y="35" type="line"/>
      <point x="354" y="35" type="line"/>
      <point x="354" y="440" type="line"/>
      <point x="320" y="440" type="line"/>
      <point x="20" y="46" type="line"/>
      <point x="20" y="-14" type="line"/>
      <point x="284" y="-14" type="line"/>
    </contour>
    <contour>
      <point x="64" y="35" type="line"/>
      <point x="64" y="49" type="line"/>
      <point x="272" y="320" type="line"/>
      <point x="284" y="320" type="line"/>
      <point x="284" y="35" type="line"/>
    </contour>
  </outline>
</glyph>
<glyph name="five" format="2">
  <advance width="466"/>
  <unicode hex="0035"/>
  <outline>
    <contour>
      <point x="220" y="-172" type="curve" smooth="yes"/>
      <point x="317" y="-172"/>
      <point x="417" y="-83"/>
      <point x="405" y="49" type="curve" smooth="yes"/>
      <point x="397" y="137"/>
      <point x="313" y="241"/>
      <point x="119" y="244" type="curve"/>
      <point x="119" y="273" type="line"/>
      <point x="153" y="391" type="line"/>
      <point x="343" y="391" type="line"/>
      <point x="345" y="440" type="line"/>
      <point x="135" y="440" type="line"/>
      <point x="70" y="226" type="line"/>
      <point x="70" y="186" type="line"/>
      <point x="268" y="186"/>
      <point x="327" y="88"/>
      <point x="331" y="27" type="curve" smooth="yes"/>
      <point x="338" y="-76"/>
      <point x="271" y="-133"/>
      <point x="218" y="-135" type="curve" smooth="yes"/>
      <point x="146" y="-138"/>
      <point x="93" y="-92"/>
      <point x="56" y="-16" type="curve"/>
      <point x="30" y="-28" type="line"/>
      <point x="59" y="-111"/>
      <point x="125" y="-172"/>
    </contour>
  </outline>
</glyph>
<glyph name="six" format="2">
  <advance width="430"/>
  <unicode hex="0036"/>
  <outline>
    <contour>
      <point x="225" y="-10" type="curve" smooth="yes"/>
      <point x="322" y="-10"/>
      <point x="390" y="80"/>
      <point x="390" y="193" type="curve" smooth="yes"/>
      <point x="390" y="319"/>
      <point x="311" y="381"/>
      <point x="244" y="381" type="curve" smooth="yes"/>
      <point x="194" y="381"/>
      <point x="173" y="370"/>
      <point x="148" y="341" type="curve"/>
      <point x="123" y="341" type="line"/>
      <point x="141" y="455"/>
      <point x="210" y="556"/>
      <point x="347" y="575" type="curve"/>
      <point x="337" y="600" type="line"/>
      <point x="162" y="580"/>
      <point x="40" y="444"/>
      <point x="40" y="224" type="curve" smooth="yes"/>
      <point x="40" y="70"/>
      <point x="125" y="-10"/>
    </contour>
    <contour>
      <point x="120" y="216" type="curve" smooth="yes"/>
      <point x="120" y="243"/>
      <point x="123" y="265"/>
      <point x="125" y="283" type="curve"/>
      <point x="142" y="314"/>
      <point x="182" y="346"/>
      <point x="215" y="346" type="curve" smooth="yes"/>
      <point x="276" y="346"/>
      <point x="311" y="281"/>
      <point x="311" y="175" type="curve" smooth="yes"/>
      <point x="311" y="90"/>
      <point x="270" y="20"/>
      <point x="215" y="20" type="curve" smooth="yes"/>
      <point x="145" y="20"/>
      <point x="120" y="92"/>
    </contour>
  </outline>
</glyph>
<glyph name="seven" format="2">
  <advance width="411"/>
  <unicode hex="0037"/>
  <outline>
    <contour>
      <point x="67" y="-158" type="line"/>
      <point x="142" y="-158" type="line"/>
      <point x="391" y="383" type="line"/>
      <point x="391" y="440" type="line"/>
      <point x="20" y="441" type="line"/>
      <point x="20" y="337" type="line"/>
      <point x="58" y="337" type="line"/>
      <point x="58" y="384" type="line"/>
      <point x="80" y="404" type="line"/>
      <point x="316" y="404" type="line"/>
      <point x="316" y="375" type="line"/>
    </contour>
  </outline>
</glyph>
<glyph name="question" format="2">
  <advance width="401"/>
  <unicode hex="003F"/>
  <outline>
    <contour>
      <point x="184" y="159" type="curve" smooth="yes"/>
      <point x="201" y="159"/>
      <point x="196" y="229"/>
      <point x="205" y="255" type="curve" smooth="yes"/>
      <point x="248" y="378"/>
      <point x="351" y="349"/>
      <point x="351" y="473" type="curve" smooth="yes"/>
      <point x="351" y="556"/>
      <point x="282" y="610"/>
      <point x="201" y="610" type="curve" smooth="yes"/>
      <point x="137" y="610"/>
      <point x="80" y="587"/>
      <point x="59" y="538" type="curve" smooth="yes"/>
      <point x="44" y="502"/>
      <point x="46" y="465"/>
      <point x="74" y="453" type="curve" smooth="yes"/>
      <point x="98" y="443"/>
      <point x="122" y="455"/>
      <point x="135" y="478" type="curve" smooth="yes"/>
      <point x="140" y="487"/>
      <point x="144" y="500"/>
      <point x="137" y="521" type="curve"/>
      <point x="133" y="557"/>
      <point x="154" y="582"/>
      <point x="198" y="583" type="curve" smooth="yes"/>
      <point x="251" y="584"/>
      <point x="299" y="535"/>
      <point x="287" y="483" type="curve" smooth="yes"/>
      <point x="279" y="447"/>
      <point x="257" y="421"/>
      <point x="231" y="393" type="curve" smooth="yes"/>
      <point x="144" y="298"/>
      <point x="155" y="159"/>
    </contour>
    <component base="period" xOffset="81"/>
  </outline>
</glyph>
<glyph name="at" format="2">
  <advance width="874"/>
  <unicode hex="0040"/>
  <outline>
    <contour>
      <point x="552" y="-172" type="curve"/>
      <point x="553" y="-140" type="line"/>
      <point x="296" y="-167"/>
      <point x="98" y="-45"/>
      <point x="100" y="220" type="curve" smooth="yes"/>
      <point x="102" y="449"/>
      <point x="253" y="579"/>
      <point x="460" y="579" type="curve" smooth="yes"/>
      <point x="669" y="579"/>
      <point x="806" y="434"/>
      <point x="792" y="220" type="curve" smooth="yes"/>
      <point x="785" y="119"/>
      <point x="722" y="24"/>
      <point x="598" y="24" type="curve"/>
      <point x="598" y="418" type="line"/>
      <point x="578" y="418" type="line"/>
      <point x="549" y="388" type="line"/>
      <point x="522" y="414"/>
      <point x="482" y="427"/>
      <point x="433" y="427" type="curve" smooth="yes"/>
      <point x="325" y="427"/>
      <point x="252" y="345"/>
      <point x="252" y="224" type="curve" smooth="yes"/>
      <point x="252" y="97"/>
      <point x="322" y="10"/>
      <point x="426" y="10" type="curve" smooth="yes"/>
      <point x="474" y="10"/>
      <point x="507" y="42"/>
      <point x="532" y="94" type="curve"/>
      <point x="552" y="94" type="line"/>
      <point x="552" y="16" type="line"/>
      <point x="590" y="-12" type="line"/>
      <point x="751" y="0"/>
      <point x="820" y="85"/>
      <point x="833" y="219" type="curve" smooth="yes"/>
      <point x="858" y="468"/>
      <point x="669" y="614"/>
      <point x="460" y="614" type="curve" smooth="yes"/>
      <point x="232" y="614"/>
      <point x="56" y="467"/>
      <point x="56" y="219" type="curve" smooth="yes"/>
      <point x="56" y="-65"/>
      <point x="269" y="-207"/>
    </contour>
    <contour>
      <point x="329" y="224" type="curve" smooth="yes"/>
      <point x="329" y="330"/>
      <point x="367" y="404"/>
      <point x="442" y="404" type="curve" smooth="yes"/>
      <point x="494" y="404"/>
      <point x="529" y="369"/>
      <point x="530" y="319" type="curve" smooth="yes"/>
      <point x="532" y="153" type="line"/>
      <point x="532" y="136" type="line"/>
      <point x="515" y="98"/>
      <point x="499" y="73"/>
      <point x="481" y="60" type="curve" smooth="yes"/>
      <point x="464" y="49"/>
      <point x="447" y="43"/>
      <point x="433" y="43" type="curve" smooth="yes"/>
      <point x="371" y="43"/>
      <point x="329" y="114"/>
    </contour>
  </outline>
</glyph>
<glyph name="A" format="2">
  <advance width="619"/>
  <unicode hex="0041"/>
  <outline>
    <contour>
      <point x="10" y="0" type="line"/>
      <point x="183" y="0" type="line"/>
      <point x="183" y="28" type="line"/>
      <point x="135" y="28" type="line"/>
      <point x="116" y="50" type="line"/>
      <point x="116" y="51" type="line"/>
      <point x="182" y="243" type="line"/>
      <point x="197" y="255" type="line"/>
      <point x="364" y="255" type="line"/>
      <point x="381" y="242" type="line"/>
      <point x="465" y="0" type="line"/>
      <point x="559" y="0" type="line"/>
      <point x="347" y="600" type="line"/>
      <point x="201" y="600" type="line"/>
      <point x="201" y="572" type="line"/>
      <point x="251" y="572" type="line"/>
      <point x="69" y="50" type="line"/>
      <point x="68" y="50" type="line"/>
      <point x="60" y="28" type="line"/>
      <point x="10" y="28" type="line"/>
    </contour>
    <contour>
      <point x="200" y="293" type="line"/>
      <point x="282" y="532" type="line"/>
      <point x="364" y="293" type="line"/>
      <point x="357" y="279" type="line"/>
      <point x="207" y="279" type="line"/>
    </contour>
  </outline>
</glyph>
<glyph name="B" format="2">
  <advance width="521"/>
  <unicode hex="0042"/>
  <outline>
    <contour>
      <point x="20" y="0" type="line"/>
      <point x="278" y="0" type="line" smooth="yes"/>
      <point x="401" y="0"/>
      <point x="491" y="58"/>
      <point x="491" y="183" type="curve" smooth="yes"/>
      <point x="491" y="278"/>
      <point x="429" y="321"/>
      <point x="347" y="333" type="curve"/>
      <point x="415" y="346"/>
      <point x="453" y="400"/>
      <point x="453" y="471" type="curve" smooth="yes"/>
      <point x="453" y="563"/>
      <point x="367" y="600"/>
      <point x="250" y="600" type="curve" smooth="yes"/>
      <point x="89" y="600" type="line"/>
      <point x="89" y="50" type="line"/>
      <point x="70" y="28" type="line"/>
      <point x="20" y="28" type="line"/>
    </contour>
    <contour>
      <point x="172" y="50" type="line"/>
      <point x="172" y="292" type="line"/>
      <point x="191" y="314" type="line"/>
      <point x="296" y="314" type="line" smooth="yes"/>
      <point x="375" y="314"/>
      <point x="405" y="247"/>
      <point x="405" y="178" type="curve" smooth="yes"/>
      <point x="405" y="111"/>
      <point x="374" y="28"/>
      <point x="295" y="28" type="curve" smooth="yes"/>
      <point x="191" y="28" type="line"/>
    </contour>
    <contour>
      <point x="172" y="367" type="line"/>
      <point x="172" y="550" type="line"/>
      <point x="191" y="572" type="line"/>
      <point x="271" y="572" type="line" smooth="yes"/>
      <point x="335" y="572"/>
      <point x="369" y="531"/>
      <point x="369" y="469" type="curve" smooth="yes"/>
      <point x="369" y="409"/>
      <point x="338" y="345"/>
      <point x="278" y="345" type="curve" smooth="yes"/>
      <point x="191" y="345" type="line"/>
    </contour>
  </outline>
</glyph>
<glyph name="F" format="2">
  <advance width="481"/>
  <unicode hex="0046"/>
  <outline>
    <contour>
      <point x="20" y="0" type="line"/>
      <point x="239" y="0" type="line"/>
      <point x="239" y="28" type="line"/>
      <point x="191" y="28" type="line"/>
      <point x="172" y="50" type="line"/>
      <point x="172" y="289" type="line"/>
      <point x="191" y="311" type="line"/>
      <point x="340" y="311" type="line"/>
      <point x="362" y="292" type="line"/>
      <point x="362" y="264" type="line"/>
      <point x="390" y="264" type="line"/>
      <point x="390" y="393" type="line"/>
      <point x="362" y="393" type="line"/>
      <point x="362" y="366" type="line"/>
      <point x="340" y="347" type="line"/>
      <point x="191" y="347" type="line"/>
      <point x="172" y="369" type="line"/>
      <point x="172" y="540" type="line"/>
      <point x="191" y="562" type="line"/>
      <point x="391" y="562" type="line"/>
      <point x="413" y="543" type="line"/>
      <point x="413" y="495" type="line"/>
      <point x="441" y="495" type="line"/>
      <point x="441" y="601" type="line"/>
      <point x="89" y="601" type="line"/>
      <point x="89" y="50" type="line"/>
      <point x="70" y="28" type="line"/>
      <point x="20" y="28" type="line"/>
    </contour>
  </outline>
</glyph>
<glyph name="H" format="2">
  <advance width="612"/>
  <unicode hex="0048"/>
  <outline>
    <contour>
      <point x="89" y="0" type="line"/>
      <point x="238" y="0" type="line"/>
      <point x="238" y="28" type="line"/>
      <point x="190" y="28" type="line"/>
      <point x="171" y="50" type="line"/>
      <point x="171" y="275" type="line"/>
      <point x="190" y="297" type="line"/>
      <point x="422" y="297" type="line"/>
      <point x="441" y="275" type="line"/>
      <point x="441" y="50" type="line"/>
      <point x="422" y="28" type="line"/>
      <point x="374" y="28" type="line"/>
      <point x="374" y="0" type="line"/>
      <point x="592" y="0" type="line"/>
      <point x="592" y="28" type="line"/>
      <point x="542" y="28" type="line"/>
      <point x="523" y="50" type="line"/>
      <point x="523" y="600" type="line"/>
      <point x="374" y="600" type="line"/>
      <point x="374" y="572" type="line"/>
      <point x="422" y="572" type="line"/>
      <point x="441" y="550" type="line"/>
      <point x="441" y="353" type="line"/>
      <point x="422" y="331" type="line"/>
      <point x="190" y="331" type="line"/>
      <point x="171" y="353" type="line"/>
      <point x="171" y="550" type="line"/>
      <point x="190" y="572" type="line"/>
      <point x="238" y="572" type="line"/>
      <point x="238" y="600" type="line"/>
      <point x="20" y="600" type="line"/>
      <point x="20" y="572" type="line"/>
      <point x="70" y="572" type="line"/>
      <point x="89" y="550" type="line"/>
    </contour>
  </outline>
</glyph>
<glyph name="I" format="2">
  <advance width="298"/>
  <unicode hex="0049"/>
  <outline>
    <contour>
      <point x="40" y="0" type="line"/>
      <point x="258" y="0" type="line"/>
      <point x="258" y="28" type="line"/>
      <point x="210" y="28" type="line"/>
      <point x="191" y="50" type="line"/>
      <point x="191" y="600" type="line"/>
      <point x="109" y="600" type="line"/>
      <point x="109" y="50" type="line"/>
      <point x="90" y="28" type="line"/>
      <point x="40" y="28" type="line"/>
    </contour>
  </outline>
</glyph>
<glyph name="J" format="2">
  <advance width="281"/>
  <unicode hex="004A"/>
  <outline>
    <contour>
      <point x="163" y="-160" type="line"/>
      <point x="163" y="550" type="line"/>
      <point x="182" y="572" type="line"/>
      <point x="230" y="572" type="line"/>
      <point x="230" y="600" type="line"/>
      <point x="12" y="600" type="line"/>
      <point x="12" y="572" type="line"/>
      <point x="62" y="572" type="line"/>
      <point x="81" y="550" type="line"/>
      <point x="81" y="-62" type="line"/>
      <point x="59" y="-81" type="line"/>
      <point x="0" y="-81" type="line"/>
      <point x="0" y="-104" type="line"/>
    </contour>
  </outline>
</glyph>
<glyph name="K" format="2">
  <advance width="592"/>
  <unicode hex="004B"/>
  <outline>
    <contour>
      <point x="89" y="0" type="line"/>
      <point x="171" y="0" type="line"/>
      <point x="171" y="289" type="line"/>
      <point x="409" y="52" type="line"/>
      <point x="409" y="50" type="line"/>
      <point x="390" y="28" type="line"/>
      <point x="340" y="28" type="line"/>
      <point x="340" y="0" type="line"/>
      <point x="592" y="0" type="line"/>
      <point x="592" y="28" type="line"/>
      <point x="544" y="28" type="line"/>
      <point x="520" y="50" type="line"/>
      <point x="515" y="54" type="line"/>
      <point x="238" y="322" type="line"/>
      <point x="339" y="422" type="line" smooth="yes"/>
      <point x="358" y="441"/>
      <point x="471" y="548"/>
      <point x="502" y="579" type="curve"/>
      <point x="538" y="579" type="line"/>
      <point x="538" y="600" type="line"/>
      <point x="371" y="600" type="line"/>
      <point x="371" y="579" type="line"/>
      <point x="408" y="579" type="line"/>
      <point x="423" y="562" type="line"/>
      <point x="375" y="512"/>
      <point x="276" y="414"/>
      <point x="222" y="365" type="curve" smooth="yes"/>
      <point x="199" y="344"/>
      <point x="180" y="328"/>
      <point x="171" y="319" type="curve"/>
      <point x="171" y="550" type="line"/>
      <point x="190" y="572" type="line"/>
      <point x="238" y="572" type="line"/>
      <point x="238" y="600" type="line"/>
      <point x="20" y="600" type="line"/>
      <point x="20" y="572" type="line"/>
      <point x="70" y="572" type="line"/>
      <point x="89" y="550" type="line"/>
    </contour>
  </outline>
</glyph>
<glyph name="L" format="2">
  <advance width="481"/>
  <unicode hex="004C"/>
  <outline>
    <contour>
      <point x="40" y="0" type="line"/>
      <point x="461" y="0" type="line"/>
      <point x="461" y="105" type="line"/>
      <point x="433" y="105" type="line"/>
      <point x="433" y="57" type="line"/>
      <point x="411" y="38" type="line"/>
      <point x="211" y="38" type="line"/>
      <point x="192" y="60" type="line"/>
      <point x="192" y="600" type="line"/>
      <point x="109" y="600" type="line"/>
      <point x="109" y="50" type="line"/>
      <point x="90" y="28" type="line"/>
      <point x="40" y="28" type="line"/>
    </contour>
  </outline>
</glyph>
<glyph name="M" format="2">
  <advance width="690"/>
  <unicode hex="004D"/>
  <outline>
    <contour>
      <point x="20" y="0" type="line"/>
      <point x="203" y="0" type="line"/>
      <point x="203" y="28" type="line"/>
      <point x="155" y="28" type="line"/>
      <point x="136" y="50" type="line"/>
      <point x="136" y="396" type="line"/>
      <point x="300" y="0" type="line"/>
      <point x="334" y="0" type="line"/>
      <point x="518" y="501" type="line"/>
      <point x="518" y="50" type="line"/>
      <point x="499" y="28" type="line"/>
      <point x="449" y="28" type="line"/>
      <point x="449" y="0" type="line"/>
      <point x="668" y="0" type="line"/>
      <point x="668" y="28" type="line"/>
      <point x="620" y="28" type="line"/>
      <point x="601" y="50" type="line"/>
      <point x="601" y="550" type="line"/>
      <point x="620" y="572" type="line"/>
      <point x="670" y="572" type="line"/>
      <point x="670" y="600" type="line"/>
      <point x="515" y="600" type="line"/>
      <point x="341" y="121" type="line"/>
      <point x="143" y="600" type="line"/>
      <point x="89" y="600" type="line"/>
      <point x="89" y="50" type="line"/>
      <point x="70" y="28" type="line"/>
      <point x="20" y="28" type="line"/>
    </contour>
  </outline>
</glyph>
<glyph name="N" format="2">
  <advance width="609"/>
  <unicode hex="004E"/>
  <outline>
    <contour>
      <point x="20" y="0" type="line"/>
      <point x="208" y="0" type="line"/>
      <point x="208" y="28" type="line"/>
      <point x="160" y="28" type="line"/>
      <point x="141" y="50" type="line"/>
      <point x="141" y="72" type="line"/>
      <point x="137" y="434" type="line"/>
      <point x="408" y="0" type="line"/>
      <point x="521" y="0" type="line"/>
      <point x="522" y="528" type="line"/>
      <point x="522" y="550" type="line"/>
      <point x="541" y="572" type="line"/>
      <point x="589" y="572" type="line"/>
      <point x="589" y="600" type="line"/>
      <point x="401" y="600" type="line"/>
      <point x="401" y="572" type="line"/>
      <point x="451" y="572" type="line"/>
      <point x="470" y="550" type="line"/>
      <point x="470" y="70" type="line"/>
      <point x="127" y="600" type="line"/>
      <point x="89" y="600" type="line"/>
      <point x="89" y="50" type="line"/>
      <point x="70" y="28" type="line"/>
      <point x="20" y="28" type="line"/>
    </contour>
  </outline>
</glyph>
<glyph name="O" format="2">
  <advance width="602"/>
  <unicode hex="004F"/>
  <outline>
    <contour>
      <point x="305" y="-9" type="curve" smooth="yes"/>
      <point x="467" y="-9"/>
      <point x="562" y="113"/>
      <point x="562" y="308" type="curve" smooth="yes"/>
      <point x="562" y="482"/>
      <point x="453" y="610"/>
      <point x="305" y="610" type="curve" smooth="yes"/>
      <point x="144" y="610"/>
      <point x="40" y="487"/>
      <point x="40" y="306" type="curve" smooth="yes"/>
      <point x="40" y="138"/>
      <point x="120" y="-9"/>
    </contour>
    <contour>
      <point x="140" y="297" type="curve" smooth="yes"/>
      <point x="140" y="481"/>
      <point x="198" y="588"/>
      <point x="305" y="588" type="curve" smooth="yes"/>
      <point x="406" y="588"/>
      <point x="464" y="482"/>
      <point x="464" y="297" type="curve" smooth="yes"/>
      <point x="464" y="149"/>
      <point x="401" y="19"/>
      <point x="304" y="15" type="curve" smooth="yes"/>
      <point x="197" y="11"/>
      <point x="140" y="156"/>
    </contour>
  </outline>
</glyph>
<glyph name="P" format="2">
  <advance width="493"/>
  <unicode hex="0050"/>
  <outline>
    <contour>
      <point x="20" y="0" type="line"/>
      <point x="240" y="0" type="line"/>
      <point x="240" y="28" type="line"/>
      <point x="191" y="28" type="line"/>
      <point x="172" y="50" type="line"/>
      <point x="172" y="292" type="line"/>
      <point x="191" y="314" type="line"/>
      <point x="250" y="314" type="line" smooth="yes"/>
      <point x="367" y="314"/>
      <point x="453" y="367"/>
      <point x="453" y="471" type="curve" smooth="yes"/>
      <point x="453" y="573"/>
      <point x="367" y="600"/>
      <point x="250" y="600" type="curve" smooth="yes"/>
      <point x="20" y="600" type="line"/>
      <point x="20" y="572" type="line"/>
      <point x="70" y="572" type="line"/>
      <point x="89" y="550" type="line"/>
      <point x="89" y="50" type="line"/>
      <point x="70" y="28" type="line"/>
      <point x="20" y="28" type="line"/>
    </contour>
    <contour>
      <point x="172" y="367" type="line"/>
      <point x="172" y="550" type="line"/>
      <point x="191" y="572" type="line"/>
      <point x="271" y="572" type="line" smooth="yes"/>
      <point x="335" y="572"/>
      <point x="369" y="531"/>
      <point x="369" y="469" type="curve" smooth="yes"/>
      <point x="369" y="409"/>
      <point x="338" y="345"/>
      <point x="278" y="345" type="curve" smooth="yes"/>
      <point x="191" y="345" type="line"/>
    </contour>
  </outline>
</glyph>
<glyph name="Q" format="2">
  <advance width="602"/>
  <unicode hex="0051"/>
  <outline>
    <contour>
      <point x="545" y="-179" type="curve"/>
      <point x="545" y="-148" type="line"/>
      <point x="475" y="-142"/>
      <point x="421" y="-83"/>
      <point x="373" y="-1" type="curve"/>
      <point x="315" y="14" type="line"/>
      <point x="304" y="14" type="line"/>
      <point x="245" y="-1" type="line"/>
      <point x="252" y="-4" type="line"/>
      <point x="300" y="-51"/>
      <point x="368" y="-135"/>
      <point x="442" y="-160" type="curve" smooth="yes"/>
      <point x="478" y="-172"/>
      <point x="513" y="-178"/>
    </contour>
    <component base="O"/>
  </outline>
</glyph>
<glyph name="U" format="2">
  <advance width="623"/>
  <unicode hex="0055"/>
  <outline>
    <contour>
      <point x="310" y="-10" type="curve" smooth="yes"/>
      <point x="466" y="-11"/>
      <point x="533" y="70"/>
      <point x="536" y="243" type="curve" smooth="yes"/>
      <point x="538" y="357"/>
      <point x="537" y="453"/>
      <point x="536" y="539" type="curve" smooth="yes"/>
      <point x="536" y="550" type="line"/>
      <point x="555" y="572" type="line"/>
      <point x="603" y="572" type="line"/>
      <point x="603" y="600" type="line"/>
      <point x="409" y="600" type="line"/>
      <point x="409" y="572" type="line"/>
      <point x="459" y="572" type="line"/>
      <point x="478" y="550" type="line"/>
      <point x="478" y="538" type="line" smooth="yes"/>
      <point x="477" y="477"/>
      <point x="477" y="396"/>
      <point x="478" y="229" type="curve" smooth="yes"/>
      <point x="479" y="88"/>
      <point x="413" y="39"/>
      <point x="329" y="38" type="curve" smooth="yes"/>
      <point x="235" y="37"/>
      <point x="169" y="79"/>
      <point x="169" y="218" type="curve" smooth="yes"/>
      <point x="169" y="550" type="line"/>
      <point x="188" y="572" type="line"/>
      <point x="236" y="572" type="line"/>
      <point x="236" y="600" type="line"/>
      <point x="10" y="600" type="line"/>
      <point x="10" y="572" type="line"/>
      <point x="60" y="572" type="line"/>
      <point x="79" y="550" type="line"/>
      <point x="79" y="226" type="line" smooth="yes"/>
      <point x="79" y="43"/>
      <point x="176" y="-9"/>
    </contour>
  </outline>
</glyph>
<glyph name="W" format="2">
  <advance width="791"/>
  <unicode hex="0057"/>
  <outline>
    <contour>
      <point x="190" y="0" type="line"/>
      <point x="266" y="0" type="line"/>
      <point x="396" y="472" type="line"/>
      <point x="585" y="0" type="line"/>
      <point x="631" y="0" type="line"/>
      <point x="761" y="600" type="line"/>
      <point x="639" y="600" type="line"/>
      <point x="639" y="572" type="line"/>
      <point x="687" y="572" type="line"/>
      <point x="706" y="550" type="line"/>
      <point x="618" y="135" type="line"/>
      <point x="440" y="600" type="line"/>
      <point x="385" y="600" type="line"/>
      <point x="247" y="92" type="line"/>
      <point x="103" y="600" type="line"/>
      <point x="20" y="600" type="line"/>
    </contour>
  </outline>
</glyph>
<glyph name="X" format="2">
  <advance width="623"/>
  <unicode hex="0058"/>
  <guideline x="594" y="847" angle="90"/>
  <outline>
    <contour>
      <point x="-30" y="0" type="line"/>
      <point x="223" y="0" type="line"/>
      <point x="223" y="28" type="line"/>
      <point x="155" y="28" type="line"/>
      <point x="130" y="58" type="line"/>
      <point x="300" y="273" type="line"/>
      <point x="453" y="58" type="line"/>
      <point x="428" y="28" type="line"/>
      <point x="362" y="28" type="line"/>
      <point x="362" y="0" type="line"/>
      <point x="595" y="0" type="line"/>
      <point x="353" y="339" type="line"/>
      <point x="539" y="564" type="line"/>
      <point x="603" y="564" type="line"/>
      <point x="603" y="600" type="line"/>
      <point x="350" y="600" type="line"/>
      <point x="350" y="564" type="line"/>
      <point x="418" y="564" type="line"/>
      <point x="444" y="534" type="line"/>
      <point x="320" y="384" type="line"/>
      <point x="156" y="600" type="line"/>
      <point x="14" y="600" type="line"/>
      <point x="14" y="563" type="line"/>
      <point x="82" y="563" type="line"/>
      <point x="199" y="409" type="line"/>
      <point x="266" y="318" type="line"/>
      <point x="34" y="28" type="line"/>
      <point x="-30" y="28" type="line"/>
    </contour>
    <contour>
      <point x="6" y="0" type="move"/>
    </contour>
  </outline>
</glyph>
<glyph name="Y" format="2">
  <advance width="440"/>
  <unicode hex="0059"/>
  <guideline x="-561" y="440" angle="0"/>
  <outline>
    <contour>
      <point x="76" y="0" type="line"/>
      <point x="285" y="0" type="line"/>
      <point x="285" y="28" type="line"/>
      <point x="237" y="28" type="line"/>
      <point x="218" y="50" type="line"/>
      <point x="218" y="272" type="line"/>
      <point x="383" y="572" type="line"/>
      <point x="440" y="572" type="line"/>
      <point x="440" y="600" type="line"/>
      <point x="266" y="600" type="line"/>
      <point x="266" y="572" type="line"/>
      <point x="314" y="572" type="line"/>
      <point x="332" y="548" type="line"/>
      <point x="206" y="322" type="line"/>
      <point x="205" y="322" type="line"/>
      <point x="38" y="600" type="line"/>
      <point x="-50" y="599" type="line"/>
      <point x="145" y="272" type="line"/>
      <point x="145" y="50" type="line"/>
      <point x="126" y="28" type="line"/>
      <point x="76" y="28" type="line"/>
    </contour>
  </outline>
</glyph>
<glyph name="bracketleft" format="2">
  <advance width="344"/>
  <unicode hex="005B"/>
  <outline>
    <contour>
      <point x="70" y="-130" type="line"/>
      <point x="274" y="-130" type="line"/>
      <point x="274" y="-90" type="line"/>
      <point x="157" y="-90" type="line"/>
      <point x="136" y="-69" type="line"/>
      <point x="136" y="607" type="line"/>
      <point x="157" y="629" type="line"/>
      <point x="274" y="629" type="line"/>
      <point x="274" y="669" type="line"/>
      <point x="70" y="669" type="line"/>
    </contour>
  </outline>
</glyph>
<glyph name="a" format="2">
  <advance width="481"/>
  <unicode hex="0061"/>
  <guideline x="229" y="440" angle="0"/>
  <outline>
    <contour>
      <point x="222" y="-10" type="curve" smooth="yes"/>
      <point x="275" y="-10"/>
      <point x="311" y="25"/>
      <point x="338" y="83" type="curve"/>
      <point x="360" y="83" type="line"/>
      <point x="360" y="0" type="line"/>
      <point x="411" y="0" type="line"/>
      <point x="411" y="440" type="line"/>
      <point x="389" y="440" type="line"/>
      <point x="357" y="407" type="line"/>
      <point x="327" y="435"/>
      <point x="283" y="450"/>
      <point x="229" y="450" type="curve" smooth="yes"/>
      <point x="110" y="450"/>
      <point x="30" y="359"/>
      <point x="30" y="226" type="curve" smooth="yes"/>
      <point x="30" y="86"/>
      <point x="107" y="-10"/>
    </contour>
    <contour>
      <point x="115" y="226" type="curve" smooth="yes"/>
      <point x="115" y="343"/>
      <point x="157" y="424"/>
      <point x="239" y="424" type="curve" smooth="yes"/>
      <point x="297" y="424"/>
      <point x="335" y="386"/>
      <point x="336" y="331" type="curve" smooth="yes"/>
      <point x="338" y="148" type="line"/>
      <point x="338" y="129" type="line"/>
      <point x="320" y="87"/>
      <point x="302" y="60"/>
      <point x="282" y="45" type="curve" smooth="yes"/>
      <point x="264" y="33"/>
      <point x="245" y="26"/>
      <point x="229" y="26" type="curve" smooth="yes"/>
      <point x="161" y="26"/>
      <point x="115" y="105"/>
    </contour>
  </outline>
</glyph>
<glyph name="d" format="2">
  <advance width="478"/>
  <unicode hex="0064"/>
  <guideline x="233" y="-60" angle="0"/>
  <outline>
    <contour>
      <point x="222" y="-10" type="curve" smooth="yes"/>
      <point x="276" y="-10"/>
      <point x="311" y="17"/>
      <point x="338" y="76" type="curve"/>
      <point x="367" y="76" type="line"/>
      <point x="367" y="0" type="line"/>
      <point x="411" y="0" type="line"/>
      <point x="411" y="550" type="line"/>
      <point x="430" y="572" type="line"/>
      <point x="478" y="572" type="line"/>
      <point x="478" y="600" type="line"/>
      <point x="271" y="600" type="line"/>
      <point x="271" y="572" type="line"/>
      <point x="319" y="572" type="line"/>
      <point x="338" y="550" type="line"/>
      <point x="338" y="423" type="line"/>
      <point x="310" y="441"/>
      <point x="272" y="450"/>
      <point x="229" y="450" type="curve" smooth="yes"/>
      <point x="110" y="450"/>
      <point x="30" y="357"/>
      <point x="30" y="224" type="curve" smooth="yes"/>
      <point x="30" y="93"/>
      <point x="100" y="-10"/>
    </contour>
    <contour>
      <point x="115" y="224" type="curve" smooth="yes"/>
      <point x="115" y="341"/>
      <point x="157" y="424"/>
      <point x="239" y="424" type="curve" smooth="yes"/>
      <point x="297" y="424"/>
      <point x="335" y="386"/>
      <point x="336" y="331" type="curve" smooth="yes"/>
      <point x="338" y="173" type="line"/>
      <point x="338" y="127" type="line"/>
      <point x="315" y="83"/>
      <point x="297" y="55"/>
      <point x="277" y="40" type="curve" smooth="yes"/>
      <point x="260" y="29"/>
      <point x="244" y="24"/>
      <point x="229" y="24" type="curve" smooth="yes"/>
      <point x="217" y="24"/>
      <point x="207" y="26"/>
      <point x="197" y="31" type="curve" smooth="yes"/>
      <point x="147" y="52"/>
      <point x="115" y="124"/>
    </contour>
  </outline>
</glyph>
<glyph name="f" format="2">
  <advance width="290"/>
  <unicode hex="0066"/>
  <outline>
    <contour>
      <point x="21" y="0" type="line"/>
      <point x="229" y="0" type="line"/>
      <point x="229" y="28" type="line"/>
      <point x="181" y="28" type="line"/>
      <point x="162" y="50" type="line"/>
      <point x="162" y="393" type="line"/>
      <point x="178" y="407" type="line"/>
      <point x="269" y="407" type="line"/>
      <point x="269" y="440" type="line"/>
      <point x="163" y="440" type="line"/>
      <point x="165" y="529"/>
      <point x="186" y="575"/>
      <point x="227" y="572" type="curve" smooth="yes"/>
      <point x="244" y="570"/>
      <point x="254" y="560"/>
      <point x="260" y="538" type="curve"/>
      <point x="260" y="517"/>
      <point x="267" y="507"/>
      <point x="275" y="500" type="curve" smooth="yes"/>
      <point x="292" y="485"/>
      <point x="317" y="482"/>
      <point x="335" y="498" type="curve" smooth="yes"/>
      <point x="356" y="516"/>
      <point x="355" y="553"/>
      <point x="331" y="579" type="curve" smooth="yes"/>
      <point x="310" y="602"/>
      <point x="276" y="606"/>
      <point x="227" y="603" type="curve" smooth="yes"/>
      <point x="161" y="597"/>
      <point x="108" y="535"/>
      <point x="93" y="440" type="curve"/>
      <point x="27" y="440" type="line"/>
      <point x="27" y="407" type="line"/>
      <point x="72" y="407" type="line"/>
      <point x="89" y="393" type="line"/>
      <point x="89" y="50" type="line"/>
      <point x="70" y="28" type="line"/>
      <point x="20" y="28" type="line"/>
    </contour>
  </outline>
</glyph>
<glyph name="h" format="2">
  <advance width="504"/>
  <unicode hex="0068"/>
  <outline>
    <contour>
      <point x="22" y="0" type="line"/>
      <point x="231" y="0" type="line"/>
      <point x="231" y="28" type="line"/>
      <point x="183" y="28" type="line"/>
      <point x="164" y="50" type="line"/>
      <point x="164" y="306" type="line"/>
      <point x="191" y="380"/>
      <point x="218" y="408"/>
      <point x="263" y="411" type="curve" smooth="yes"/>
      <point x="318" y="411"/>
      <point x="354" y="377"/>
      <point x="354" y="281" type="curve" smooth="yes"/>
      <point x="354" y="40" type="line"/>
      <point x="345" y="28" type="line"/>
      <point x="285" y="28" type="line"/>
      <point x="285" y="0" type="line"/>
      <point x="494" y="0" type="line"/>
      <point x="494" y="28" type="line"/>
      <point x="436" y="28" type="line"/>
      <point x="427" y="40" type="line"/>
      <point x="427" y="331" type="line" smooth="yes"/>
      <point x="427" y="404"/>
      <point x="369" y="450"/>
      <point x="289" y="450" type="curve" smooth="yes"/>
      <point x="231" y="450"/>
      <point x="192" y="420"/>
      <point x="164" y="356" type="curve"/>
      <point x="164" y="481" type="line"/>
      <point x="91" y="481" type="line"/>
      <point x="91" y="50" type="line"/>
      <point x="72" y="28" type="line"/>
      <point x="22" y="28" type="line"/>
    </contour>
    <component base="empattement_haut_gauche" xOffset="-10"/>
  </outline>
</glyph>
<glyph name="l" format="2">
  <advance width="240"/>
  <unicode hex="006C"/>
  <outline>
    <contour>
      <point x="22" y="0" type="line"/>
      <point x="230" y="0" type="line"/>
      <point x="230" y="28" type="line"/>
      <point x="182" y="28" type="line"/>
      <point x="163" y="50" type="line"/>
      <point x="163" y="600" type="line"/>
      <point x="10" y="544" type="line"/>
      <point x="10" y="521" type="line"/>
      <point x="69" y="521" type="line"/>
      <point x="91" y="502" type="line"/>
      <point x="91" y="50" type="line"/>
      <point x="72" y="28" type="line"/>
      <point x="22" y="28" type="line"/>
    </contour>
  </outline>
</glyph>
<glyph name="n" format="2">
  <advance width="492"/>
  <unicode hex="006E"/>
  <outline>
    <contour>
      <point x="273" y="0" type="line"/>
      <point x="482" y="0" type="line"/>
      <point x="482" y="28" type="line"/>
      <point x="434" y="28" type="line"/>
      <point x="415" y="50" type="line"/>
      <point x="415" y="334" type="line" smooth="yes"/>
      <point x="415" y="404"/>
      <point x="357" y="450"/>
      <point x="277" y="450" type="curve" smooth="yes"/>
      <point x="220" y="450"/>
      <point x="182" y="424"/>
      <point x="154" y="363" type="curve" smooth="yes"/>
      <point x="153" y="361"/>
      <point x="153" y="360"/>
      <point x="152" y="359" type="curve"/>
      <point x="130" y="359" type="line"/>
      <point x="130" y="440" type="line"/>
      <point x="79" y="440" type="line"/>
      <point x="79" y="72" type="line"/>
      <point x="152" y="72" type="line"/>
      <point x="152" y="309" type="line" smooth="yes"/>
      <point x="152" y="310"/>
      <point x="153" y="310"/>
      <point x="153" y="311" type="curve"/>
      <point x="180" y="383"/>
      <point x="206" y="408"/>
      <point x="251" y="411" type="curve" smooth="yes"/>
      <point x="306" y="411"/>
      <point x="342" y="377"/>
      <point x="342" y="284" type="curve" smooth="yes"/>
      <point x="342" y="50" type="line"/>
      <point x="323" y="28" type="line"/>
      <point x="273" y="28" type="line"/>
    </contour>
    <component base="empattement_droit_bas" xOffset="-22"/>
  </outline>
</glyph>
<glyph name="o" format="2">
  <advance width="462"/>
  <unicode hex="006F"/>
  <outline>
    <contour>
      <point x="235" y="-10" type="curve" smooth="yes"/>
      <point x="345" y="-10"/>
      <point x="432" y="106"/>
      <point x="432" y="221" type="curve" smooth="yes"/>
      <point x="432" y="357"/>
      <point x="345" y="450"/>
      <point x="235" y="450" type="curve" smooth="yes"/>
      <point x="114" y="450"/>
      <point x="30" y="357"/>
      <point x="30" y="221" type="curve" smooth="yes"/>
      <point x="30" y="106"/>
      <point x="116" y="-10"/>
    </contour>
    <contour>
      <point x="115" y="221" type="curve" smooth="yes"/>
      <point x="115" y="357"/>
      <point x="154" y="425"/>
      <point x="235" y="425" type="curve" smooth="yes"/>
      <point x="308" y="425"/>
      <point x="348" y="357"/>
      <point x="348" y="221" type="curve" smooth="yes"/>
      <point x="348" y="106"/>
      <point x="305" y="14"/>
      <point x="235" y="15" type="curve" smooth="yes"/>
      <point x="163" y="16"/>
      <point x="115" y="106"/>
    </contour>
  </outline>
</glyph>
<glyph name="p" format="2">
  <advance width="471"/>
  <unicode hex="0070"/>
  <outline>
    <contour>
      <point x="-10" y="-180" type="line"/>
      <point x="202" y="-180" type="line"/>
      <point x="202" y="-152" type="line"/>
      <point x="152" y="-152" type="line"/>
      <point x="133" y="-130" type="line"/>
      <point x="133" y="56" type="line"/>
      <point x="170" y="17"/>
      <point x="198" y="-10"/>
      <point x="252" y="-10" type="curve" smooth="yes"/>
      <point x="374" y="-10"/>
      <point x="441" y="92"/>
      <point x="441" y="224" type="curve" smooth="yes"/>
      <point x="441" y="357"/>
      <point x="371" y="450"/>
      <point x="252" y="450" type="curve" smooth="yes"/>
      <point x="199" y="450"/>
      <point x="149" y="426"/>
      <point x="125" y="367" type="curve"/>
      <point x="104" y="367" type="line"/>
      <point x="104" y="440" type="line"/>
      <point x="58" y="440" type="line"/>
      <point x="57" y="-130" type="line"/>
      <point x="38" y="-152" type="line"/>
      <point x="-10" y="-152" type="line"/>
    </contour>
    <contour>
      <point x="133" y="127" type="curve"/>
      <point x="135" y="321" type="line"/>
      <point x="178" y="419"/>
      <point x="224" y="415"/>
      <point x="252" y="414" type="curve" smooth="yes"/>
      <point x="314" y="412"/>
      <point x="356" y="341"/>
      <point x="356" y="224" type="curve" smooth="yes"/>
      <point x="356" y="122"/>
      <point x="329" y="24"/>
      <point x="252" y="24" type="curve" smooth="yes"/>
      <point x="197" y="24"/>
      <point x="157" y="56"/>
    </contour>
  </outline>
</glyph>
<glyph name="s" format="2">
  <advance width="368"/>
  <unicode hex="0073"/>
  <outline>
    <contour>
      <point x="195" y="-10" type="curve" smooth="yes"/>
      <point x="263" y="-10"/>
      <point x="338" y="25"/>
      <point x="338" y="124" type="curve" smooth="yes"/>
      <point x="338" y="196"/>
      <point x="256" y="241"/>
      <point x="173" y="271" type="curve" smooth="yes"/>
      <point x="145" y="281"/>
      <point x="109" y="288"/>
      <point x="98" y="335" type="curve" smooth="yes"/>
      <point x="87" y="383"/>
      <point x="131" y="426"/>
      <point x="179" y="426" type="curve" smooth="yes"/>
      <point x="219" y="424"/>
      <point x="238" y="403"/>
      <point x="234" y="370" type="curve"/>
      <point x="228" y="351"/>
      <point x="231" y="339"/>
      <point x="236" y="330" type="curve" smooth="yes"/>
      <point x="247" y="310"/>
      <point x="270" y="299"/>
      <point x="291" y="308" type="curve" smooth="yes"/>
      <point x="317" y="319"/>
      <point x="319" y="353"/>
      <point x="305" y="386" type="curve" smooth="yes"/>
      <point x="286" y="430"/>
      <point x="235" y="450"/>
      <point x="176" y="450" type="curve" smooth="yes"/>
      <point x="102" y="450"/>
      <point x="40" y="402"/>
      <point x="40" y="327" type="curve" smooth="yes"/>
      <point x="40" y="254"/>
      <point x="89" y="224"/>
      <point x="166" y="192" type="curve" smooth="yes"/>
      <point x="224" y="168"/>
      <point x="266" y="150"/>
      <point x="273" y="110" type="curve" smooth="yes"/>
      <point x="281" y="63"/>
      <point x="234" y="22"/>
      <point x="190" y="22" type="curve" smooth="yes"/>
      <point x="137" y="22"/>
      <point x="81" y="79"/>
      <point x="73" y="169" type="curve"/>
      <point x="47" y="169" type="line"/>
      <point x="47" y="24" type="line"/>
      <point x="71" y="24" type="line"/>
      <point x="71" y="38" type="line"/>
      <point x="88" y="38" type="line"/>
      <point x="129" y="4"/>
      <point x="143" y="-10"/>
    </contour>
  </outline>
</glyph>
<glyph name="w" format="2">
  <advance width="649"/>
  <unicode hex="0077"/>
  <outline>
    <contour>
      <point x="147" y="-10" type="curve" smooth="yes"/>
      <point x="175" y="-10"/>
      <point x="203" y="-3"/>
      <point x="227" y="11" type="curve" smooth="yes"/>
      <point x="254" y="27"/>
      <point x="276" y="52"/>
      <point x="287" y="85" type="curve"/>
      <point x="288" y="79" type="line" smooth="yes"/>
      <point x="291" y="61"/>
      <point x="299" y="47"/>
      <point x="305" y="36" type="curve" smooth="yes"/>
      <point x="309" y="29"/>
      <point x="314" y="24"/>
      <point x="319" y="19" type="curve" smooth="yes"/>
      <point x="347" y="-7"/>
      <point x="384" y="-10"/>
      <point x="408" y="-10" type="curve" smooth="yes"/>
      <point x="504" y="-10"/>
      <point x="569" y="64"/>
      <point x="595" y="169" type="curve" smooth="yes"/>
      <point x="615" y="250"/>
      <point x="618" y="392"/>
      <point x="575" y="431" type="curve" smooth="yes"/>
      <point x="548" y="456"/>
      <point x="501" y="454"/>
      <point x="484" y="431" type="curve" smooth="yes"/>
      <point x="470" y="412"/>
      <point x="469" y="391"/>
      <point x="488" y="372" type="curve" smooth="yes"/>
      <point x="495" y="365"/>
      <point x="504" y="357"/>
      <point x="525" y="357" type="curve"/>
      <point x="547" y="351"/>
      <point x="554" y="342"/>
      <point x="558" y="324" type="curve" smooth="yes"/>
      <point x="578" y="224"/>
      <point x="539" y="42"/>
      <point x="426" y="42" type="curve" smooth="yes"/>
      <point x="381" y="42"/>
      <point x="351" y="58"/>
      <point x="351" y="107" type="curve" smooth="yes"/>
      <point x="351" y="390" type="line"/>
      <point x="370" y="412" type="line"/>
      <point x="418" y="412" type="line"/>
      <point x="418" y="440" type="line"/>
      <point x="203" y="440" type="line"/>
      <point x="203" y="412" type="line"/>
      <point x="253" y="412" type="line"/>
      <point x="272" y="390" type="line"/>
      <point x="272" y="128" type="line"/>
      <point x="258" y="87"/>
      <point x="240" y="61"/>
      <point x="212" y="47" type="curve" smooth="yes"/>
      <point x="194" y="38"/>
      <point x="175" y="34"/>
      <point x="151" y="34" type="curve" smooth="yes"/>
      <point x="122" y="34"/>
      <point x="103" y="55"/>
      <point x="103" y="107" type="curve" smooth="yes"/>
      <point x="103" y="390" type="line"/>
      <point x="122" y="412" type="line"/>
      <point x="170" y="412" type="line"/>
      <point x="170" y="440" type="line"/>
      <point x="30" y="440" type="line"/>
      <point x="30" y="97" type="line" smooth="yes"/>
      <point x="30" y="33"/>
      <point x="81" y="-10"/>
    </contour>
  </outline>
</glyph>
<glyph name="y" format="2">
  <advance width="491"/>
  <unicode hex="0079"/>
  <outline>
    <contour>
      <point x="228" y="-180" type="curve" smooth="yes"/>
      <point x="324" y="-181"/>
      <point x="408" y="-91"/>
      <point x="414" y="33" type="curve"/>
      <point x="414" y="390" type="line"/>
      <point x="433" y="412" type="line"/>
      <point x="481" y="412" type="line"/>
      <point x="481" y="440" type="line"/>
      <point x="271" y="440" type="line"/>
      <point x="271" y="412" type="line"/>
      <point x="321" y="412" type="line"/>
      <point x="340" y="390" type="line"/>
      <point x="340" y="101" type="line"/>
      <point x="335" y="94"/>
      <point x="332" y="89"/>
      <point x="327" y="83" type="curve" smooth="yes"/>
      <point x="300" y="51"/>
      <point x="268" y="29"/>
      <point x="233" y="29" type="curve" smooth="yes"/>
      <point x="178" y="29"/>
      <point x="142" y="64"/>
      <point x="142" y="157" type="curve" smooth="yes"/>
      <point x="142" y="390" type="line"/>
      <point x="161" y="412" type="line"/>
      <point x="209" y="412" type="line"/>
      <point x="209" y="440" type="line"/>
      <point x="0" y="440" type="line"/>
      <point x="0" y="412" type="line"/>
      <point x="50" y="412" type="line"/>
      <point x="69" y="390" type="line"/>
      <point x="69" y="106" type="line" smooth="yes"/>
      <point x="69" y="37"/>
      <point x="127" y="-10"/>
      <point x="207" y="-10" type="curve" smooth="yes"/>
      <point x="262" y="-10"/>
      <point x="311" y="18"/>
      <point x="340" y="66" type="curve"/>
      <point x="338" y="-83"/>
      <point x="321" y="-147"/>
      <point x="242" y="-132" type="curve"/>
      <point x="214" y="-118"/>
      <point x="226" y="-89"/>
      <point x="200" y="-85" type="curve" smooth="yes"/>
      <point x="169" y="-80"/>
      <point x="151" y="-103"/>
      <point x="148" y="-122" type="curve" smooth="yes"/>
      <point x="143" y="-153"/>
      <point x="163" y="-179"/>
    </contour>
  </outline>
</glyph>
<glyph name="z" format="2">
  <advance width="399"/>
  <unicode hex="007A"/>
  <outline>
    <contour>
      <point x="20" y="0" type="line"/>
      <point x="359" y="0" type="line"/>
      <point x="359" y="136" type="line"/>
      <point x="331" y="136" type="line"/>
      <point x="331" y="86" type="line"/>
      <point x="309" y="67" type="line"/>
      <point x="112" y="67" type="line"/>
      <point x="112" y="77" type="line"/>
      <point x="379" y="420" type="line"/>
      <point x="379" y="440" type="line"/>
      <point x="67" y="440" type="line"/>
      <point x="67" y="304" type="line"/>
      <point x="95" y="304" type="line"/>
      <point x="95" y="354" type="line"/>
      <point x="117" y="373" type="line"/>
      <point x="153" y="373" type="line"/>
      <point x="166" y="373" type="line"/>
      <point x="299" y="373" type="line"/>
      <point x="20" y="11" type="line"/>
    </contour>
  </outline>
</glyph>
<glyph name="braceleft" format="2">
  <advance width="418"/>
  <unicode hex="007B"/>
  <outline>
    <contour>
      <point x="368" y="-129" type="curve"/>
      <point x="368" y="-105" type="line"/>
      <point x="248" y="-105"/>
      <point x="231" y="-20"/>
      <point x="239" y="94" type="curve" smooth="yes"/>
      <point x="243" y="179"/>
      <point x="256" y="215"/>
      <point x="134" y="256" type="curve"/>
      <point x="134" y="265" type="line"/>
      <point x="256" y="304"/>
      <point x="242" y="341"/>
      <point x="239" y="427" type="curve" smooth="yes"/>
      <point x="232" y="541"/>
      <point x="248" y="627"/>
      <point x="368" y="627" type="curve"/>
      <point x="368" y="649" type="line"/>
      <point x="183" y="649"/>
      <point x="159" y="559"/>
      <point x="168" y="453" type="curve" smooth="yes"/>
      <point x="176" y="348"/>
      <point x="198" y="288"/>
      <point x="70" y="278" type="curve"/>
      <point x="70" y="243" type="line"/>
      <point x="198" y="233"/>
      <point x="176" y="172"/>
      <point x="168" y="68" type="curve" smooth="yes"/>
      <point x="159" y="-29"/>
      <point x="183" y="-129"/>
    </contour>
  </outline>
</glyph>
<glyph name="degree" format="2">
  <advance width="314"/>
  <unicode hex="00B0"/>
  <outline>
    <contour>
      <point x="158" y="405" type="curve" smooth="yes"/>
      <point x="211" y="405"/>
      <point x="255" y="453"/>
      <point x="254" y="510" type="curve" smooth="yes"/>
      <point x="253" y="569"/>
      <point x="205" y="609"/>
      <point x="159" y="609" type="curve" smooth="yes"/>
      <point x="107" y="609"/>
      <point x="60" y="573"/>
      <point x="60" y="509" type="curve" smooth="yes"/>
      <point x="60" y="463"/>
      <point x="95" y="405"/>
    </contour>
    <contour>
      <point x="105" y="506" type="curve" smooth="yes"/>
      <point x="105" y="558"/>
      <point x="122" y="590"/>
      <point x="159" y="590" type="curve" smooth="yes"/>
      <point x="194" y="590"/>
      <point x="210" y="559"/>
      <point x="210" y="506" type="curve" smooth="yes"/>
      <point x="210" y="468"/>
      <point x="192" y="427"/>
      <point x="158" y="425" type="curve" smooth="yes"/>
      <point x="120" y="423"/>
      <point x="105" y="480"/>
    </contour>
  </outline>
</glyph>
<glyph name="plusminus" format="2">
  <advance width="586"/>
  <unicode hex="00B1"/>
  <outline>
    <contour>
      <point x="273" y="197" type="line"/>
      <point x="310" y="197" type="line"/>
      <point x="310" y="288" type="line"/>
      <point x="327" y="305" type="line"/>
      <point x="483" y="305" type="line"/>
      <point x="483" y="340" type="line"/>
      <point x="327" y="340" type="line"/>
      <point x="310" y="356" type="line"/>
      <point x="310" y="446" type="line"/>
      <point x="273" y="446" type="line"/>
      <point x="273" y="356" type="line"/>
      <point x="258" y="340" type="line"/>
      <point x="104" y="340" type="line"/>
      <point x="104" y="305" type="line"/>
      <point x="258" y="305" type="line"/>
      <point x="273" y="288" type="line"/>
    </contour>
    <component base="minus" xOffset="30" yOffset="-140"/>
  </outline>
</glyph>
<glyph name="Ccedilla" format="2">
  <advance width="596"/>
  <unicode hex="00C7"/>
  <outline>
    <contour>
      <point x="260" y="-180" type="curve" smooth="yes"/>
      <point x="314" y="-180"/>
      <point x="341" y="-139"/>
      <point x="340" y="-100" type="curve" smooth="yes"/>
      <point x="339" y="-62"/>
      <point x="318" y="-30"/>
      <point x="257" y="-30" type="curve"/>
      <point x="257" y="-17" type="line"/>
      <point x="271" y="11" type="line"/>
      <point x="228" y="26" type="line"/>
      <point x="197" y="-38" type="line"/>
      <point x="197" y="-67" type="line"/>
      <point x="239" y="-65"/>
      <point x="309" y="-62"/>
      <point x="299" y="-120" type="curve" smooth="yes"/>
      <point x="295" y="-144"/>
      <point x="277" y="-154"/>
      <point x="258" y="-154" type="curve" smooth="yes"/>
      <point x="235" y="-154"/>
      <point x="213" y="-141"/>
      <point x="200" y="-117" type="curve"/>
      <point x="183" y="-134" type="line"/>
      <point x="193" y="-160"/>
      <point x="218" y="-180"/>
    </contour>
    <component base="C"/>
  </outline>
</glyph>
<glyph name="Oslash" format="2">
  <advance width="603"/>
  <unicode hex="00D8"/>
  <outline>
    <contour>
      <point x="40" y="-49" type="line"/>
      <point x="77" y="-49" type="line"/>
      <point x="536" y="640" type="line"/>
      <point x="498" y="640" type="line"/>
    </contour>
    <component base="O" xOffset="1"/>
  </outline>
</glyph>
<glyph name="germandbls" format="2">
  <advance width="558"/>
  <unicode hex="00DF"/>
  <outline>
    <contour>
      <point x="426" y="439"/>
      <point x="367" y="394"/>
      <point x="312" y="355" type="curve"/>
      <point x="312" y="340" type="line"/>
      <point x="413" y="277" type="line" smooth="yes"/>
      <point x="465" y="244"/>
      <point x="518" y="210"/>
      <point x="518" y="136" type="curve" smooth="yes"/>
      <point x="518" y="50"/>
      <point x="457" y="-10"/>
      <point x="382" y="-10" type="curve" smooth="yes"/>
      <point x="343" y="-10"/>
      <point x="319" y="4"/>
      <point x="278" y="38" type="curve"/>
      <point x="261" y="38" type="line"/>
      <point x="261" y="24" type="line"/>
      <point x="237" y="24" type="line"/>
      <point x="237" y="169" type="line"/>
      <point x="263" y="169" type="line"/>
      <point x="272" y="76"/>
      <point x="327" y="22"/>
      <point x="383" y="22" type="curve" smooth="yes"/>
      <point x="427" y="22"/>
      <point x="454" y="55"/>
      <point x="454" y="103" type="curve" smooth="yes"/>
      <point x="454" y="165"/>
      <point x="399" y="208"/>
      <point x="351" y="236" type="curve" smooth="yes"/>
      <point x="243" y="299" type="line"/>
      <point x="243" y="330" type="line"/>
      <point x="313" y="384"/>
      <point x="353" y="421"/>
      <point x="353" y="492" type="curve" smooth="yes"/>
      <point x="353" y="554"/>
      <point x="320" y="576"/>
      <point x="279" y="576" type="curve" smooth="yes"/>
      <point x="215" y="576"/>
      <point x="185" y="526"/>
      <point x="183" y="440" type="curve"/>
      <point x="182" y="393" type="line"/>
      <point x="182" y="0" type="line"/>
      <point x="41" y="0" type="line"/>
      <point x="40" y="28" type="line"/>
      <point x="90" y="28" type="line"/>
      <point x="109" y="50" type="line"/>
      <point x="109" y="393" type="line"/>
      <point x="92" y="407" type="line"/>
      <point x="47" y="407" type="line"/>
      <point x="47" y="440" type="line"/>
      <point x="113" y="440" type="line"/>
      <point x="130" y="538"/>
      <point x="191" y="604"/>
      <point x="290" y="604" type="curve" smooth="yes"/>
      <point x="349" y="604"/>
      <point x="426" y="570"/>
      <point x="426" y="501" type="curve" smooth="yes"/>
    </contour>
  </outline>
</glyph>
<glyph name="ccedilla" format="2">
  <advance width="407"/>
  <unicode hex="00E7"/>
  <outline>
    <contour>
      <point x="218" y="-179" type="curve" smooth="yes"/>
      <point x="272" y="-179"/>
      <point x="299" y="-138"/>
      <point x="298" y="-99" type="curve" smooth="yes"/>
      <point x="297" y="-61"/>
      <point x="276" y="-29"/>
      <point x="215" y="-29" type="curve"/>
      <point x="215" y="-16" type="line"/>
      <point x="229" y="12" type="line"/>
      <point x="186" y="27" type="line"/>
      <point x="155" y="-37" type="line"/>
      <point x="155" y="-58" type="line"/>
      <point x="197" y="-56"/>
      <point x="262" y="-60"/>
      <point x="267" y="-99" type="curve" smooth="yes"/>
      <point x="273" y="-143"/>
      <point x="235" y="-163"/>
      <point x="216" y="-163" type="curve" smooth="yes"/>
      <point x="193" y="-163"/>
      <point x="176" y="-148"/>
      <point x="163" y="-124" type="curve"/>
      <point x="141" y="-133" type="line"/>
      <point x="151" y="-159"/>
      <point x="176" y="-179"/>
    </contour>
    <component base="c"/>
  </outline>
</glyph>
<glyph name="igrave" format="2">
  <advance width="241"/>
  <unicode hex="00EC"/>
  <outline>
    <contour>
      <point x="22" y="0" type="line"/>
      <point x="231" y="0" type="line"/>
      <point x="231" y="28" type="line"/>
      <point x="183" y="28" type="line"/>
      <point x="164" y="50" type="line"/>
      <point x="164" y="440" type="line"/>
      <point x="10" y="384" type="line"/>
      <point x="10" y="361" type="line"/>
      <point x="69" y="361" type="line"/>
      <point x="91" y="342" type="line"/>
      <point x="91" y="50" type="line"/>
      <point x="72" y="28" type="line"/>
      <point x="22" y="28" type="line"/>
    </contour>
    <component base="acutecomb" xScale="-1" xOffset="217"/>
  </outline>
</glyph>
<glyph name="iacute" format="2">
  <advance width="242"/>
  <unicode hex="00ED"/>
  <outline>
    <contour>
      <point x="23" y="0" type="line"/>
      <point x="232" y="0" type="line"/>
      <point x="232" y="28" type="line"/>
      <point x="184" y="28" type="line"/>
      <point x="165" y="50" type="line"/>
      <point x="165" y="440" type="line"/>
      <point x="11" y="384" type="line"/>
      <point x="11" y="361" type="line"/>
      <point x="70" y="361" type="line"/>
      <point x="92" y="342" type="line"/>
      <point x="92" y="50" type="line"/>
      <point x="73" y="28" type="line"/>
      <point x="23" y="28" type="line"/>
    </contour>
    <component base="acutecomb" xOffset="-5"/>
  </outline>
</glyph>
<glyph name="idieresis" format="2">
  <advance width="277"/>
  <unicode hex="00EF"/>
  <outline>
    <contour>
      <point x="64" y="0" type="line"/>
      <point x="273" y="0" type="line"/>
      <point x="273" y="28" type="line"/>
      <point x="225" y="28" type="line"/>
      <point x="206" y="50" type="line"/>
      <point x="206" y="440" type="line"/>
      <point x="52" y="384" type="line"/>
      <point x="52" y="361" type="line"/>
      <point x="111" y="361" type="line"/>
      <point x="133" y="342" type="line"/>
      <point x="133" y="50" type="line"/>
      <point x="114" y="28" type="line"/>
      <point x="64" y="28" type="line"/>
    </contour>
    <component base="dieresiscomb" xOffset="-56"/>
  </outline>
</glyph>
<glyph name="oslash" format="2">
  <advance width="497"/>
  <unicode hex="00F8"/>
  <outline>
    <contour>
      <point x="30" y="-83" type="line"/>
      <point x="67" y="-83" type="line"/>
      <point x="467" y="519" type="line"/>
      <point x="429" y="519" type="line"/>
    </contour>
    <component base="o" xOffset="18"/>
  </outline>
</glyph>
<glyph name="OE" format="2">
  <advance width="842"/>
  <unicode hex="0152"/>
  <outline>
    <contour>
      <point x="305" y="-9" type="curve" smooth="yes"/>
      <point x="313" y="-9"/>
      <point x="322" y="-9"/>
      <point x="330" y="-8" type="curve"/>
      <point x="812" y="-8" type="line"/>
      <point x="812" y="97" type="line"/>
      <point x="784" y="97" type="line"/>
      <point x="784" y="49" type="line"/>
      <point x="762" y="30" type="line"/>
      <point x="498" y="30" type="line"/>
      <point x="479" y="52" type="line"/>
      <point x="479" y="59" type="line"/>
      <point x="531" y="113"/>
      <point x="560" y="195"/>
      <point x="562" y="299" type="curve"/>
      <point x="572" y="311" type="line"/>
      <point x="721" y="311" type="line"/>
      <point x="743" y="292" type="line"/>
      <point x="743" y="262" type="line"/>
      <point x="771" y="262" type="line"/>
      <point x="771" y="394" type="line"/>
      <point x="743" y="394" type="line"/>
      <point x="743" y="366" type="line"/>
      <point x="721" y="347" type="line"/>
      <point x="572" y="347" type="line"/>
      <point x="558" y="363" type="line"/>
      <point x="547" y="440"/>
      <point x="514" y="505"/>
      <point x="465" y="549" type="curve"/>
      <point x="465" y="550" type="line"/>
      <point x="484" y="572" type="line"/>
      <point x="720" y="572" type="line"/>
      <point x="742" y="553" type="line"/>
      <point x="742" y="507" type="line"/>
      <point x="770" y="507" type="line"/>
      <point x="770" y="610" type="line"/>
      <point x="305" y="610" type="line" smooth="yes"/>
      <point x="144" y="610"/>
      <point x="40" y="487"/>
      <point x="40" y="306" type="curve" smooth="yes"/>
      <point x="40" y="128"/>
      <point x="128" y="-9"/>
    </contour>
    <contour>
      <point x="140" y="297" type="curve" smooth="yes"/>
      <point x="140" y="481"/>
      <point x="198" y="588"/>
      <point x="305" y="588" type="curve" smooth="yes"/>
      <point x="406" y="588"/>
      <point x="464" y="482"/>
      <point x="464" y="297" type="curve" smooth="yes"/>
      <point x="464" y="149"/>
      <point x="401" y="19"/>
      <point x="304" y="15" type="curve" smooth="yes"/>
      <point x="197" y="11"/>
      <point x="140" y="156"/>
    </contour>
  </outline>
</glyph>
<glyph name="ring" format="2">
  <advance width="357"/>
  <unicode hex="02DA"/>
  <outline>
    <contour>
      <point x="179" y="428" type="curve" smooth="yes"/>
      <point x="225" y="428"/>
      <point x="257" y="462"/>
      <point x="257" y="505" type="curve" smooth="yes"/>
      <point x="257" y="547"/>
      <point x="225" y="582"/>
      <point x="179" y="582" type="curve" smooth="yes"/>
      <point x="131" y="582"/>
      <point x="100" y="547"/>
      <point x="100" y="505" type="curve" smooth="yes"/>
      <point x="100" y="462"/>
      <point x="131" y="428"/>
    </contour>
    <contour>
      <point x="128" y="505" type="curve" smooth="yes"/>
      <point x="128" y="537"/>
      <point x="149" y="560"/>
      <point x="180" y="560" type="curve" smooth="yes"/>
      <point x="210" y="560"/>
      <point x="230" y="537"/>
      <point x="230" y="505" type="curve" smooth="yes"/>
      <point x="230" y="471"/>
      <point x="210" y="448"/>
      <point x="180" y="448" type="curve" smooth="yes"/>
      <point x="149" y="448"/>
      <point x="128" y="471"/>
    </contour>
  </outline>
</glyph>
<glyph name="circumflexcomb" format="2">
  <advance width="492"/>
  <unicode hex="0302"/>
  <outline>
    <contour>
      <point x="100" y="501" type="line"/>
      <point x="118" y="501" type="line"/>
      <point x="238" y="571" type="line"/>
      <point x="262" y="571" type="line"/>
      <point x="374" y="501" type="line"/>
      <point x="392" y="501" type="line"/>
      <point x="262" y="639" type="line"/>
      <point x="238" y="639" type="line"/>
    </contour>
  </outline>
</glyph>
<glyph name="quoteright" format="2">
  <advance width="287"/>
  <unicode hex="2019"/>
  <outline>
    <contour>
      <point x="80" y="422" type="line"/>
      <point x="167" y="451"/>
      <point x="207" y="504"/>
      <point x="207" y="563" type="curve" smooth="yes"/>
      <point x="207" y="616"/>
      <point x="171" y="652"/>
      <point x="134" y="652" type="curve" smooth="yes"/>
      <point x="103" y="652"/>
      <point x="80" y="629"/>
      <point x="80" y="601" type="curve" smooth="yes"/>
      <point x="80" y="572"/>
      <point x="97" y="555"/>
      <point x="125" y="555" type="curve" smooth="yes"/>
      <point x="130" y="555"/>
      <point x="135" y="556"/>
      <point x="140" y="559" type="curve" smooth="yes"/>
      <point x="151" y="565"/>
      <point x="158" y="568"/>
      <point x="161" y="568" type="curve" smooth="yes"/>
      <point x="164" y="568"/>
      <point x="166" y="567"/>
      <point x="167" y="564" type="curve" smooth="yes"/>
      <point x="169" y="560"/>
      <point x="170" y="555"/>
      <point x="171" y="550" type="curve" smooth="yes"/>
      <point x="176" y="505"/>
      <point x="137" y="461"/>
      <point x="80" y="441" type="curve"/>
    </contour>
  </outline>
</glyph>
<glyph name="perthousand" format="2">
  <advance width="904"/>
  <unicode hex="2030"/>
  <outline>
    <contour>
      <point x="758" y="-10" type="curve" smooth="yes"/>
      <point x="811" y="-10"/>
      <point x="855" y="38"/>
      <point x="854" y="95" type="curve" smooth="yes"/>
      <point x="853" y="154"/>
      <point x="805" y="194"/>
      <point x="759" y="194" type="curve" smooth="yes"/>
      <point x="707" y="194"/>
      <point x="660" y="158"/>
      <point x="660" y="94" type="curve" smooth="yes"/>
      <point x="660" y="48"/>
      <point x="695" y="-10"/>
    </contour>
    <contour>
      <point x="130" y="509" type="curve" smooth="yes"/>
      <point x="130" y="463"/>
      <point x="165" y="405"/>
      <point x="228" y="405" type="curve" smooth="yes"/>
      <point x="281" y="405"/>
      <point x="325" y="453"/>
      <point x="324" y="510" type="curve" smooth="yes"/>
      <point x="323" y="569"/>
      <point x="275" y="609"/>
      <point x="229" y="609" type="curve" smooth="yes"/>
      <point x="177" y="609"/>
      <point x="130" y="573"/>
    </contour>
    <contour>
      <point x="175" y="506" type="curve" smooth="yes"/>
      <point x="175" y="558"/>
      <point x="192" y="590"/>
      <point x="229" y="590" type="curve" smooth="yes"/>
      <point x="264" y="590"/>
      <point x="280" y="559"/>
      <point x="280" y="506" type="curve" smooth="yes"/>
      <point x="280" y="468"/>
      <point x="262" y="427"/>
      <point x="228" y="425" type="curve" smooth="yes"/>
      <point x="190" y="423"/>
      <point x="175" y="480"/>
    </contour>
    <contour>
      <point x="430" y="94" type="curve" smooth="yes"/>
      <point x="430" y="48"/>
      <point x="465" y="-10"/>
      <point x="528" y="-10" type="curve" smooth="yes"/>
      <point x="581" y="-10"/>
      <point x="625" y="38"/>
      <point x="624" y="95" type="curve" smooth="yes"/>
      <point x="623" y="154"/>
      <point x="575" y="194"/>
      <point x="529" y="194" type="curve" smooth="yes"/>
      <point x="477" y="194"/>
      <point x="430" y="158"/>
    </contour>
    <contour>
      <point x="475" y="91" type="curve" smooth="yes"/>
      <point x="475" y="143"/>
      <point x="492" y="175"/>
      <point x="529" y="175" type="curve" smooth="yes"/>
      <point x="564" y="175"/>
      <point x="580" y="144"/>
      <point x="580" y="91" type="curve" smooth="yes"/>
      <point x="580" y="53"/>
      <point x="562" y="12"/>
      <point x="528" y="10" type="curve" smooth="yes"/>
      <point x="490" y="8"/>
      <point x="475" y="65"/>
    </contour>
    <contour>
      <point x="705" y="91" type="curve" smooth="yes"/>
      <point x="705" y="143"/>
      <point x="722" y="175"/>
      <point x="759" y="175" type="curve" smooth="yes"/>
      <point x="794" y="175"/>
      <point x="810" y="144"/>
      <point x="810" y="91" type="curve" smooth="yes"/>
      <point x="810" y="53"/>
      <point x="792" y="12"/>
      <point x="758" y="10" type="curve" smooth="yes"/>
      <point x="720" y="8"/>
      <point x="705" y="65"/>
    </contour>
    <component base="slash" xOffset="209"/>
  </outline>
</glyph>
<glyph name="euro" format="2">
  <advance width="566"/>
  <unicode hex="20AC"/>
  <outline>
    <contour>
      <point x="312" y="-10" type="curve" smooth="yes"/>
      <point x="417" y="-10"/>
      <point x="515" y="81"/>
      <point x="534" y="184" type="curve"/>
      <point x="498" y="184" type="line"/>
      <point x="463" y="80"/>
      <point x="369" y="33"/>
      <point x="312" y="33" type="curve" smooth="yes"/>
      <point x="217" y="33"/>
      <point x="135" y="132"/>
      <point x="131" y="302" type="curve" smooth="yes"/>
      <point x="133" y="470"/>
      <point x="218" y="567"/>
      <point x="312" y="567" type="curve" smooth="yes"/>
      <point x="369" y="567"/>
      <point x="464" y="519"/>
      <point x="498" y="413" type="curve"/>
      <point x="535" y="413" type="line"/>
      <point x="516" y="518"/>
      <point x="418" y="610"/>
      <point x="312" y="610" type="curve" smooth="yes"/>
      <point x="147" y="610"/>
      <point x="40" y="473"/>
      <point x="40" y="300" type="curve" smooth="yes"/>
      <point x="40" y="131"/>
      <point x="143" y="-10"/>
    </contour>
    <component base="equal" xOffset="-151" yOffset="61"/>
  </outline>
</glyph>
<glyph name="numero" format="2">
  <advance width="911"/>
  <unicode hex="2116"/>
  <outline>
    <contour>
      <point x="589" y="0" type="line"/>
      <point x="841" y="0" type="line"/>
      <point x="841" y="35" type="line"/>
      <point x="589" y="35" type="line"/>
    </contour>
    <component base="N"/>
    <component base="degree" xOffset="558" yOffset="-240"/>
  </outline>
</glyph>
<glyph name="minus" format="2">
  <advance width="526"/>
  <unicode hex="2212"/>
  <outline>
    <contour>
      <point x="70" y="247" type="line"/>
      <point x="456" y="247" type="line"/>
      <point x="456" y="282" type="line"/>
      <point x="70" y="282" type="line"/>
    </contour>
  </outline>
</glyph>
<glyph name="infinity" format="2">
  <advance width="790"/>
  <unicode hex="221E"/>
  <outline>
    <contour>
      <point x="245" y="99" type="curve" smooth="yes"/>
      <point x="314" y="99"/>
      <point x="365" y="145"/>
      <point x="398" y="198" type="curve"/>
      <point x="427" y="152"/>
      <point x="467" y="117"/>
      <point x="524" y="108" type="curve" smooth="yes"/>
      <point x="589" y="98"/>
      <point x="690" y="134"/>
      <point x="690" y="261" type="curve" smooth="yes"/>
      <point x="690" y="332"/>
      <point x="657" y="431"/>
      <point x="542" y="431" type="curve" smooth="yes"/>
      <point x="466" y="431"/>
      <point x="427" y="399"/>
      <point x="376" y="333" type="curve"/>
      <point x="363" y="361"/>
      <point x="314" y="414"/>
      <point x="262" y="422" type="curve" smooth="yes"/>
      <point x="165" y="437"/>
      <point x="102" y="380"/>
      <point x="100" y="271" type="curve" smooth="yes"/>
      <point x="98" y="174"/>
      <point x="169" y="99"/>
    </contour>
    <contour>
      <point x="129" y="270" type="curve" smooth="yes"/>
      <point x="129" y="328"/>
      <point x="168" y="384"/>
      <point x="243" y="374" type="curve" smooth="yes"/>
      <point x="286" y="368"/>
      <point x="335" y="332"/>
      <point x="353" y="289" type="curve"/>
      <point x="332" y="247"/>
      <point x="286" y="188"/>
      <point x="240" y="178" type="curve" smooth="yes"/>
      <point x="174" y="164"/>
      <point x="129" y="192"/>
    </contour>
    <contour>
      <point x="421" y="248" type="curve"/>
      <point x="461" y="311"/>
      <point x="492" y="341"/>
      <point x="558" y="356" type="curve" smooth="yes"/>
      <point x="589" y="363"/>
      <point x="659" y="347"/>
      <point x="659" y="273" type="curve" smooth="yes"/>
      <point x="659" y="205"/>
      <point x="607" y="144"/>
      <point x="536" y="160" type="curve" smooth="yes"/>
      <point x="486" y="171"/>
      <point x="444" y="206"/>
    </contour>
  </outline>
</glyph>
<glyph name="whiteCircle" format="2">
  <advance width="851"/>
  <unicode hex="25CB"/>
  <outline>
    <contour>
      <point x="425" y="-123" type="curve" smooth="yes"/>
      <point x="643" y="-123"/>
      <point x="801" y="32"/>
      <point x="801" y="253" type="curve" smooth="yes"/>
      <point x="801" y="470"/>
      <point x="643" y="628"/>
      <point x="425" y="628" type="curve" smooth="yes"/>
      <point x="207" y="628"/>
      <point x="50" y="470"/>
      <point x="50" y="253" type="curve" smooth="yes"/>
      <point x="50" y="32"/>
      <point x="207" y="-123"/>
    </contour>
    <contour>
      <point x="93" y="253" type="curve" smooth="yes"/>
      <point x="93" y="452"/>
      <point x="228" y="592"/>
      <point x="425" y="592" type="curve" smooth="yes"/>
      <point x="618" y="592"/>
      <point x="760" y="452"/>
      <point x="760" y="253" type="curve" smooth="yes"/>
      <point x="760" y="55"/>
      <point x="622" y="-87"/>
      <point x="425" y="-87" type="curve" smooth="yes"/>
      <point x="228" y="-87"/>
      <point x="93" y="55"/>
    </contour>
  </outline>
</glyph>
<glyph name="A_E" format="2">
  <advance width="752"/>
  <unicode hex="F1010"/>
  <outline>
    <contour>
      <point x="301" y="0" type="line"/>
      <point x="722" y="0" type="line"/>
      <point x="722" y="105" type="line"/>
      <point x="694" y="105" type="line"/>
      <point x="694" y="57" type="line"/>
      <point x="672" y="38" type="line"/>
      <point x="472" y="38" type="line"/>
      <point x="453" y="60" type="line"/>
      <point x="453" y="289" type="line"/>
      <point x="472" y="311" type="line"/>
      <point x="621" y="311" type="line"/>
      <point x="643" y="292" type="line"/>
      <point x="643" y="262" type="line"/>
      <point x="671" y="262" type="line"/>
      <point x="671" y="394" type="line"/>
      <point x="643" y="394" type="line"/>
      <point x="643" y="366" type="line"/>
      <point x="621" y="347" type="line"/>
      <point x="472" y="347" type="line"/>
      <point x="453" y="369" type="line"/>
      <point x="453" y="540" type="line"/>
      <point x="472" y="562" type="line"/>
      <point x="620" y="562" type="line"/>
      <point x="642" y="543" type="line"/>
      <point x="642" y="497" type="line"/>
      <point x="670" y="497" type="line"/>
      <point x="670" y="600" type="line"/>
      <point x="201" y="600" type="line"/>
      <point x="201" y="572" type="line"/>
      <point x="251" y="572" type="line"/>
      <point x="69" y="50" type="line"/>
      <point x="68" y="50" type="line"/>
      <point x="60" y="28" type="line"/>
      <point x="10" y="28" type="line"/>
      <point x="10" y="0" type="line"/>
      <point x="183" y="0" type="line"/>
      <point x="183" y="28" type="line"/>
      <point x="135" y="28" type="line"/>
      <point x="116" y="50" type="line"/>
      <point x="116" y="51" type="line"/>
      <point x="182" y="243" type="line"/>
      <point x="197" y="255" type="line"/>
      <point x="340" y="255" type="line"/>
      <point x="370" y="215" type="line"/>
      <point x="370" y="50" type="line"/>
      <point x="351" y="28" type="line"/>
      <point x="301" y="28" type="line"/>
    </contour>
    <contour>
      <point x="200" y="293" type="line"/>
      <point x="282" y="532" type="line"/>
      <point x="294" y="572" type="line"/>
      <point x="351" y="572" type="line"/>
      <point x="370" y="550" type="line"/>
      <point x="370" y="319" type="line"/>
      <point x="340" y="279" type="line"/>
      <point x="207" y="279" type="line"/>
    </contour>
  </outline>
</glyph>
<glyph name="A_O" format="2">
  <advance width="948"/>
  <unicode hex="F1030"/>
  <outline>
    <contour>
      <point x="10" y="0" type="line"/>
      <point x="183" y="0" type="line"/>
      <point x="183" y="28" type="line"/>
      <point x="135" y="28" type="line"/>
      <point x="116" y="50" type="line"/>
      <point x="116" y="51" type="line"/>
      <point x="182" y="243" type="line"/>
      <point x="197" y="255" type="line"/>
      <point x="364" y="255" type="line"/>
      <point x="381" y="242" type="line"/>
      <point x="465" y="0" type="line"/>
      <point x="559" y="0" type="line"/>
      <point x="585" y="-4"/>
      <point x="616" y="-9"/>
      <point x="651" y="-9" type="curve" smooth="yes"/>
      <point x="813" y="-9"/>
      <point x="908" y="113"/>
      <point x="908" y="308" type="curve" smooth="yes"/>
      <point x="908" y="482"/>
      <point x="799" y="610"/>
      <point x="651" y="610" type="curve" smooth="yes"/>
      <point x="531" y="610"/>
      <point x="443" y="541"/>
      <point x="406" y="433" type="curve"/>
      <point x="347" y="600" type="line"/>
      <point x="201" y="600" type="line"/>
      <point x="201" y="572" type="line"/>
      <point x="251" y="572" type="line"/>
      <point x="69" y="50" type="line"/>
      <point x="68" y="50" type="line"/>
      <point x="60" y="28" type="line"/>
      <point x="10" y="28" type="line"/>
    </contour>
    <contour>
      <point x="200" y="293" type="line"/>
      <point x="282" y="532" type="line"/>
      <point x="364" y="293" type="line"/>
      <point x="357" y="279" type="line"/>
      <point x="207" y="279" type="line"/>
    </contour>
    <contour>
      <point x="486" y="297" type="curve" smooth="yes"/>
      <point x="486" y="481"/>
      <point x="544" y="588"/>
      <point x="651" y="588" type="curve" smooth="yes"/>
      <point x="752" y="588"/>
      <point x="810" y="482"/>
      <point x="810" y="297" type="curve" smooth="yes"/>
      <point x="810" y="149"/>
      <point x="747" y="19"/>
      <point x="650" y="15" type="curve" smooth="yes"/>
      <point x="543" y="11"/>
      <point x="486" y="156"/>
    </contour>
  </outline>
</glyph>
<glyph name="a_e" format="2">
  <advance width="721"/>
  <unicode hex="F1130"/>
  <outline>
    <contour>
      <point x="182" y="-10" type="curve" smooth="yes"/>
      <point x="199" y="-10"/>
      <point x="216" y="-7"/>
      <point x="231" y="-1" type="curve" smooth="yes"/>
      <point x="291" y="21"/>
      <point x="339" y="81"/>
      <point x="348" y="145" type="curve"/>
      <point x="325" y="153" type="line"/>
      <point x="305" y="102"/>
      <point x="266" y="64"/>
      <point x="230" y="45" type="curve" smooth="yes"/>
      <point x="213" y="36"/>
      <point x="196" y="31"/>
      <point x="182" y="31" type="curve" smooth="yes"/>
      <point x="130" y="31"/>
      <point x="109" y="59"/>
      <point x="109" y="107" type="curve" smooth="yes"/>
      <point x="109" y="203"/>
      <point x="208" y="261"/>
      <point x="301" y="260" type="curve" smooth="yes"/>
      <point x="383" y="260" type="line"/>
      <point x="357" y="387"/>
      <point x="304" y="450"/>
      <point x="195" y="450" type="curve" smooth="yes"/>
      <point x="188" y="450" type="line" smooth="yes"/>
      <point x="138" y="450"/>
      <point x="68" y="426"/>
      <point x="51" y="386" type="curve" smooth="yes"/>
      <point x="37" y="353"/>
      <point x="49" y="319"/>
      <point x="75" y="308" type="curve" smooth="yes"/>
      <point x="96" y="299"/>
      <point x="119" y="310"/>
      <point x="130" y="330" type="curve" smooth="yes"/>
      <point x="135" y="339"/>
      <point x="138" y="351"/>
      <point x="132" y="370" type="curve"/>
      <point x="128" y="406"/>
      <point x="150" y="425"/>
      <point x="188" y="425" type="curve" smooth="yes"/>
      <point x="196" y="425" type="line" smooth="yes"/>
      <point x="268" y="425"/>
      <point x="283" y="368"/>
      <point x="300" y="283" type="curve"/>
      <point x="174" y="274"/>
      <point x="30" y="232"/>
      <point x="30" y="127" type="curve" smooth="yes"/>
      <point x="30" y="32"/>
      <point x="87" y="-10"/>
    </contour>
    <component base="inclusive_e.001" xOffset="270"/>
  </outline>
</glyph>
<glyph name="a_o_n" format="2">
  <advance width="1008"/>
  <unicode hex="F1140"/>
  <outline>
    <contour>
      <point x="182" y="-10" type="curve" smooth="yes"/>
      <point x="184" y="-10" type="line"/>
      <point x="184" y="31" type="line"/>
      <point x="182" y="31" type="line" smooth="yes"/>
      <point x="153" y="31"/>
      <point x="134" y="40"/>
      <point x="122" y="55" type="curve" smooth="yes"/>
      <point x="113" y="68"/>
      <point x="109" y="86"/>
      <point x="109" y="107" type="curve" smooth="yes"/>
      <point x="109" y="203"/>
      <point x="208" y="261"/>
      <point x="301" y="260" type="curve" smooth="yes"/>
      <point x="302" y="260" type="line"/>
      <point x="302" y="259" type="line"/>
      <point x="386" y="259" type="line"/>
      <point x="393" y="368"/>
      <point x="432" y="425"/>
      <point x="503" y="425" type="curve" smooth="yes"/>
      <point x="504" y="425" type="line" smooth="yes"/>
      <point x="578" y="425"/>
      <point x="618" y="355"/>
      <point x="618" y="217" type="curve" smooth="yes"/>
      <point x="618" y="118"/>
      <point x="596" y="55"/>
      <point x="545" y="29" type="curve"/>
      <point x="565" y="-1" type="line"/>
      <point x="661" y="24"/>
      <point x="702" y="105"/>
      <point x="702" y="225" type="curve" smooth="yes"/>
      <point x="702" y="267"/>
      <point x="694" y="304"/>
      <point x="679" y="336" type="curve"/>
      <point x="703" y="389"/>
      <point x="728" y="408"/>
      <point x="767" y="411" type="curve" smooth="yes"/>
      <point x="822" y="415"/>
      <point x="858" y="377"/>
      <point x="858" y="284" type="curve" smooth="yes"/>
      <point x="858" y="50" type="line"/>
      <point x="839" y="28" type="line"/>
      <point x="789" y="28" type="line"/>
      <point x="789" y="0" type="line"/>
      <point x="998" y="0" type="line"/>
      <point x="998" y="28" type="line"/>
      <point x="950" y="28" type="line"/>
      <point x="931" y="50" type="line"/>
      <point x="931" y="334" type="line" smooth="yes"/>
      <point x="931" y="404"/>
      <point x="873" y="450"/>
      <point x="793" y="450" type="curve" smooth="yes"/>
      <point x="736" y="450"/>
      <point x="700" y="423"/>
      <point x="670" y="363" type="curve" smooth="yes"/>
      <point x="669" y="361"/>
      <point x="669" y="360"/>
      <point x="668" y="359" type="curve"/>
      <point x="668" y="358" type="line"/>
      <point x="633" y="415"/>
      <point x="575" y="450"/>
      <point x="506" y="450" type="curve" smooth="yes"/>
      <point x="504" y="450" type="line" smooth="yes"/>
      <point x="436" y="450"/>
      <point x="380" y="421"/>
      <point x="344" y="371" type="curve"/>
      <point x="312" y="424"/>
      <point x="265" y="450"/>
      <point x="195" y="450" type="curve" smooth="yes"/>
      <point x="188" y="450" type="line" smooth="yes"/>
      <point x="138" y="450"/>
      <point x="68" y="426"/>
      <point x="51" y="386" type="curve" smooth="yes"/>
      <point x="37" y="353"/>
      <point x="49" y="319"/>
      <point x="75" y="308" type="curve" smooth="yes"/>
      <point x="96" y="299"/>
      <point x="119" y="310"/>
      <point x="130" y="330" type="curve" smooth="yes"/>
      <point x="135" y="339"/>
      <point x="138" y="351"/>
      <point x="132" y="370" type="curve"/>
      <point x="128" y="406"/>
      <point x="150" y="425"/>
      <point x="188" y="425" type="curve" smooth="yes"/>
      <point x="196" y="425" type="line" smooth="yes"/>
      <point x="268" y="425"/>
      <point x="283" y="368"/>
      <point x="300" y="283" type="curve"/>
      <point x="174" y="274"/>
      <point x="30" y="232"/>
      <point x="30" y="127" type="curve" smooth="yes"/>
      <point x="30" y="69"/>
      <point x="51" y="31"/>
      <point x="89" y="10" type="curve" smooth="yes"/>
      <point x="113" y="-4"/>
      <point x="145" y="-10"/>
    </contour>
    <component base="o" xOffset="270"/>
  </outline>
</glyph>
<glyph name="C_H" format="2">
  <advance width="968"/>
  <unicode hex="F1410"/>
  <outline>
    <contour>
      <point x="493" y="335" type="curve"/>
      <point x="527" y="335" type="line"/>
      <point x="546" y="357" type="line"/>
      <point x="778" y="357" type="line"/>
      <point x="797" y="335" type="line"/>
      <point x="797" y="50" type="line"/>
      <point x="778" y="28" type="line"/>
      <point x="730" y="28" type="line"/>
      <point x="730" y="0" type="line"/>
      <point x="948" y="0" type="line"/>
      <point x="948" y="28" type="line"/>
      <point x="898" y="28" type="line"/>
      <point x="879" y="50" type="line"/>
      <point x="879" y="600" type="line"/>
      <point x="730" y="600" type="line"/>
      <point x="730" y="572" type="line"/>
      <point x="778" y="572" type="line"/>
      <point x="797" y="550" type="line"/>
      <point x="797" y="413" type="line"/>
      <point x="778" y="391" type="line"/>
      <point x="546" y="391" type="line"/>
      <point x="527" y="413" type="line"/>
      <point x="527" y="550" type="line"/>
      <point x="546" y="572" type="line"/>
      <point x="594" y="572" type="line"/>
      <point x="594" y="600" type="line"/>
      <point x="373" y="600" type="line"/>
      <point x="482" y="533"/>
      <point x="493" y="423"/>
    </contour>
    <component base="C"/>
  </outline>
</glyph>
<glyph name="c_h_e" format="2">
  <advance width="970"/>
  <unicode hex="F1520"/>
  <outline>
    <contour>
      <point x="231" y="-10" type="curve" smooth="yes"/>
      <point x="246" y="-10"/>
      <point x="260" y="-8"/>
      <point x="274" y="-3" type="curve" smooth="yes"/>
      <point x="337" y="16"/>
      <point x="388" y="77"/>
      <point x="397" y="143" type="curve"/>
      <point x="374" y="151" type="line"/>
      <point x="354" y="100"/>
      <point x="315" y="61"/>
      <point x="278" y="42" type="curve" smooth="yes"/>
      <point x="261" y="34"/>
      <point x="245" y="29"/>
      <point x="231" y="29" type="curve" smooth="yes"/>
      <point x="165" y="29"/>
      <point x="115" y="101"/>
      <point x="118" y="235" type="curve" smooth="yes"/>
      <point x="118" y="243"/>
      <point x="118" y="251"/>
      <point x="119" y="260" type="curve" smooth="yes"/>
      <point x="127" y="349"/>
      <point x="155" y="425"/>
      <point x="223" y="425" type="curve" smooth="yes"/>
      <point x="231" y="425" type="line" smooth="yes"/>
      <point x="259" y="425"/>
      <point x="278" y="415"/>
      <point x="285" y="395" type="curve"/>
      <point x="285" y="254" type="line"/>
      <point x="358" y="254" type="line"/>
      <point x="358" y="306" type="line"/>
      <point x="384" y="365"/>
      <point x="399" y="407"/>
      <point x="457" y="411" type="curve"/>
      <point x="549" y="411"/>
      <point x="547" y="329"/>
      <point x="547" y="224" type="curve" smooth="yes"/>
      <point x="547" y="92"/>
      <point x="622" y="-10"/>
      <point x="746" y="-10" type="curve"/>
      <point x="746" y="-10"/>
      <point x="747" y="-10"/>
      <point x="746.875" y="-9.997" type="curve" smooth="yes"/>
      <point x="748" y="-10" type="line" smooth="yes"/>
      <point x="829" y="-10"/>
      <point x="903" y="62"/>
      <point x="914" y="143" type="curve"/>
      <point x="891" y="151" type="line"/>
      <point x="891" y="150" type="line"/>
      <point x="860" y="77"/>
      <point x="792" y="30"/>
      <point x="747" y="29" type="curve" smooth="yes"/>
      <point x="677" y="30"/>
      <point x="626" y="111"/>
      <point x="636" y="260" type="curve"/>
      <point x="960" y="260" type="line"/>
      <point x="960" y="290" type="line"/>
      <point x="926" y="290" type="line"/>
      <point x="913" y="370"/>
      <point x="853" y="450"/>
      <point x="748" y="450" type="curve" smooth="yes"/>
      <point x="691" y="450"/>
      <point x="642" y="428"/>
      <point x="606" y="389" type="curve"/>
      <point x="584" y="428"/>
      <point x="539" y="450"/>
      <point x="483" y="450" type="curve" smooth="yes"/>
      <point x="421" y="450"/>
      <point x="384" y="416"/>
      <point x="358" y="356" type="curve"/>
      <point x="358" y="640" type="line"/>
      <point x="204" y="584" type="line"/>
      <point x="204" y="561" type="line"/>
      <point x="263" y="561" type="line"/>
      <point x="285" y="542" type="line"/>
      <point x="285" y="442" type="line"/>
      <point x="267" y="447"/>
      <point x="248" y="450"/>
      <point x="231" y="450" type="curve" smooth="yes"/>
      <point x="224" y="450" type="line" smooth="yes"/>
      <point x="112" y="450"/>
      <point x="30" y="355"/>
      <point x="30" y="235" type="curve" smooth="yes"/>
      <point x="30" y="224" type="line" smooth="yes"/>
      <point x="30" y="92"/>
      <point x="107" y="-10"/>
    </contour>
    <contour>
      <point x="636" y="291" type="line"/>
      <point x="647" y="364"/>
      <point x="685" y="423"/>
      <point x="748" y="423" type="curve" smooth="yes"/>
      <point x="823" y="423"/>
      <point x="843" y="348"/>
      <point x="842" y="291" type="curve"/>
    </contour>
  </outline>
</glyph>
<glyph name="c_h_e_s" format="2">
  <advance width="1296"/>
  <unicode hex="F1530"/>
  <outline>
    <contour>
      <point x="231" y="-10" type="curve" smooth="yes"/>
      <point x="246" y="-10"/>
      <point x="260" y="-8"/>
      <point x="274" y="-3" type="curve" smooth="yes"/>
      <point x="337" y="16"/>
      <point x="388" y="77"/>
      <point x="397" y="143" type="curve"/>
      <point x="374" y="151" type="line"/>
      <point x="354" y="100"/>
      <point x="315" y="61"/>
      <point x="278" y="42" type="curve" smooth="yes"/>
      <point x="261" y="34"/>
      <point x="245" y="29"/>
      <point x="231" y="29" type="curve" smooth="yes"/>
      <point x="165" y="29"/>
      <point x="115" y="101"/>
      <point x="118" y="235" type="curve" smooth="yes"/>
      <point x="118" y="243"/>
      <point x="118" y="251"/>
      <point x="119" y="260" type="curve" smooth="yes"/>
      <point x="127" y="349"/>
      <point x="155" y="425"/>
      <point x="223" y="425" type="curve" smooth="yes"/>
      <point x="231" y="425" type="line" smooth="yes"/>
      <point x="259" y="425"/>
      <point x="278" y="415"/>
      <point x="285" y="395" type="curve"/>
      <point x="285" y="254" type="line"/>
      <point x="358" y="254" type="line"/>
      <point x="358" y="306" type="line"/>
      <point x="384" y="365"/>
      <point x="399" y="407"/>
      <point x="457" y="411" type="curve"/>
      <point x="549" y="411"/>
      <point x="547" y="329"/>
      <point x="547" y="224" type="curve" smooth="yes"/>
      <point x="547" y="92"/>
      <point x="622" y="-10"/>
      <point x="746" y="-10" type="curve"/>
      <point x="746" y="-10"/>
      <point x="747" y="-10"/>
      <point x="746.875" y="-9.997" type="curve" smooth="yes"/>
      <point x="748" y="-10" type="line" smooth="yes"/>
      <point x="829" y="-10"/>
      <point x="903" y="62"/>
      <point x="914" y="143" type="curve"/>
      <point x="891" y="151" type="line"/>
      <point x="891" y="150" type="line"/>
      <point x="889" y="151" type="line"/>
      <point x="860" y="77"/>
      <point x="792" y="30"/>
      <point x="747" y="29" type="curve" smooth="yes"/>
      <point x="677" y="30"/>
      <point x="626" y="111"/>
      <point x="636" y="260" type="curve"/>
      <point x="960" y="260" type="line"/>
      <point x="960" y="261" type="line"/>
      <point x="985" y="261" type="line"/>
      <point x="1006" y="227"/>
      <point x="1044" y="205"/>
      <point x="1094" y="184" type="curve" smooth="yes"/>
      <point x="1152" y="160"/>
      <point x="1194" y="150"/>
      <point x="1201" y="110" type="curve" smooth="yes"/>
      <point x="1209" y="63"/>
      <point x="1162" y="22"/>
      <point x="1118" y="22" type="curve" smooth="yes"/>
      <point x="1065" y="22"/>
      <point x="1009" y="79"/>
      <point x="1001" y="169" type="curve"/>
      <point x="975" y="169" type="line"/>
      <point x="975" y="24" type="line"/>
      <point x="999" y="24" type="line"/>
      <point x="999" y="38" type="line"/>
      <point x="1016" y="38" type="line"/>
      <point x="1057" y="4"/>
      <point x="1071" y="-10"/>
      <point x="1123" y="-10" type="curve" smooth="yes"/>
      <point x="1191" y="-10"/>
      <point x="1266" y="25"/>
      <point x="1266" y="124" type="curve" smooth="yes"/>
      <point x="1266" y="196"/>
      <point x="1184" y="233"/>
      <point x="1101" y="263" type="curve" smooth="yes"/>
      <point x="1094" y="265"/>
      <point x="1088" y="268"/>
      <point x="1081" y="271" type="curve"/>
      <point x="1192" y="276"/>
      <point x="1258" y="303"/>
      <point x="1233" y="386" type="curve" smooth="yes"/>
      <point x="1219" y="432"/>
      <point x="1163" y="450"/>
      <point x="1104" y="450" type="curve" smooth="yes"/>
      <point x="1030" y="450"/>
      <point x="968" y="402"/>
      <point x="968" y="327" type="curve" smooth="yes"/>
      <point x="968" y="313"/>
      <point x="970" y="301"/>
      <point x="973" y="290" type="curve"/>
      <point x="926" y="290" type="line"/>
      <point x="913" y="370"/>
      <point x="853" y="450"/>
      <point x="748" y="450" type="curve" smooth="yes"/>
      <point x="691" y="450"/>
      <point x="642" y="428"/>
      <point x="606" y="389" type="curve"/>
      <point x="584" y="428"/>
      <point x="539" y="450"/>
      <point x="483" y="450" type="curve" smooth="yes"/>
      <point x="421" y="450"/>
      <point x="384" y="416"/>
      <point x="358" y="356" type="curve"/>
      <point x="358" y="600" type="line"/>
      <point x="204" y="544" type="line"/>
      <point x="204" y="521" type="line"/>
      <point x="263" y="521" type="line"/>
      <point x="285" y="502" type="line"/>
      <point x="285" y="442" type="line"/>
      <point x="267" y="447"/>
      <point x="248" y="450"/>
      <point x="231" y="450" type="curve" smooth="yes"/>
      <point x="224" y="450" type="line" smooth="yes"/>
      <point x="112" y="450"/>
      <point x="30" y="355"/>
      <point x="30" y="235" type="curve" smooth="yes"/>
      <point x="30" y="224" type="line" smooth="yes"/>
      <point x="30" y="92"/>
      <point x="107" y="-10"/>
    </contour>
    <contour>
      <point x="636" y="291" type="line"/>
      <point x="647" y="364"/>
      <point x="685" y="423"/>
      <point x="748" y="423" type="curve" smooth="yes"/>
      <point x="823" y="423"/>
      <point x="843" y="348"/>
      <point x="842" y="291" type="curve"/>
    </contour>
    <contour>
      <point x="1026" y="335" type="curve" smooth="yes"/>
      <point x="1015" y="383"/>
      <point x="1059" y="426"/>
      <point x="1107" y="426" type="curve" smooth="yes"/>
      <point x="1147" y="424"/>
      <point x="1169" y="403"/>
      <point x="1172" y="370" type="curve" smooth="yes"/>
      <point x="1176" y="331"/>
      <point x="1157" y="298"/>
      <point x="1050" y="292" type="curve"/>
      <point x="1039" y="302"/>
      <point x="1030" y="316"/>
    </contour>
  </outline>
</glyph>
<glyph name="c_q_u_e" format="2">
  <advance width="1007"/>
  <unicode hex="F1560"/>
  <outline>
    <contour>
      <point x="258" y="-180" type="line"/>
      <point x="470" y="-180" type="line"/>
      <point x="470" y="-152" type="line"/>
      <point x="422" y="-152" type="line"/>
      <point x="403" y="-130" type="line"/>
      <point x="403" y="31" type="line"/>
      <point x="428" y="6"/>
      <point x="466" y="-9"/>
      <point x="511" y="-9" type="curve" smooth="yes"/>
      <point x="526" y="-9"/>
      <point x="541" y="-7"/>
      <point x="555" y="-3" type="curve" smooth="yes"/>
      <point x="607" y="13"/>
      <point x="634" y="38"/>
      <point x="661" y="117" type="curve"/>
      <point x="687" y="41"/>
      <point x="743" y="-10"/>
      <point x="831" y="-10" type="curve" smooth="yes"/>
      <point x="922" y="-10"/>
      <point x="986" y="62"/>
      <point x="997" y="143" type="curve"/>
      <point x="974" y="151" type="line"/>
      <point x="945" y="77"/>
      <point x="886" y="29"/>
      <point x="831" y="29" type="curve" smooth="yes"/>
      <point x="761" y="29"/>
      <point x="709" y="110"/>
      <point x="719" y="260" type="curve"/>
      <point x="983" y="260" type="line"/>
      <point x="983" y="290" type="line"/>
      <point x="717" y="290" type="line"/>
      <point x="717" y="440" type="line"/>
      <point x="563" y="379" type="line"/>
      <point x="563" y="361" type="line"/>
      <point x="622" y="361" type="line"/>
      <point x="644" y="342" type="line"/>
      <point x="644" y="132" type="line"/>
      <point x="620" y="69"/>
      <point x="588" y="39"/>
      <point x="555" y="32" type="curve" smooth="yes"/>
      <point x="549" y="31"/>
      <point x="543" y="30"/>
      <point x="537" y="30" type="curve" smooth="yes"/>
      <point x="482" y="30"/>
      <point x="446" y="65"/>
      <point x="446" y="158" type="curve" smooth="yes"/>
      <point x="446" y="217" type="line"/>
      <point x="373" y="217" type="line"/>
      <point x="373" y="148" type="line"/>
      <point x="353" y="99"/>
      <point x="314" y="61"/>
      <point x="278" y="42" type="curve" smooth="yes"/>
      <point x="261" y="34"/>
      <point x="245" y="29"/>
      <point x="231" y="29" type="curve" smooth="yes"/>
      <point x="165" y="29"/>
      <point x="115" y="101"/>
      <point x="118" y="235" type="curve" smooth="yes"/>
      <point x="118" y="243"/>
      <point x="118" y="251"/>
      <point x="119" y="260" type="curve" smooth="yes"/>
      <point x="127" y="349"/>
      <point x="155" y="419"/>
      <point x="223" y="425" type="curve" smooth="yes"/>
      <point x="231" y="425" type="line" smooth="yes"/>
      <point x="269" y="425"/>
      <point x="291" y="406"/>
      <point x="287" y="370" type="curve"/>
      <point x="281" y="351"/>
      <point x="284" y="339"/>
      <point x="289" y="330" type="curve" smooth="yes"/>
      <point x="300" y="310"/>
      <point x="323" y="299"/>
      <point x="344" y="308" type="curve" smooth="yes"/>
      <point x="370" y="319"/>
      <point x="382" y="353"/>
      <point x="368" y="386" type="curve" smooth="yes"/>
      <point x="351" y="426"/>
      <point x="281" y="450"/>
      <point x="231" y="450" type="curve" smooth="yes"/>
      <point x="224" y="450" type="line" smooth="yes"/>
      <point x="112" y="446"/>
      <point x="35" y="355"/>
      <point x="30" y="235" type="curve" smooth="yes"/>
      <point x="30" y="224" type="line" smooth="yes"/>
      <point x="30" y="92"/>
      <point x="107" y="-10"/>
      <point x="231" y="-10" type="curve" smooth="yes"/>
      <point x="246" y="-10"/>
      <point x="260" y="-8"/>
      <point x="274" y="-3" type="curve" smooth="yes"/>
      <point x="293" y="3"/>
      <point x="311" y="12"/>
      <point x="327" y="25" type="curve"/>
      <point x="327" y="-130" type="line"/>
      <point x="308" y="-152" type="line"/>
      <point x="258" y="-152" type="line"/>
    </contour>
  </outline>
</glyph>
<glyph name="c_q_u_e_s" format="2">
  <advance width="1393"/>
  <unicode hex="F1570"/>
  <outline>
    <contour>
      <point x="1220" y="-10" type="curve" smooth="yes"/>
      <point x="1288" y="-10"/>
      <point x="1363" y="25"/>
      <point x="1363" y="124" type="curve" smooth="yes"/>
      <point x="1363" y="196"/>
      <point x="1283" y="239"/>
      <point x="1198" y="263" type="curve" smooth="yes"/>
      <point x="1191" y="265"/>
      <point x="1185" y="268"/>
      <point x="1178" y="271" type="curve"/>
      <point x="1289" y="276"/>
      <point x="1355" y="303"/>
      <point x="1330" y="386" type="curve" smooth="yes"/>
      <point x="1316" y="432"/>
      <point x="1260" y="450"/>
      <point x="1201" y="450" type="curve" smooth="yes"/>
      <point x="1127" y="450"/>
      <point x="1065" y="402"/>
      <point x="1065" y="327" type="curve" smooth="yes"/>
      <point x="1065" y="313"/>
      <point x="1067" y="301"/>
      <point x="1070" y="290" type="curve"/>
      <point x="847" y="290" type="line"/>
      <point x="847" y="261" type="line"/>
      <point x="1082" y="261" type="line"/>
      <point x="1103" y="227"/>
      <point x="1141" y="205"/>
      <point x="1191" y="184" type="curve" smooth="yes"/>
      <point x="1249" y="160"/>
      <point x="1291" y="150"/>
      <point x="1298" y="110" type="curve" smooth="yes"/>
      <point x="1306" y="63"/>
      <point x="1259" y="22"/>
      <point x="1215" y="22" type="curve" smooth="yes"/>
      <point x="1162" y="22"/>
      <point x="1106" y="79"/>
      <point x="1098" y="169" type="curve"/>
      <point x="1072" y="169" type="line"/>
      <point x="1072" y="24" type="line"/>
      <point x="1096" y="24" type="line"/>
      <point x="1096" y="38" type="line"/>
      <point x="1113" y="38" type="line"/>
      <point x="1154" y="4"/>
      <point x="1168" y="-10"/>
    </contour>
    <contour>
      <point x="1123" y="335" type="curve" smooth="yes"/>
      <point x="1113" y="383"/>
      <point x="1156" y="426"/>
      <point x="1204" y="426" type="curve" smooth="yes"/>
      <point x="1244" y="426"/>
      <point x="1266" y="403"/>
      <point x="1269" y="370" type="curve" smooth="yes"/>
      <point x="1273" y="331"/>
      <point x="1254" y="298"/>
      <point x="1147" y="292" type="curve"/>
      <point x="1136" y="302"/>
      <point x="1127" y="316"/>
    </contour>
    <component base="c_q_u_e"/>
  </outline>
</glyph>
<glyph name="D_E" format="2">
  <advance width="564"/>
  <unicode hex="F1610"/>
  <outline>
    <contour>
      <point x="92" y="243" type="line"/>
      <point x="175" y="243" type="line"/>
      <point x="175" y="289" type="line"/>
      <point x="194" y="311" type="line"/>
      <point x="313" y="311" type="line"/>
      <point x="335" y="292" type="line"/>
      <point x="335" y="262" type="line"/>
      <point x="363" y="262" type="line"/>
      <point x="363" y="394" type="line"/>
      <point x="335" y="394" type="line"/>
      <point x="335" y="366" type="line"/>
      <point x="313" y="347" type="line"/>
      <point x="194" y="347" type="line"/>
      <point x="175" y="369" type="line"/>
      <point x="175" y="412" type="line"/>
      <point x="92" y="412" type="line"/>
    </contour>
    <component base="D" identifier="AEE3B6EB"/>
  </outline>
</glyph>
<glyph name="D_U_D_E_L_A" format="2">
  <advance width="2541"/>
  <unicode hex="F1630"/>
  <outline>
    <contour>
      <point x="884" y="-10" type="curve" smooth="yes"/>
      <point x="960" y="-10"/>
      <point x="1015" y="9"/>
      <point x="1052" y="49" type="curve"/>
      <point x="1052" y="-129" type="line"/>
      <point x="1033" y="-151" type="line"/>
      <point x="983" y="-151" type="line"/>
      <point x="983" y="-179" type="line"/>
      <point x="1404" y="-179" type="line"/>
      <point x="1404" y="-74" type="line"/>
      <point x="1376" y="-74" type="line"/>
      <point x="1376" y="-122" type="line"/>
      <point x="1354" y="-141" type="line"/>
      <point x="1154" y="-141" type="line"/>
      <point x="1135" y="-119" type="line"/>
      <point x="1135" y="110" type="line"/>
      <point x="1154" y="132" type="line"/>
      <point x="1303" y="132" type="line"/>
      <point x="1325" y="113" type="line"/>
      <point x="1325" y="83" type="line"/>
      <point x="1353" y="83" type="line"/>
      <point x="1353" y="215" type="line"/>
      <point x="1325" y="215" type="line"/>
      <point x="1325" y="187" type="line"/>
      <point x="1303" y="168" type="line"/>
      <point x="1154" y="168" type="line"/>
      <point x="1135" y="190" type="line"/>
      <point x="1135" y="361" type="line"/>
      <point x="1154" y="383" type="line"/>
      <point x="1302" y="383" type="line"/>
      <point x="1324" y="364" type="line"/>
      <point x="1324" y="318" type="line"/>
      <point x="1352" y="318" type="line"/>
      <point x="1352" y="421" type="line"/>
      <point x="983" y="420" type="line"/>
      <point x="983" y="392" type="line"/>
      <point x="1033" y="392" type="line"/>
      <point x="1052" y="370" type="line"/>
      <point x="1052" y="358" type="line" smooth="yes"/>
      <point x="1051" y="297"/>
      <point x="1051" y="396"/>
      <point x="1052" y="229" type="curve" smooth="yes"/>
      <point x="1052" y="223" type="line" smooth="yes"/>
      <point x="1051" y="86"/>
      <point x="987" y="39"/>
      <point x="903" y="38" type="curve" smooth="yes"/>
      <point x="809" y="37"/>
      <point x="743" y="79"/>
      <point x="743" y="218" type="curve" smooth="yes"/>
      <point x="743" y="550" type="line"/>
      <point x="762" y="572" type="line"/>
      <point x="810" y="572" type="line"/>
      <point x="810" y="600" type="line"/>
      <point x="584" y="600" type="line"/>
      <point x="584" y="572" type="line"/>
      <point x="634" y="572" type="line"/>
      <point x="653" y="550" type="line"/>
      <point x="653" y="226" type="line" smooth="yes"/>
      <point x="653" y="43"/>
      <point x="750" y="-9"/>
    </contour>
    <component base="D"/>
    <component base="L" xOffset="1441" yOffset="-179" identifier="EBD20359"/>
    <component base="A" xOffset="1922" yOffset="-179"/>
  </outline>
</glyph>
<glyph name="d_e" format="2">
  <advance width="716"/>
  <unicode hex="F1710"/>
  <outline>
    <contour>
      <point x="222" y="-10" type="curve" smooth="yes"/>
      <point x="286" y="-10"/>
      <point x="330" y="26"/>
      <point x="360" y="113" type="curve"/>
      <point x="390" y="39"/>
      <point x="454" y="-10"/>
      <point x="540" y="-10" type="curve" smooth="yes"/>
      <point x="621" y="-10"/>
      <point x="695" y="62"/>
      <point x="706" y="143" type="curve"/>
      <point x="683" y="151" type="line"/>
      <point x="654" y="77"/>
      <point x="585" y="29"/>
      <point x="540" y="29" type="curve" smooth="yes"/>
      <point x="470" y="29"/>
      <point x="418" y="110"/>
      <point x="428" y="260" type="curve"/>
      <point x="682" y="260" type="line"/>
      <point x="682" y="290" type="line"/>
      <point x="411" y="290" type="line"/>
      <point x="411" y="550" type="line"/>
      <point x="430" y="572" type="line"/>
      <point x="478" y="572" type="line"/>
      <point x="478" y="600" type="line"/>
      <point x="271" y="600" type="line"/>
      <point x="271" y="572" type="line"/>
      <point x="319" y="572" type="line"/>
      <point x="338" y="550" type="line"/>
      <point x="338" y="423" type="line"/>
      <point x="310" y="441"/>
      <point x="272" y="450"/>
      <point x="229" y="450" type="curve" smooth="yes"/>
      <point x="110" y="450"/>
      <point x="30" y="357"/>
      <point x="30" y="224" type="curve" smooth="yes"/>
      <point x="30" y="93"/>
      <point x="100" y="-10"/>
    </contour>
    <contour>
      <point x="115" y="224" type="curve" smooth="yes"/>
      <point x="115" y="341"/>
      <point x="157" y="424"/>
      <point x="239" y="424" type="curve" smooth="yes"/>
      <point x="297" y="424"/>
      <point x="335" y="386"/>
      <point x="336" y="331" type="curve" smooth="yes"/>
      <point x="338" y="173" type="line"/>
      <point x="338" y="127" type="line"/>
      <point x="315" y="83"/>
      <point x="297" y="55"/>
      <point x="277" y="40" type="curve" smooth="yes"/>
      <point x="260" y="29"/>
      <point x="244" y="24"/>
      <point x="229" y="24" type="curve" smooth="yes"/>
      <point x="217" y="24"/>
      <point x="207" y="26"/>
      <point x="197" y="31" type="curve" smooth="yes"/>
      <point x="147" y="52"/>
      <point x="115" y="124"/>
    </contour>
  </outline>
</glyph>
<glyph name="d_e_s" format="2">
  <advance width="1075"/>
  <unicode hex="F1720"/>
  <outline>
    <contour>
      <point x="902" y="-10" type="curve" smooth="yes"/>
      <point x="970" y="-10"/>
      <point x="1045" y="25"/>
      <point x="1045" y="124" type="curve" smooth="yes"/>
      <point x="1045" y="196"/>
      <point x="965" y="239"/>
      <point x="880" y="263" type="curve" smooth="yes"/>
      <point x="873" y="265"/>
      <point x="867" y="268"/>
      <point x="860" y="271" type="curve"/>
      <point x="971" y="276"/>
      <point x="1037" y="303"/>
      <point x="1012" y="386" type="curve" smooth="yes"/>
      <point x="998" y="432"/>
      <point x="942" y="450"/>
      <point x="883" y="450" type="curve" smooth="yes"/>
      <point x="809" y="450"/>
      <point x="747" y="402"/>
      <point x="747" y="327" type="curve" smooth="yes"/>
      <point x="747" y="313"/>
      <point x="749" y="301"/>
      <point x="752" y="290" type="curve"/>
      <point x="665" y="290" type="line"/>
      <point x="665" y="260" type="line"/>
      <point x="764" y="260" type="line"/>
      <point x="785" y="226"/>
      <point x="823" y="205"/>
      <point x="873" y="184" type="curve" smooth="yes"/>
      <point x="931" y="160"/>
      <point x="973" y="150"/>
      <point x="980" y="110" type="curve" smooth="yes"/>
      <point x="988" y="63"/>
      <point x="941" y="22"/>
      <point x="897" y="22" type="curve" smooth="yes"/>
      <point x="844" y="22"/>
      <point x="788" y="79"/>
      <point x="780" y="169" type="curve"/>
      <point x="754" y="169" type="line"/>
      <point x="754" y="24" type="line"/>
      <point x="778" y="24" type="line"/>
      <point x="778" y="38" type="line"/>
      <point x="795" y="38" type="line"/>
      <point x="836" y="4"/>
      <point x="850" y="-10"/>
    </contour>
    <contour>
      <point x="805" y="335" type="curve" smooth="yes"/>
      <point x="795" y="383"/>
      <point x="838" y="426"/>
      <point x="886" y="426" type="curve" smooth="yes"/>
      <point x="926" y="426"/>
      <point x="948" y="403"/>
      <point x="951" y="370" type="curve" smooth="yes"/>
      <point x="955" y="331"/>
      <point x="936" y="298"/>
      <point x="829" y="292" type="curve"/>
      <point x="818" y="302"/>
      <point x="809" y="316"/>
    </contour>
    <component base="d_e"/>
  </outline>
</glyph>
<glyph name="d_u_d_e_l_a" format="2">
  <advance width="1456"/>
  <unicode hex="F1730"/>
  <outline>
    <contour>
      <point x="222" y="-10" type="curve" smooth="yes"/>
      <point x="276" y="-10"/>
      <point x="311" y="17"/>
      <point x="338" y="76" type="curve"/>
      <point x="367" y="76" type="line"/>
      <point x="367" y="0" type="line"/>
      <point x="411" y="0" type="line"/>
      <point x="411" y="550" type="line"/>
      <point x="430" y="572" type="line"/>
      <point x="969" y="572" type="line"/>
      <point x="969" y="602" type="line"/>
      <point x="935" y="602" type="line"/>
      <point x="922" y="682"/>
      <point x="862" y="762"/>
      <point x="757" y="762" type="curve" smooth="yes"/>
      <point x="660" y="762"/>
      <point x="584" y="700"/>
      <point x="563" y="600" type="curve"/>
      <point x="271" y="600" type="line"/>
      <point x="271" y="572" type="line"/>
      <point x="319" y="572" type="line"/>
      <point x="338" y="550" type="line"/>
      <point x="338" y="423" type="line"/>
      <point x="310" y="441"/>
      <point x="272" y="450"/>
      <point x="229" y="450" type="curve" smooth="yes"/>
      <point x="110" y="450"/>
      <point x="30" y="357"/>
      <point x="30" y="224" type="curve" smooth="yes"/>
      <point x="30" y="93"/>
      <point x="100" y="-10"/>
    </contour>
    <contour>
      <point x="115" y="224" type="curve" smooth="yes"/>
      <point x="115" y="341"/>
      <point x="157" y="424"/>
      <point x="239" y="424" type="curve" smooth="yes"/>
      <point x="297" y="424"/>
      <point x="335" y="386"/>
      <point x="336" y="331" type="curve" smooth="yes"/>
      <point x="338" y="173" type="line"/>
      <point x="338" y="127" type="line"/>
      <point x="315" y="83"/>
      <point x="297" y="55"/>
      <point x="277" y="40" type="curve" smooth="yes"/>
      <point x="260" y="29"/>
      <point x="244" y="24"/>
      <point x="229" y="24" type="curve" smooth="yes"/>
      <point x="217" y="24"/>
      <point x="207" y="26"/>
      <point x="197" y="31" type="curve" smooth="yes"/>
      <point x="147" y="52"/>
      <point x="115" y="124"/>
    </contour>
    <contour>
      <point x="478" y="361" type="line"/>
      <point x="537" y="361" type="line"/>
      <point x="559" y="342" type="line"/>
      <point x="559" y="107" type="line" smooth="yes"/>
      <point x="559" y="38"/>
      <point x="617" y="-9"/>
      <point x="697" y="-9" type="curve" smooth="yes"/>
      <point x="712" y="-9"/>
      <point x="727" y="-7"/>
      <point x="741" y="-3" type="curve" smooth="yes"/>
      <point x="777" y="8"/>
      <point x="809" y="34"/>
      <point x="830" y="82" type="curve"/>
      <point x="831" y="82" type="line"/>
      <point x="831" y="-112" type="line"/>
      <point x="812" y="-134" type="line"/>
      <point x="762" y="-134" type="line"/>
      <point x="762" y="-162" type="line"/>
      <point x="1205" y="-162" type="line"/>
      <point x="1253" y="-159"/>
      <point x="1287" y="-124"/>
      <point x="1313" y="-69" type="curve"/>
      <point x="1335" y="-69" type="line"/>
      <point x="1335" y="-152" type="line"/>
      <point x="1386" y="-152" type="line"/>
      <point x="1386" y="288" type="line"/>
      <point x="1364" y="288" type="line"/>
      <point x="1332" y="255" type="line"/>
      <point x="1302" y="283"/>
      <point x="1258" y="298"/>
      <point x="1204" y="298" type="curve" smooth="yes"/>
      <point x="1085" y="298"/>
      <point x="1005" y="207"/>
      <point x="1005" y="74" type="curve" smooth="yes"/>
      <point x="1005" y="-21"/>
      <point x="1040" y="-96"/>
      <point x="1099" y="-134" type="curve"/>
      <point x="922" y="-134" type="line"/>
      <point x="903" y="-112" type="line"/>
      <point x="903" y="440" type="line"/>
      <point x="837" y="414" type="line"/>
      <point x="750" y="382" type="line"/>
      <point x="750" y="379" type="line"/>
      <point x="749" y="379" type="line"/>
      <point x="749" y="361" type="line"/>
      <point x="750" y="361" type="line"/>
      <point x="750" y="359" type="line"/>
      <point x="809" y="359" type="line"/>
      <point x="830" y="341" type="line"/>
      <point x="830" y="132" type="line"/>
      <point x="806" y="69"/>
      <point x="774" y="39"/>
      <point x="741" y="32" type="curve" smooth="yes"/>
      <point x="735" y="31"/>
      <point x="729" y="30"/>
      <point x="723" y="30" type="curve" smooth="yes"/>
      <point x="668" y="30"/>
      <point x="632" y="65"/>
      <point x="632" y="158" type="curve" smooth="yes"/>
      <point x="632" y="440" type="line"/>
      <point x="478" y="379" type="line"/>
    </contour>
    <contour>
      <point x="645" y="603" type="line"/>
      <point x="656" y="676"/>
      <point x="694" y="735"/>
      <point x="757" y="735" type="curve" smooth="yes"/>
      <point x="832" y="735"/>
      <point x="852" y="660"/>
      <point x="851" y="603" type="curve"/>
    </contour>
    <contour>
      <point x="1090" y="74" type="curve" smooth="yes"/>
      <point x="1090" y="191"/>
      <point x="1132" y="272"/>
      <point x="1214" y="272" type="curve" smooth="yes"/>
      <point x="1272" y="272"/>
      <point x="1310" y="234"/>
      <point x="1311" y="179" type="curve" smooth="yes"/>
      <point x="1313" y="-4" type="line"/>
      <point x="1313" y="-23" type="line"/>
      <point x="1296" y="-65"/>
      <point x="1277" y="-92"/>
      <point x="1257" y="-107" type="curve" smooth="yes"/>
      <point x="1240" y="-120"/>
      <point x="1220" y="-126"/>
      <point x="1204" y="-126" type="curve" smooth="yes"/>
      <point x="1136" y="-126"/>
      <point x="1090" y="-47"/>
    </contour>
  </outline>
</glyph>
<glyph name="E_A_U" format="2">
  <advance width="1593"/>
  <unicode hex="F1810"/>
  <outline>
    <contour>
      <point x="20" y="0" type="line"/>
      <point x="441" y="0" type="line"/>
      <point x="441" y="105" type="line"/>
      <point x="413" y="105" type="line"/>
      <point x="413" y="57" type="line"/>
      <point x="391" y="38" type="line"/>
      <point x="191" y="38" type="line"/>
      <point x="172" y="60" type="line"/>
      <point x="172" y="296" type="line"/>
      <point x="191" y="318" type="line"/>
      <point x="1110" y="318" type="line"/>
      <point x="1110" y="346" type="line"/>
      <point x="191" y="346" type="line"/>
      <point x="172" y="368" type="line"/>
      <point x="172" y="540" type="line"/>
      <point x="191" y="562" type="line"/>
      <point x="339" y="562" type="line"/>
      <point x="361" y="543" type="line"/>
      <point x="361" y="497" type="line"/>
      <point x="389" y="497" type="line"/>
      <point x="389" y="600" type="line"/>
      <point x="89" y="599" type="line"/>
      <point x="89" y="50" type="line"/>
      <point x="70" y="28" type="line"/>
      <point x="20" y="28" type="line"/>
    </contour>
    <contour>
      <point x="653" y="243" type="line"/>
      <point x="684" y="330" type="line"/>
      <point x="638" y="331" type="line"/>
      <point x="540" y="50" type="line"/>
      <point x="539" y="50" type="line"/>
      <point x="531" y="28" type="line"/>
      <point x="481" y="28" type="line"/>
      <point x="481" y="0" type="line"/>
      <point x="654" y="0" type="line"/>
      <point x="654" y="28" type="line"/>
      <point x="606" y="28" type="line"/>
      <point x="587" y="50" type="line"/>
      <point x="587" y="51" type="line"/>
    </contour>
    <contour>
      <point x="1280" y="-10" type="curve" smooth="yes"/>
      <point x="1436" y="-11"/>
      <point x="1503" y="70"/>
      <point x="1506" y="243" type="curve" smooth="yes"/>
      <point x="1508" y="357"/>
      <point x="1507" y="453"/>
      <point x="1506" y="539" type="curve" smooth="yes"/>
      <point x="1506" y="550" type="line"/>
      <point x="1525" y="572" type="line"/>
      <point x="1573" y="572" type="line"/>
      <point x="1573" y="600" type="line"/>
      <point x="1379" y="600" type="line"/>
      <point x="1379" y="572" type="line"/>
      <point x="1429" y="572" type="line"/>
      <point x="1448" y="550" type="line"/>
      <point x="1448" y="538" type="line" smooth="yes"/>
      <point x="1447" y="477"/>
      <point x="1447" y="396"/>
      <point x="1448" y="229" type="curve" smooth="yes"/>
      <point x="1449" y="88"/>
      <point x="1383" y="39"/>
      <point x="1299" y="38" type="curve" smooth="yes"/>
      <point x="1205" y="37"/>
      <point x="1139" y="79"/>
      <point x="1139" y="218" type="curve" smooth="yes"/>
      <point x="1139" y="296" type="line"/>
      <point x="1158" y="318" type="line"/>
      <point x="1206" y="318" type="line"/>
      <point x="1206" y="346" type="line"/>
      <point x="980" y="345" type="line"/>
      <point x="980" y="318" type="line"/>
      <point x="1030" y="318" type="line"/>
      <point x="1049" y="296" type="line"/>
      <point x="1049" y="226" type="line" smooth="yes"/>
      <point x="1049" y="43"/>
      <point x="1146" y="-9"/>
    </contour>
    <contour>
      <point x="795" y="293" type="line"/>
      <point x="812" y="242" type="line"/>
      <point x="896" y="0" type="line"/>
      <point x="990" y="0" type="line"/>
      <point x="778" y="600" type="line"/>
      <point x="632" y="600" type="line"/>
      <point x="632" y="572" type="line"/>
      <point x="698" y="572" type="line"/>
      <point x="713" y="532" type="line"/>
    </contour>
  </outline>
</glyph>
<glyph name="Eacute_E" format="2">
  <advance width="600"/>
  <unicode hex="F1820"/>
  <outline>
    <contour>
      <point x="20" y="0" type="line"/>
      <point x="570" y="0" type="line"/>
      <point x="570" y="105" type="line"/>
      <point x="542" y="105" type="line"/>
      <point x="542" y="57" type="line"/>
      <point x="520" y="38" type="line"/>
      <point x="390" y="38" type="line"/>
      <point x="372" y="59" type="line"/>
      <point x="372" y="290" type="line"/>
      <point x="390" y="311" type="line"/>
      <point x="469" y="311" type="line"/>
      <point x="491" y="292" type="line"/>
      <point x="491" y="262" type="line"/>
      <point x="519" y="262" type="line"/>
      <point x="519" y="394" type="line"/>
      <point x="491" y="394" type="line"/>
      <point x="491" y="366" type="line"/>
      <point x="469" y="347" type="line"/>
      <point x="390" y="347" type="line"/>
      <point x="372" y="368" type="line"/>
      <point x="372" y="541" type="line"/>
      <point x="390" y="562" type="line"/>
      <point x="468" y="562" type="line"/>
      <point x="490" y="543" type="line"/>
      <point x="490" y="497" type="line"/>
      <point x="518" y="497" type="line"/>
      <point x="518" y="600" type="line"/>
      <point x="72" y="600" type="line"/>
      <point x="72" y="497" type="line"/>
      <point x="100" y="497" type="line"/>
      <point x="100" y="543" type="line"/>
      <point x="122" y="562" type="line"/>
      <point x="270" y="562" type="line"/>
      <point x="288" y="541" type="line"/>
      <point x="288" y="368" type="line"/>
      <point x="270" y="347" type="line"/>
      <point x="121" y="347" type="line"/>
      <point x="99" y="366" type="line"/>
      <point x="99" y="394" type="line"/>
      <point x="71" y="394" type="line"/>
      <point x="71" y="262" type="line"/>
      <point x="99" y="262" type="line"/>
      <point x="99" y="292" type="line"/>
      <point x="121" y="311" type="line"/>
      <point x="270" y="311" type="line"/>
      <point x="288" y="290" type="line"/>
      <point x="288" y="59" type="line"/>
      <point x="270" y="38" type="line"/>
      <point x="70" y="38" type="line"/>
      <point x="48" y="57" type="line"/>
      <point x="48" y="105" type="line"/>
      <point x="20" y="105" type="line"/>
    </contour>
    <contour>
      <point x="178" y="684" type="line"/>
      <point x="253" y="668"/>
      <point x="304" y="691"/>
      <point x="329" y="734" type="curve" smooth="yes"/>
      <point x="352" y="773"/>
      <point x="341" y="814"/>
      <point x="313" y="829" type="curve" smooth="yes"/>
      <point x="290" y="841"/>
      <point x="264" y="835"/>
      <point x="253" y="815" type="curve" smooth="yes"/>
      <point x="241" y="793"/>
      <point x="247" y="775"/>
      <point x="266" y="762" type="curve" smooth="yes"/>
      <point x="269" y="760"/>
      <point x="274" y="759"/>
      <point x="278" y="759" type="curve" smooth="yes"/>
      <point x="295" y="759"/>
      <point x="305" y="762"/>
      <point x="298" y="740" type="curve" smooth="yes"/>
      <point x="286" y="703"/>
      <point x="235" y="689"/>
      <point x="185" y="698" type="curve"/>
    </contour>
  </outline>
</glyph>
<glyph name="E_T_T_E" format="2">
  <advance width="1673"/>
  <unicode hex="F1880"/>
  <outline>
    <contour>
      <point x="20" y="0" type="line"/>
      <point x="441" y="0" type="line"/>
      <point x="441" y="105" type="line"/>
      <point x="413" y="105" type="line"/>
      <point x="413" y="57" type="line"/>
      <point x="391" y="38" type="line"/>
      <point x="191" y="38" type="line"/>
      <point x="172" y="60" type="line"/>
      <point x="172" y="289" type="line"/>
      <point x="191" y="311" type="line"/>
      <point x="340" y="311" type="line"/>
      <point x="362" y="292" type="line"/>
      <point x="362" y="262" type="line"/>
      <point x="390" y="262" type="line"/>
      <point x="390" y="394" type="line"/>
      <point x="362" y="394" type="line"/>
      <point x="362" y="366" type="line"/>
      <point x="340" y="347" type="line"/>
      <point x="191" y="347" type="line"/>
      <point x="172" y="369" type="line"/>
      <point x="172" y="540" type="line"/>
      <point x="191" y="562" type="line"/>
      <point x="452" y="562" type="line"/>
      <point x="474" y="543" type="line"/>
      <point x="474" y="497" type="line"/>
      <point x="506" y="497" type="line"/>
      <point x="506" y="545" type="line"/>
      <point x="522" y="563" type="line"/>
      <point x="679" y="563" type="line"/>
      <point x="698" y="541" type="line"/>
      <point x="698" y="312" type="line"/>
      <point x="679" y="290" type="line"/>
      <point x="629" y="290" type="line"/>
      <point x="629" y="262" type="line"/>
      <point x="847" y="262" type="line"/>
      <point x="847" y="290" type="line"/>
      <point x="799" y="290" type="line"/>
      <point x="780" y="312" type="line"/>
      <point x="780" y="541" type="line"/>
      <point x="799" y="563" type="line"/>
      <point x="943" y="563" type="line"/>
      <point x="962" y="541" type="line"/>
      <point x="962" y="312" type="line"/>
      <point x="943" y="290" type="line"/>
      <point x="893" y="290" type="line"/>
      <point x="893" y="262" type="line"/>
      <point x="1111" y="262" type="line"/>
      <point x="1111" y="290" type="line"/>
      <point x="1063" y="290" type="line"/>
      <point x="1044" y="312" type="line"/>
      <point x="1044" y="541" type="line"/>
      <point x="1063" y="563" type="line"/>
      <point x="1258" y="563" type="line"/>
      <point x="1274" y="545" type="line"/>
      <point x="1274" y="497" type="line"/>
      <point x="1302" y="497" type="line"/>
      <point x="1302" y="543" type="line"/>
      <point x="1324" y="562" type="line"/>
      <point x="1472" y="562" type="line"/>
      <point x="1491" y="540" type="line"/>
      <point x="1491" y="369" type="line"/>
      <point x="1472" y="347" type="line"/>
      <point x="1323" y="347" type="line"/>
      <point x="1301" y="366" type="line"/>
      <point x="1301" y="394" type="line"/>
      <point x="1273" y="394" type="line"/>
      <point x="1273" y="262" type="line"/>
      <point x="1301" y="262" type="line"/>
      <point x="1301" y="292" type="line"/>
      <point x="1323" y="311" type="line"/>
      <point x="1472" y="311" type="line"/>
      <point x="1491" y="289" type="line"/>
      <point x="1491" y="60" type="line"/>
      <point x="1472" y="38" type="line"/>
      <point x="1272" y="38" type="line"/>
      <point x="1250" y="57" type="line"/>
      <point x="1250" y="105" type="line"/>
      <point x="1222" y="105" type="line"/>
      <point x="1222" y="0" type="line"/>
      <point x="1643" y="0" type="line"/>
      <point x="1643" y="28" type="line"/>
      <point x="1593" y="28" type="line"/>
      <point x="1574" y="50" type="line"/>
      <point x="1574" y="599" type="line"/>
      <point x="1299" y="600" type="line"/>
      <point x="471" y="600" type="line"/>
      <point x="89" y="599" type="line"/>
      <point x="89" y="50" type="line"/>
      <point x="70" y="28" type="line"/>
      <point x="20" y="28" type="line"/>
    </contour>
  </outline>
</glyph>
<glyph name="Ecircumflex_T_E" format="2">
  <advance width="908"/>
  <unicode hex="F1890"/>
  <outline>
    <contour>
      <point x="20" y="0" type="line"/>
      <point x="441" y="0" type="line"/>
      <point x="441" y="105" type="line"/>
      <point x="413" y="105" type="line"/>
      <point x="413" y="57" type="line"/>
      <point x="391" y="38" type="line"/>
      <point x="191" y="38" type="line"/>
      <point x="172" y="60" type="line"/>
      <point x="172" y="289" type="line"/>
      <point x="191" y="311" type="line"/>
      <point x="340" y="311" type="line"/>
      <point x="362" y="292" type="line"/>
      <point x="362" y="262" type="line"/>
      <point x="390" y="262" type="line"/>
      <point x="390" y="310" type="line"/>
      <point x="522" y="310" type="line"/>
      <point x="541" y="288" type="line"/>
      <point x="541" y="-130" type="line"/>
      <point x="522" y="-152" type="line"/>
      <point x="472" y="-152" type="line"/>
      <point x="472" y="-180" type="line"/>
      <point x="822" y="-180" type="line"/>
      <point x="822" y="-75" type="line"/>
      <point x="794" y="-75" type="line"/>
      <point x="794" y="-123" type="line"/>
      <point x="772" y="-142" type="line"/>
      <point x="642" y="-142" type="line"/>
      <point x="623" y="-120" type="line"/>
      <point x="623" y="56" type="line"/>
      <point x="642" y="78" type="line"/>
      <point x="721" y="78" type="line"/>
      <point x="743" y="59" type="line"/>
      <point x="743" y="29" type="line"/>
      <point x="771" y="29" type="line"/>
      <point x="771" y="161" type="line"/>
      <point x="743" y="161" type="line"/>
      <point x="743" y="133" type="line"/>
      <point x="721" y="114" type="line"/>
      <point x="642" y="114" type="line"/>
      <point x="623" y="136" type="line"/>
      <point x="623" y="288" type="line"/>
      <point x="642" y="310" type="line"/>
      <point x="797" y="310" type="line"/>
      <point x="813" y="292" type="line"/>
      <point x="813" y="244" type="line"/>
      <point x="832" y="244" type="line"/>
      <point x="878" y="347" type="line"/>
      <point x="390" y="347" type="line"/>
      <point x="390" y="394" type="line"/>
      <point x="362" y="394" type="line"/>
      <point x="362" y="366" type="line"/>
      <point x="340" y="347" type="line"/>
      <point x="191" y="347" type="line"/>
      <point x="172" y="369" type="line"/>
      <point x="172" y="600" type="line"/>
      <point x="89" y="599" type="line"/>
      <point x="89" y="50" type="line"/>
      <point x="70" y="28" type="line"/>
      <point x="20" y="28" type="line"/>
    </contour>
    <component base="circumflexcomb" xOffset="130"/>
  </outline>
</glyph>
<glyph name="E_U" format="2">
  <advance width="994"/>
  <unicode hex="F18A0"/>
  <outline>
    <contour>
      <point x="20" y="0" type="line"/>
      <point x="441" y="0" type="line"/>
      <point x="441" y="105" type="line"/>
      <point x="413" y="105" type="line"/>
      <point x="413" y="57" type="line"/>
      <point x="391" y="38" type="line"/>
      <point x="191" y="38" type="line"/>
      <point x="172" y="60" type="line"/>
      <point x="172" y="289" type="line"/>
      <point x="191" y="311" type="line"/>
      <point x="340" y="311" type="line"/>
      <point x="340" y="347" type="line"/>
      <point x="191" y="347" type="line"/>
      <point x="172" y="369" type="line"/>
      <point x="172" y="540" type="line"/>
      <point x="191" y="562" type="line"/>
      <point x="339" y="562" type="line"/>
      <point x="361" y="543" type="line"/>
      <point x="361" y="497" type="line"/>
      <point x="389" y="497" type="line"/>
      <point x="389" y="600" type="line"/>
      <point x="89" y="599" type="line"/>
      <point x="89" y="50" type="line"/>
      <point x="70" y="28" type="line"/>
      <point x="20" y="28" type="line"/>
    </contour>
    <contour>
      <point x="681" y="-10" type="curve" smooth="yes"/>
      <point x="837" y="-11"/>
      <point x="904" y="70"/>
      <point x="907" y="243" type="curve" smooth="yes"/>
      <point x="909" y="357"/>
      <point x="908" y="453"/>
      <point x="907" y="539" type="curve" smooth="yes"/>
      <point x="907" y="550" type="line"/>
      <point x="926" y="572" type="line"/>
      <point x="974" y="572" type="line"/>
      <point x="974" y="600" type="line"/>
      <point x="780" y="600" type="line"/>
      <point x="780" y="572" type="line"/>
      <point x="830" y="572" type="line"/>
      <point x="849" y="550" type="line"/>
      <point x="849" y="538" type="line" smooth="yes"/>
      <point x="848" y="477"/>
      <point x="848" y="396"/>
      <point x="849" y="229" type="curve" smooth="yes"/>
      <point x="850" y="88"/>
      <point x="784" y="39"/>
      <point x="700" y="38" type="curve" smooth="yes"/>
      <point x="606" y="37"/>
      <point x="540" y="79"/>
      <point x="540" y="218" type="curve" smooth="yes"/>
      <point x="540" y="290" type="line"/>
      <point x="559" y="312" type="line"/>
      <point x="607" y="312" type="line"/>
      <point x="607" y="347" type="line"/>
      <point x="331" y="347" type="line"/>
      <point x="331" y="312" type="line"/>
      <point x="431" y="312" type="line"/>
      <point x="450" y="290" type="line"/>
      <point x="450" y="226" type="line" smooth="yes"/>
      <point x="450" y="43"/>
      <point x="547" y="-9"/>
    </contour>
  </outline>
</glyph>
<glyph name="E_S_S_E" format="2">
  <advance width="1724"/>
  <unicode hex="F18C0"/>
  <outline>
    <contour>
      <point x="20" y="0" type="line"/>
      <point x="531" y="0" type="line"/>
      <point x="531" y="105" type="line"/>
      <point x="503" y="105" type="line"/>
      <point x="503" y="57" type="line"/>
      <point x="481" y="38" type="line"/>
      <point x="191" y="38" type="line"/>
      <point x="172" y="60" type="line"/>
      <point x="172" y="289" type="line"/>
      <point x="191" y="311" type="line"/>
      <point x="340" y="311" type="line"/>
      <point x="362" y="292" type="line"/>
      <point x="362" y="262" type="line"/>
      <point x="390" y="262" type="line"/>
      <point x="390" y="394" type="line"/>
      <point x="362" y="394" type="line"/>
      <point x="362" y="366" type="line"/>
      <point x="340" y="347" type="line"/>
      <point x="191" y="347" type="line"/>
      <point x="172" y="369" type="line"/>
      <point x="172" y="540" type="line"/>
      <point x="191" y="562" type="line"/>
      <point x="339" y="562" type="line"/>
      <point x="361" y="543" type="line"/>
      <point x="361" y="497" type="line"/>
      <point x="389" y="497" type="line"/>
      <point x="389" y="600" type="line"/>
      <point x="89" y="599" type="line"/>
      <point x="89" y="50" type="line"/>
      <point x="70" y="28" type="line"/>
      <point x="20" y="28" type="line"/>
    </contour>
    <contour>
      <point x="1694" y="0" type="line"/>
      <point x="1694" y="28" type="line"/>
      <point x="1644" y="28" type="line"/>
      <point x="1625" y="50" type="line"/>
      <point x="1625" y="599" type="line"/>
      <point x="1325" y="600" type="line"/>
      <point x="1325" y="497" type="line"/>
      <point x="1353" y="497" type="line"/>
      <point x="1353" y="543" type="line"/>
      <point x="1375" y="562" type="line"/>
      <point x="1523" y="562" type="line"/>
      <point x="1542" y="540" type="line"/>
      <point x="1542" y="369" type="line"/>
      <point x="1523" y="347" type="line"/>
      <point x="1374" y="347" type="line"/>
      <point x="1352" y="366" type="line"/>
      <point x="1352" y="394" type="line"/>
      <point x="1324" y="394" type="line"/>
      <point x="1324" y="262" type="line"/>
      <point x="1352" y="262" type="line"/>
      <point x="1352" y="292" type="line"/>
      <point x="1374" y="311" type="line"/>
      <point x="1523" y="311" type="line"/>
      <point x="1542" y="289" type="line"/>
      <point x="1542" y="60" type="line"/>
      <point x="1523" y="38" type="line"/>
      <point x="1233" y="38" type="line"/>
      <point x="1211" y="57" type="line"/>
      <point x="1211" y="105" type="line"/>
      <point x="1183" y="105" type="line"/>
      <point x="1183" y="0" type="line"/>
    </contour>
    <component base="S" xScale="-1" xOffset="1261" yOffset="-125"/>
    <component base="S" xOffset="453" yOffset="-125"/>
  </outline>
</glyph>
<glyph name="e_a_u" format="2">
  <advance width="1061"/>
  <unicode hex="F1910"/>
  <outline>
    <contour>
      <point x="720" y="158" type="curve" smooth="yes"/>
      <point x="720" y="440" type="line"/>
      <point x="698" y="440" type="line"/>
      <point x="666" y="407" type="line"/>
      <point x="636" y="435"/>
      <point x="592" y="450"/>
      <point x="538" y="450" type="curve" smooth="yes"/>
      <point x="419" y="450"/>
      <point x="339" y="359"/>
      <point x="339" y="226" type="curve" smooth="yes"/>
      <point x="339" y="86"/>
      <point x="416" y="-10"/>
      <point x="531" y="-10" type="curve" smooth="yes"/>
      <point x="584" y="-10"/>
      <point x="620" y="25"/>
      <point x="647" y="83" type="curve"/>
      <point x="649" y="83" type="line"/>
      <point x="661" y="27"/>
      <point x="715" y="-9"/>
      <point x="785" y="-9" type="curve" smooth="yes"/>
      <point x="800" y="-9"/>
      <point x="815" y="-7"/>
      <point x="829" y="-3" type="curve" smooth="yes"/>
      <point x="865" y="8"/>
      <point x="897" y="34"/>
      <point x="918" y="82" type="curve"/>
      <point x="940" y="82" type="line"/>
      <point x="940" y="0" type="line"/>
      <point x="991" y="0" type="line"/>
      <point x="991" y="440" type="line"/>
      <point x="837" y="379" type="line"/>
      <point x="837" y="361" type="line"/>
      <point x="896" y="361" type="line"/>
      <point x="918" y="342" type="line"/>
      <point x="918" y="132" type="line"/>
      <point x="894" y="69"/>
      <point x="862" y="39"/>
      <point x="829" y="32" type="curve" smooth="yes"/>
      <point x="823" y="31"/>
      <point x="817" y="30"/>
      <point x="811" y="30" type="curve" smooth="yes"/>
      <point x="756" y="30"/>
      <point x="720" y="65"/>
    </contour>
    <contour>
      <point x="424" y="226" type="curve" smooth="yes"/>
      <point x="424" y="343"/>
      <point x="466" y="424"/>
      <point x="548" y="424" type="curve" smooth="yes"/>
      <point x="606" y="424"/>
      <point x="644" y="386"/>
      <point x="645" y="331" type="curve" smooth="yes"/>
      <point x="647" y="148" type="line"/>
      <point x="647" y="129" type="line"/>
      <point x="629" y="87"/>
      <point x="611" y="60"/>
      <point x="591" y="45" type="curve" smooth="yes"/>
      <point x="573" y="33"/>
      <point x="554" y="26"/>
      <point x="538" y="26" type="curve" smooth="yes"/>
      <point x="470" y="26"/>
      <point x="424" y="105"/>
    </contour>
    <component base="e" xScale="-1" xOffset="453"/>
  </outline>
</glyph>
<glyph name="eacute_e" format="2">
  <advance width="690"/>
  <unicode hex="F1920"/>
  <outline>
    <contour>
      <point x="231" y="-10" type="curve" smooth="yes"/>
      <point x="312" y="-10"/>
      <point x="386" y="62"/>
      <point x="397" y="143" type="curve"/>
      <point x="374" y="151" type="line"/>
      <point x="345" y="77"/>
      <point x="276" y="29"/>
      <point x="231" y="29" type="curve" smooth="yes"/>
      <point x="161" y="29"/>
      <point x="109" y="110"/>
      <point x="119" y="260" type="curve"/>
      <point x="680" y="260" type="line"/>
      <point x="680" y="290" type="line"/>
      <point x="647" y="290" type="line"/>
      <point x="634" y="370"/>
      <point x="574" y="450"/>
      <point x="469" y="450" type="curve" smooth="yes"/>
      <point x="421" y="450"/>
      <point x="379" y="434"/>
      <point x="346" y="407" type="curve"/>
      <point x="318" y="433"/>
      <point x="279" y="450"/>
      <point x="231" y="450" type="curve" smooth="yes"/>
      <point x="115" y="450"/>
      <point x="30" y="357"/>
      <point x="30" y="224" type="curve" smooth="yes"/>
      <point x="30" y="92"/>
      <point x="107" y="-10"/>
    </contour>
    <contour>
      <point x="119" y="291" type="line"/>
      <point x="130" y="364"/>
      <point x="168" y="423"/>
      <point x="231" y="423" type="curve" smooth="yes"/>
      <point x="273" y="423"/>
      <point x="298" y="399"/>
      <point x="311" y="369" type="curve"/>
      <point x="294" y="346"/>
      <point x="281" y="320"/>
      <point x="274" y="291" type="curve"/>
    </contour>
    <contour>
      <point x="357" y="291" type="line"/>
      <point x="368" y="364"/>
      <point x="406" y="423"/>
      <point x="469" y="423" type="curve" smooth="yes"/>
      <point x="544" y="423"/>
      <point x="564" y="348"/>
      <point x="563" y="291" type="curve"/>
    </contour>
    <component base="acutecomb" xOffset="258"/>
  </outline>
</glyph>
<glyph name="eacute_e.ss01" format="2">
  <advance width="906"/>
  <unicode hex="F1921"/>
  <outline>
    <contour>
      <point x="231" y="-10" type="curve" smooth="yes"/>
      <point x="312" y="-10"/>
      <point x="386" y="62"/>
      <point x="397" y="143" type="curve"/>
      <point x="374" y="151" type="line"/>
      <point x="345" y="77"/>
      <point x="276" y="29"/>
      <point x="231" y="29" type="curve" smooth="yes"/>
      <point x="161" y="29"/>
      <point x="109" y="110"/>
      <point x="119" y="260" type="curve"/>
      <point x="485" y="260" type="line"/>
      <point x="484" y="249"/>
      <point x="483" y="237"/>
      <point x="483" y="224" type="curve" smooth="yes"/>
      <point x="483" y="92"/>
      <point x="560" y="-10"/>
      <point x="684" y="-10" type="curve" smooth="yes"/>
      <point x="765" y="-10"/>
      <point x="839" y="62"/>
      <point x="850" y="143" type="curve"/>
      <point x="827" y="151" type="line"/>
      <point x="798" y="77"/>
      <point x="729" y="29"/>
      <point x="684" y="29" type="curve" smooth="yes"/>
      <point x="614" y="29"/>
      <point x="562" y="110"/>
      <point x="572" y="260" type="curve"/>
      <point x="896" y="260" type="line"/>
      <point x="896" y="290" type="line"/>
      <point x="409" y="290" type="line"/>
      <point x="396" y="370"/>
      <point x="336" y="450"/>
      <point x="231" y="450" type="curve" smooth="yes"/>
      <point x="115" y="450"/>
      <point x="30" y="357"/>
      <point x="30" y="224" type="curve" smooth="yes"/>
      <point x="30" y="92"/>
      <point x="107" y="-10"/>
    </contour>
    <contour>
      <point x="119" y="291" type="line"/>
      <point x="130" y="364"/>
      <point x="168" y="423"/>
      <point x="231" y="423" type="curve" smooth="yes"/>
      <point x="306" y="423"/>
      <point x="326" y="348"/>
      <point x="325" y="291" type="curve"/>
    </contour>
    <component base="acutecomb" xOffset="380"/>
  </outline>
</glyph>
<glyph name="eacute_e_s" format="2">
  <advance width="1018"/>
  <unicode hex="F1930"/>
  <outline>
    <contour>
      <point x="231" y="-10" type="curve" smooth="yes"/>
      <point x="312" y="-10"/>
      <point x="386" y="62"/>
      <point x="397" y="143" type="curve"/>
      <point x="374" y="151" type="line"/>
      <point x="345" y="77"/>
      <point x="276" y="29"/>
      <point x="231" y="29" type="curve" smooth="yes"/>
      <point x="161" y="29"/>
      <point x="109" y="110"/>
      <point x="119" y="260" type="curve"/>
      <point x="670" y="260" type="line"/>
      <point x="682" y="261"/>
      <point x="695" y="261"/>
      <point x="707" y="262" type="curve"/>
      <point x="728" y="228"/>
      <point x="766" y="205"/>
      <point x="816" y="184" type="curve" smooth="yes"/>
      <point x="874" y="160"/>
      <point x="916" y="150"/>
      <point x="923" y="110" type="curve" smooth="yes"/>
      <point x="931" y="63"/>
      <point x="884" y="22"/>
      <point x="840" y="22" type="curve" smooth="yes"/>
      <point x="787" y="22"/>
      <point x="731" y="79"/>
      <point x="723" y="169" type="curve"/>
      <point x="697" y="169" type="line"/>
      <point x="697" y="24" type="line"/>
      <point x="721" y="24" type="line"/>
      <point x="721" y="38" type="line"/>
      <point x="738" y="38" type="line"/>
      <point x="779" y="4"/>
      <point x="793" y="-10"/>
      <point x="845" y="-10" type="curve" smooth="yes"/>
      <point x="913" y="-10"/>
      <point x="988" y="25"/>
      <point x="988" y="124" type="curve" smooth="yes"/>
      <point x="988" y="196"/>
      <point x="908" y="239"/>
      <point x="823" y="263" type="curve" smooth="yes"/>
      <point x="816" y="265"/>
      <point x="810" y="268"/>
      <point x="803" y="271" type="curve"/>
      <point x="914" y="276"/>
      <point x="980" y="303"/>
      <point x="955" y="386" type="curve" smooth="yes"/>
      <point x="941" y="432"/>
      <point x="885" y="450"/>
      <point x="826" y="450" type="curve" smooth="yes"/>
      <point x="752" y="450"/>
      <point x="690" y="402"/>
      <point x="690" y="327" type="curve" smooth="yes"/>
      <point x="690" y="313"/>
      <point x="692" y="301"/>
      <point x="695" y="290" type="curve"/>
      <point x="647" y="290" type="line"/>
      <point x="634" y="370"/>
      <point x="574" y="450"/>
      <point x="469" y="450" type="curve" smooth="yes"/>
      <point x="421" y="450"/>
      <point x="379" y="434"/>
      <point x="346" y="407" type="curve"/>
      <point x="318" y="433"/>
      <point x="279" y="450"/>
      <point x="231" y="450" type="curve" smooth="yes"/>
      <point x="115" y="450"/>
      <point x="30" y="357"/>
      <point x="30" y="224" type="curve" smooth="yes"/>
      <point x="30" y="92"/>
      <point x="107" y="-10"/>
    </contour>
    <contour>
      <point x="119" y="291" type="line"/>
      <point x="130" y="364"/>
      <point x="168" y="423"/>
      <point x="231" y="423" type="curve" smooth="yes"/>
      <point x="273" y="423"/>
      <point x="298" y="399"/>
      <point x="311" y="369" type="curve"/>
      <point x="294" y="346"/>
      <point x="281" y="320"/>
      <point x="274" y="291" type="curve"/>
    </contour>
    <contour>
      <point x="357" y="291" type="line"/>
      <point x="368" y="364"/>
      <point x="406" y="423"/>
      <point x="469" y="423" type="curve" smooth="yes"/>
      <point x="544" y="423"/>
      <point x="564" y="348"/>
      <point x="563" y="291" type="curve"/>
    </contour>
    <contour>
      <point x="748" y="335" type="curve" smooth="yes"/>
      <point x="738" y="382"/>
      <point x="781" y="426"/>
      <point x="829" y="426" type="curve" smooth="yes"/>
      <point x="869" y="426"/>
      <point x="891" y="403"/>
      <point x="894" y="370" type="curve" smooth="yes"/>
      <point x="898" y="331"/>
      <point x="879" y="298"/>
      <point x="772" y="292" type="curve"/>
      <point x="761" y="302"/>
      <point x="752" y="316"/>
    </contour>
    <component base="acutecomb" xOffset="242"/>
  </outline>
</glyph>
<glyph name="e_s" format="2">
  <advance width="819"/>
  <unicode hex="F1950"/>
  <outline>
    <contour>
      <point x="646" y="-10" type="curve" smooth="yes"/>
      <point x="714" y="-10"/>
      <point x="789" y="25"/>
      <point x="789" y="124" type="curve" smooth="yes"/>
      <point x="789" y="196"/>
      <point x="707" y="233"/>
      <point x="624" y="263" type="curve" smooth="yes"/>
      <point x="617" y="265"/>
      <point x="611" y="268"/>
      <point x="604" y="271" type="curve"/>
      <point x="715" y="276"/>
      <point x="781" y="303"/>
      <point x="756" y="386" type="curve" smooth="yes"/>
      <point x="742" y="432"/>
      <point x="686" y="450"/>
      <point x="627" y="450" type="curve" smooth="yes"/>
      <point x="553" y="450"/>
      <point x="491" y="402"/>
      <point x="491" y="327" type="curve" smooth="yes"/>
      <point x="491" y="313"/>
      <point x="493" y="301"/>
      <point x="496" y="290" type="curve"/>
      <point x="407" y="290" type="line"/>
      <point x="394" y="370"/>
      <point x="334" y="450"/>
      <point x="229" y="450" type="curve" smooth="yes"/>
      <point x="119" y="450"/>
      <point x="44" y="369"/>
      <point x="30" y="261" type="curve"/>
      <point x="508" y="261" type="line"/>
      <point x="529" y="227"/>
      <point x="567" y="205"/>
      <point x="617" y="184" type="curve" smooth="yes"/>
      <point x="675" y="160"/>
      <point x="717" y="150"/>
      <point x="724" y="110" type="curve" smooth="yes"/>
      <point x="732" y="63"/>
      <point x="685" y="22"/>
      <point x="641" y="22" type="curve" smooth="yes"/>
      <point x="588" y="22"/>
      <point x="532" y="79"/>
      <point x="524" y="169" type="curve"/>
      <point x="498" y="169" type="line"/>
      <point x="498" y="24" type="line"/>
      <point x="522" y="24" type="line"/>
      <point x="522" y="38" type="line"/>
      <point x="539" y="38" type="line"/>
      <point x="580" y="4"/>
      <point x="594" y="-10"/>
    </contour>
    <contour>
      <point x="117" y="291" type="line"/>
      <point x="128" y="364"/>
      <point x="166" y="423"/>
      <point x="229" y="423" type="curve" smooth="yes"/>
      <point x="304" y="423"/>
      <point x="324" y="348"/>
      <point x="323" y="291" type="curve"/>
    </contour>
    <contour>
      <point x="549" y="335" type="curve" smooth="yes"/>
      <point x="538" y="383"/>
      <point x="582" y="426"/>
      <point x="630" y="426" type="curve" smooth="yes"/>
      <point x="670" y="424"/>
      <point x="692" y="403"/>
      <point x="695" y="370" type="curve" smooth="yes"/>
      <point x="699" y="331"/>
      <point x="680" y="298"/>
      <point x="573" y="292" type="curve"/>
      <point x="562" y="302"/>
      <point x="553" y="316"/>
    </contour>
  </outline>
</glyph>
<glyph name="e_t" format="2">
  <advance width="758"/>
  <unicode hex="F1960"/>
  <outline>
    <contour>
      <point x="594" y="-10" type="curve" smooth="yes"/>
      <point x="642" y="-10"/>
      <point x="675" y="27"/>
      <point x="694" y="47" type="curve"/>
      <point x="684" y="66" type="line"/>
      <point x="669" y="51"/>
      <point x="654" y="35"/>
      <point x="630" y="35" type="curve" smooth="yes"/>
      <point x="604" y="35"/>
      <point x="597" y="48"/>
      <point x="597" y="69" type="curve" smooth="yes"/>
      <point x="597" y="262" type="line"/>
      <point x="700" y="259"/>
      <point x="748" y="289"/>
      <point x="748" y="349" type="curve" smooth="yes"/>
      <point x="748" y="421"/>
      <point x="714" y="440"/>
      <point x="597" y="439" type="curve"/>
      <point x="597" y="514" type="line"/>
      <point x="463" y="407" type="line"/>
      <point x="525" y="407" type="line"/>
      <point x="525" y="290" type="line"/>
      <point x="475" y="289"/>
      <point x="425" y="291"/>
      <point x="388" y="290" type="curve"/>
      <point x="388" y="260" type="line"/>
      <point x="426" y="261"/>
      <point x="475" y="259"/>
      <point x="525" y="260" type="curve"/>
      <point x="525" y="57" type="line"/>
      <point x="528" y="10"/>
      <point x="549" y="-10"/>
    </contour>
    <contour>
      <point x="597" y="294" type="curve"/>
      <point x="597" y="407" type="line"/>
      <point x="687" y="407"/>
      <point x="712" y="397"/>
      <point x="712" y="353" type="curve" smooth="yes"/>
      <point x="712" y="306"/>
      <point x="684" y="293"/>
    </contour>
    <component base="e"/>
  </outline>
</glyph>
<glyph name="e_t_t_e" format="2">
  <advance width="1308"/>
  <unicode hex="F1980"/>
  <outline>
    <contour>
      <point x="231" y="-10" type="curve" smooth="yes"/>
      <point x="312" y="-10"/>
      <point x="386" y="62"/>
      <point x="397" y="143" type="curve"/>
      <point x="374" y="151" type="line"/>
      <point x="345" y="77"/>
      <point x="276" y="29"/>
      <point x="231" y="29" type="curve" smooth="yes"/>
      <point x="161" y="29"/>
      <point x="109" y="110"/>
      <point x="119" y="260" type="curve"/>
      <point x="443" y="260" type="line"/>
      <point x="443" y="290" type="line"/>
      <point x="409" y="290" type="line"/>
      <point x="396" y="370"/>
      <point x="336" y="450"/>
      <point x="231" y="450" type="curve" smooth="yes"/>
      <point x="115" y="450"/>
      <point x="30" y="357"/>
      <point x="30" y="224" type="curve" smooth="yes"/>
      <point x="30" y="92"/>
      <point x="107" y="-10"/>
    </contour>
    <contour>
      <point x="119" y="291" type="line"/>
      <point x="130" y="364"/>
      <point x="168" y="423"/>
      <point x="231" y="423" type="curve" smooth="yes"/>
      <point x="306" y="423"/>
      <point x="326" y="348"/>
      <point x="325" y="291" type="curve"/>
    </contour>
    <contour>
      <point x="813" y="124" type="curve" smooth="yes"/>
      <point x="861" y="124"/>
      <point x="894" y="161"/>
      <point x="913" y="181" type="curve"/>
      <point x="903" y="200" type="line"/>
      <point x="888" y="185"/>
      <point x="873" y="169"/>
      <point x="849" y="169" type="curve" smooth="yes"/>
      <point x="823" y="169"/>
      <point x="816" y="182"/>
      <point x="816" y="203" type="curve" smooth="yes"/>
      <point x="816" y="420" type="line"/>
      <point x="1298" y="420" type="line"/>
      <point x="1298" y="450" type="line"/>
      <point x="1264" y="450" type="line"/>
      <point x="1251" y="530"/>
      <point x="1191" y="610"/>
      <point x="1086" y="610" type="curve" smooth="yes"/>
      <point x="990" y="610"/>
      <point x="915" y="549"/>
      <point x="893" y="452" type="curve"/>
      <point x="816" y="452" type="line"/>
      <point x="816" y="527" type="line"/>
      <point x="682" y="420" type="line"/>
      <point x="744" y="420" type="line"/>
      <point x="744" y="191" type="line"/>
      <point x="747" y="144"/>
      <point x="768" y="124"/>
    </contour>
    <contour>
      <point x="340" y="260" type="line"/>
      <point x="378" y="261"/>
      <point x="427" y="259"/>
      <point x="477" y="260" type="curve"/>
      <point x="477" y="181" type="line"/>
      <point x="480" y="134"/>
      <point x="501" y="114"/>
      <point x="546" y="114" type="curve" smooth="yes"/>
      <point x="594" y="114"/>
      <point x="627" y="151"/>
      <point x="646" y="171" type="curve"/>
      <point x="636" y="190" type="line"/>
      <point x="621" y="175"/>
      <point x="606" y="159"/>
      <point x="582" y="159" type="curve" smooth="yes"/>
      <point x="556" y="159"/>
      <point x="549" y="172"/>
      <point x="549" y="193" type="curve" smooth="yes"/>
      <point x="549" y="262" type="line"/>
      <point x="652" y="259"/>
      <point x="700" y="289"/>
      <point x="700" y="349" type="curve" smooth="yes"/>
      <point x="700" y="421"/>
      <point x="666" y="440"/>
      <point x="549" y="439" type="curve"/>
      <point x="549" y="514" type="line"/>
      <point x="415" y="407" type="line"/>
      <point x="477" y="407" type="line"/>
      <point x="477" y="290" type="line"/>
      <point x="427" y="289"/>
      <point x="377" y="291"/>
      <point x="340" y="290" type="curve"/>
    </contour>
    <contour>
      <point x="549" y="294" type="curve"/>
      <point x="549" y="407" type="line"/>
      <point x="639" y="407"/>
      <point x="664" y="397"/>
      <point x="664" y="353" type="curve" smooth="yes"/>
      <point x="664" y="306"/>
      <point x="636" y="293"/>
    </contour>
    <contour>
      <point x="974" y="451" type="line"/>
      <point x="985" y="524"/>
      <point x="1023" y="583"/>
      <point x="1086" y="583" type="curve" smooth="yes"/>
      <point x="1161" y="583"/>
      <point x="1181" y="508"/>
      <point x="1180" y="451" type="curve"/>
    </contour>
  </outline>
</glyph>
<glyph name="e_u" format="2">
  <advance width="948"/>
  <unicode hex="F19A0"/>
  <outline>
    <contour>
      <point x="231" y="-10" type="curve" smooth="yes"/>
      <point x="312" y="-10"/>
      <point x="386" y="62"/>
      <point x="397" y="143" type="curve"/>
      <point x="374" y="151" type="line"/>
      <point x="345" y="77"/>
      <point x="276" y="29"/>
      <point x="231" y="29" type="curve" smooth="yes"/>
      <point x="161" y="29"/>
      <point x="109" y="110"/>
      <point x="119" y="260" type="curve"/>
      <point x="534" y="260" type="line"/>
      <point x="534" y="107" type="line" smooth="yes"/>
      <point x="534" y="38"/>
      <point x="592" y="-9"/>
      <point x="672" y="-9" type="curve" smooth="yes"/>
      <point x="687" y="-9"/>
      <point x="702" y="-7"/>
      <point x="716" y="-3" type="curve" smooth="yes"/>
      <point x="752" y="8"/>
      <point x="784" y="34"/>
      <point x="805" y="82" type="curve"/>
      <point x="827" y="82" type="line"/>
      <point x="827" y="0" type="line"/>
      <point x="878" y="0" type="line"/>
      <point x="878" y="440" type="line"/>
      <point x="724" y="379" type="line"/>
      <point x="724" y="361" type="line"/>
      <point x="783" y="361" type="line"/>
      <point x="805" y="342" type="line"/>
      <point x="805" y="132" type="line"/>
      <point x="781" y="69"/>
      <point x="749" y="39"/>
      <point x="716" y="32" type="curve" smooth="yes"/>
      <point x="710" y="31"/>
      <point x="704" y="30"/>
      <point x="698" y="30" type="curve" smooth="yes"/>
      <point x="643" y="30"/>
      <point x="607" y="65"/>
      <point x="607" y="158" type="curve" smooth="yes"/>
      <point x="607" y="289" type="line"/>
      <point x="583" y="289" type="line"/>
      <point x="583" y="290" type="line"/>
      <point x="409" y="290" type="line"/>
      <point x="396" y="370"/>
      <point x="336" y="450"/>
      <point x="231" y="450" type="curve" smooth="yes"/>
      <point x="115" y="450"/>
      <point x="30" y="357"/>
      <point x="30" y="224" type="curve" smooth="yes"/>
      <point x="30" y="92"/>
      <point x="107" y="-10"/>
    </contour>
    <contour>
      <point x="119" y="291" type="line"/>
      <point x="130" y="364"/>
      <point x="168" y="423"/>
      <point x="231" y="423" type="curve" smooth="yes"/>
      <point x="306" y="423"/>
      <point x="326" y="348"/>
      <point x="325" y="291" type="curve"/>
    </contour>
  </outline>
</glyph>
<glyph name="e_s_s_e" format="2">
  <advance width="723"/>
  <unicode hex="F19C0"/>
  <outline>
    <contour>
      <point x="231" y="-10" type="curve" smooth="yes"/>
      <point x="312" y="-10"/>
      <point x="386" y="62"/>
      <point x="397" y="143" type="curve"/>
      <point x="374" y="151" type="line"/>
      <point x="345" y="77"/>
      <point x="276" y="29"/>
      <point x="231" y="29" type="curve" smooth="yes"/>
      <point x="162" y="29"/>
      <point x="111" y="110"/>
      <point x="119" y="260" type="curve"/>
      <point x="713" y="260" type="line"/>
      <point x="713" y="290" type="line"/>
      <point x="649" y="290" type="line"/>
      <point x="645" y="359"/>
      <point x="565" y="403"/>
      <point x="484" y="432" type="curve" smooth="yes"/>
      <point x="456" y="442"/>
      <point x="420" y="449"/>
      <point x="409" y="496" type="curve" smooth="yes"/>
      <point x="398" y="544"/>
      <point x="442" y="587"/>
      <point x="490" y="587" type="curve" smooth="yes"/>
      <point x="530" y="587"/>
      <point x="549" y="564"/>
      <point x="545" y="531" type="curve"/>
      <point x="539" y="512"/>
      <point x="542" y="500"/>
      <point x="547" y="491" type="curve" smooth="yes"/>
      <point x="558" y="471"/>
      <point x="581" y="460"/>
      <point x="602" y="469" type="curve" smooth="yes"/>
      <point x="628" y="480"/>
      <point x="630" y="514"/>
      <point x="616" y="547" type="curve" smooth="yes"/>
      <point x="597" y="591"/>
      <point x="546" y="611"/>
      <point x="487" y="611" type="curve" smooth="yes"/>
      <point x="413" y="611"/>
      <point x="351" y="563"/>
      <point x="351" y="488" type="curve" smooth="yes"/>
      <point x="351" y="415"/>
      <point x="400" y="385"/>
      <point x="477" y="353" type="curve" smooth="yes"/>
      <point x="525" y="333"/>
      <point x="562" y="317"/>
      <point x="577" y="290" type="curve"/>
      <point x="349" y="290" type="line"/>
      <point x="345" y="359"/>
      <point x="265" y="403"/>
      <point x="184" y="432" type="curve" smooth="yes"/>
      <point x="156" y="442"/>
      <point x="120" y="449"/>
      <point x="109" y="496" type="curve" smooth="yes"/>
      <point x="98" y="544"/>
      <point x="142" y="587"/>
      <point x="190" y="587" type="curve" smooth="yes"/>
      <point x="230" y="587"/>
      <point x="249" y="564"/>
      <point x="245" y="531" type="curve"/>
      <point x="239" y="512"/>
      <point x="242" y="500"/>
      <point x="247" y="491" type="curve" smooth="yes"/>
      <point x="258" y="471"/>
      <point x="281" y="460"/>
      <point x="302" y="469" type="curve" smooth="yes"/>
      <point x="328" y="480"/>
      <point x="330" y="514"/>
      <point x="316" y="547" type="curve" smooth="yes"/>
      <point x="297" y="591"/>
      <point x="246" y="611"/>
      <point x="187" y="611" type="curve" smooth="yes"/>
      <point x="113" y="611"/>
      <point x="51" y="563"/>
      <point x="51" y="488" type="curve" smooth="yes"/>
      <point x="51" y="415"/>
      <point x="100" y="385"/>
      <point x="177" y="353" type="curve" smooth="yes"/>
      <point x="225" y="333"/>
      <point x="262" y="317"/>
      <point x="277" y="290" type="curve"/>
      <point x="38" y="290" type="line"/>
      <point x="33" y="269"/>
      <point x="30" y="248"/>
      <point x="30" y="224" type="curve" smooth="yes"/>
      <point x="30" y="92"/>
      <point x="107" y="-10"/>
    </contour>
  </outline>
</glyph>
<glyph name="F_F_E" format="2">
  <advance width="1001"/>
  <unicode hex="F2030"/>
  <outline>
    <contour>
      <point x="834" y="0" type="line"/>
      <point x="834" y="28" type="line"/>
      <point x="784" y="28" type="line"/>
      <point x="765" y="50" type="line"/>
      <point x="765" y="601" type="line"/>
      <point x="413" y="601" type="line"/>
      <point x="413" y="495" type="line"/>
      <point x="441" y="495" type="line"/>
      <point x="441" y="543" type="line"/>
      <point x="463" y="562" type="line"/>
      <point x="663" y="562" type="line"/>
      <point x="682" y="540" type="line"/>
      <point x="682" y="369" type="line"/>
      <point x="663" y="347" type="line"/>
      <point x="534" y="347" type="line"/>
      <point x="512" y="366" type="line"/>
      <point x="512" y="393" type="line"/>
      <point x="484" y="393" type="line"/>
      <point x="484" y="264" type="line"/>
      <point x="512" y="264" type="line"/>
      <point x="512" y="292" type="line"/>
      <point x="534" y="311" type="line"/>
      <point x="663" y="311" type="line"/>
      <point x="682" y="289" type="line"/>
      <point x="682" y="50" type="line"/>
      <point x="663" y="28" type="line"/>
      <point x="615" y="28" type="line"/>
      <point x="615" y="0" type="line"/>
    </contour>
    <contour>
      <point x="20" y="0" type="line"/>
      <point x="239" y="0" type="line"/>
      <point x="239" y="28" type="line"/>
      <point x="191" y="28" type="line"/>
      <point x="172" y="50" type="line"/>
      <point x="172" y="289" type="line"/>
      <point x="191" y="311" type="line"/>
      <point x="320" y="311" type="line"/>
      <point x="342" y="292" type="line"/>
      <point x="342" y="264" type="line"/>
      <point x="370" y="264" type="line"/>
      <point x="370" y="393" type="line"/>
      <point x="342" y="393" type="line"/>
      <point x="342" y="366" type="line"/>
      <point x="320" y="347" type="line"/>
      <point x="191" y="347" type="line"/>
      <point x="172" y="369" type="line"/>
      <point x="172" y="540" type="line"/>
      <point x="191" y="562" type="line"/>
      <point x="391" y="562" type="line"/>
      <point x="413" y="543" type="line"/>
      <point x="413" y="495" type="line"/>
      <point x="441" y="495" type="line"/>
      <point x="441" y="601" type="line"/>
      <point x="89" y="601" type="line"/>
      <point x="89" y="50" type="line"/>
      <point x="70" y="28" type="line"/>
      <point x="20" y="28" type="line"/>
    </contour>
    <contour>
      <point x="610" y="0" type="line"/>
      <point x="971" y="0" type="line"/>
      <point x="971" y="105" type="line"/>
      <point x="943" y="105" type="line"/>
      <point x="943" y="57" type="line"/>
      <point x="921" y="38" type="line"/>
      <point x="781" y="38" type="line"/>
      <point x="762" y="60" type="line"/>
      <point x="762" y="289" type="line"/>
      <point x="781" y="311" type="line"/>
      <point x="870" y="311" type="line"/>
      <point x="892" y="292" type="line"/>
      <point x="892" y="262" type="line"/>
      <point x="920" y="262" type="line"/>
      <point x="920" y="394" type="line"/>
      <point x="892" y="394" type="line"/>
      <point x="892" y="366" type="line"/>
      <point x="870" y="347" type="line"/>
      <point x="781" y="347" type="line"/>
      <point x="762" y="369" type="line"/>
      <point x="762" y="540" type="line"/>
      <point x="781" y="562" type="line"/>
      <point x="869" y="562" type="line"/>
      <point x="891" y="543" type="line"/>
      <point x="891" y="497" type="line"/>
      <point x="919" y="497" type="line"/>
      <point x="919" y="600" type="line"/>
      <point x="679" y="599" type="line"/>
      <point x="679" y="50" type="line"/>
      <point x="660" y="28" type="line"/>
      <point x="610" y="28" type="line"/>
    </contour>
  </outline>
</glyph>
<glyph name="F_V_E" format="2">
  <advance width="901"/>
  <unicode hex="F2060"/>
  <outline>
    <contour>
      <point x="20" y="0" type="line"/>
      <point x="239" y="0" type="line"/>
      <point x="239" y="28" type="line"/>
      <point x="191" y="28" type="line"/>
      <point x="172" y="50" type="line"/>
      <point x="172" y="289" type="line"/>
      <point x="191" y="311" type="line"/>
      <point x="340" y="311" type="line"/>
      <point x="340" y="347" type="line"/>
      <point x="191" y="347" type="line"/>
      <point x="172" y="369" type="line"/>
      <point x="172" y="540" type="line"/>
      <point x="191" y="562" type="line"/>
      <point x="391" y="562" type="line"/>
      <point x="413" y="543" type="line"/>
      <point x="413" y="495" type="line"/>
      <point x="441" y="495" type="line"/>
      <point x="441" y="601" type="line"/>
      <point x="89" y="601" type="line"/>
      <point x="89" y="50" type="line"/>
      <point x="70" y="28" type="line"/>
      <point x="20" y="28" type="line"/>
    </contour>
    <contour>
      <point x="726" y="600" type="line"/>
      <point x="727" y="563" type="line"/>
      <point x="795" y="563" type="line"/>
      <point x="817" y="544" type="line"/>
      <point x="817" y="498" type="line"/>
      <point x="845" y="498" type="line"/>
      <point x="845" y="601" type="line"/>
    </contour>
    <contour>
      <point x="418" y="348" type="line"/>
      <point x="327" y="347" type="line"/>
      <point x="449" y="0" type="line"/>
      <point x="535" y="0" type="line"/>
      <point x="735" y="572" type="line"/>
      <point x="786" y="572" type="line"/>
      <point x="786" y="600" type="line"/>
      <point x="613" y="600" type="line"/>
      <point x="613" y="572" type="line"/>
      <point x="661" y="572" type="line"/>
      <point x="680" y="550" type="line"/>
      <point x="680" y="549" type="line"/>
      <point x="514" y="68" type="line"/>
    </contour>
    <contour>
      <point x="653" y="347" type="line"/>
      <point x="643" y="311" type="line"/>
      <point x="790" y="311" type="line"/>
      <point x="812" y="292" type="line"/>
      <point x="812" y="262" type="line"/>
      <point x="840" y="262" type="line"/>
      <point x="840" y="394" type="line"/>
      <point x="812" y="394" type="line"/>
      <point x="812" y="366" type="line"/>
      <point x="790" y="347" type="line"/>
    </contour>
    <contour>
      <point x="535" y="38" type="line"/>
      <point x="536" y="0" type="line"/>
      <point x="871" y="0" type="line"/>
      <point x="871" y="105" type="line"/>
      <point x="843" y="105" type="line"/>
      <point x="843" y="57" type="line"/>
      <point x="821" y="38" type="line"/>
    </contour>
  </outline>
</glyph>
<glyph name="f_f_e" format="2">
  <advance width="682"/>
  <unicode hex="F2130"/>
  <outline>
    <contour>
      <point x="506" y="-10" type="curve" smooth="yes"/>
      <point x="587" y="-10"/>
      <point x="661" y="62"/>
      <point x="672" y="143" type="curve"/>
      <point x="649" y="151" type="line"/>
      <point x="620" y="77"/>
      <point x="551" y="29"/>
      <point x="506" y="29" type="curve" smooth="yes"/>
      <point x="429" y="29"/>
      <point x="395" y="104"/>
      <point x="393" y="244" type="curve"/>
      <point x="408" y="257" type="line"/>
      <point x="638" y="257" type="line"/>
      <point x="638" y="290" type="line"/>
      <point x="393" y="290" type="line"/>
      <point x="393" y="444" type="line" smooth="yes"/>
      <point x="396" y="530"/>
      <point x="417" y="575"/>
      <point x="457" y="572" type="curve" smooth="yes"/>
      <point x="474" y="570"/>
      <point x="484" y="560"/>
      <point x="490" y="538" type="curve"/>
      <point x="490" y="517"/>
      <point x="497" y="507"/>
      <point x="505" y="500" type="curve" smooth="yes"/>
      <point x="522" y="485"/>
      <point x="547" y="482"/>
      <point x="565" y="498" type="curve" smooth="yes"/>
      <point x="586" y="516"/>
      <point x="585" y="553"/>
      <point x="561" y="579" type="curve" smooth="yes"/>
      <point x="540" y="602"/>
      <point x="506" y="606"/>
      <point x="457" y="603" type="curve" smooth="yes"/>
      <point x="410" y="599"/>
      <point x="370" y="567"/>
      <point x="345" y="515" type="curve"/>
      <point x="334" y="574"/>
      <point x="299" y="603"/>
      <point x="237" y="603" type="curve" smooth="yes"/>
      <point x="161" y="603"/>
      <point x="108" y="535"/>
      <point x="93" y="440" type="curve"/>
      <point x="27" y="440" type="line"/>
      <point x="27" y="407" type="line"/>
      <point x="72" y="407" type="line"/>
      <point x="89" y="393" type="line"/>
      <point x="89" y="50" type="line"/>
      <point x="70" y="28" type="line"/>
      <point x="20" y="28" type="line"/>
      <point x="21" y="0" type="line"/>
      <point x="229" y="0" type="line"/>
      <point x="229" y="28" type="line"/>
      <point x="181" y="28" type="line"/>
      <point x="162" y="50" type="line"/>
      <point x="162" y="393" type="line"/>
      <point x="178" y="407" type="line"/>
      <point x="302" y="407" type="line"/>
      <point x="319" y="393" type="line"/>
      <point x="319" y="224" type="line" smooth="yes"/>
      <point x="319" y="92"/>
      <point x="382" y="-10"/>
    </contour>
    <contour>
      <point x="163" y="440" type="line"/>
      <point x="165" y="529"/>
      <point x="196" y="571"/>
      <point x="237" y="572" type="curve" smooth="yes"/>
      <point x="309" y="574"/>
      <point x="323" y="501"/>
      <point x="323" y="440" type="curve"/>
    </contour>
  </outline>
</glyph>
<glyph name="f_f_e_s" format="2">
  <advance width="1061"/>
  <unicode hex="F2140"/>
  <outline>
    <contour>
      <point x="888" y="-10" type="curve" smooth="yes"/>
      <point x="956" y="-10"/>
      <point x="1031" y="25"/>
      <point x="1031" y="124" type="curve" smooth="yes"/>
      <point x="1031" y="196"/>
      <point x="951" y="239"/>
      <point x="866" y="263" type="curve" smooth="yes"/>
      <point x="859" y="265"/>
      <point x="853" y="268"/>
      <point x="846" y="271" type="curve"/>
      <point x="957" y="276"/>
      <point x="1023" y="303"/>
      <point x="998" y="386" type="curve" smooth="yes"/>
      <point x="984" y="432"/>
      <point x="928" y="450"/>
      <point x="869" y="450" type="curve" smooth="yes"/>
      <point x="795" y="450"/>
      <point x="733" y="402"/>
      <point x="733" y="327" type="curve" smooth="yes"/>
      <point x="733" y="313"/>
      <point x="735" y="301"/>
      <point x="738" y="290" type="curve"/>
      <point x="633" y="290" type="line"/>
      <point x="633" y="257" type="line"/>
      <point x="750" y="257" type="line"/>
      <point x="771" y="223"/>
      <point x="809" y="205"/>
      <point x="859" y="184" type="curve" smooth="yes"/>
      <point x="917" y="160"/>
      <point x="959" y="150"/>
      <point x="966" y="110" type="curve" smooth="yes"/>
      <point x="974" y="63"/>
      <point x="927" y="22"/>
      <point x="883" y="22" type="curve" smooth="yes"/>
      <point x="830" y="22"/>
      <point x="774" y="79"/>
      <point x="766" y="169" type="curve"/>
      <point x="740" y="169" type="line"/>
      <point x="740" y="24" type="line"/>
      <point x="764" y="24" type="line"/>
      <point x="764" y="38" type="line"/>
      <point x="781" y="38" type="line"/>
      <point x="822" y="4"/>
      <point x="836" y="-10"/>
    </contour>
    <contour>
      <point x="791" y="335" type="curve" smooth="yes"/>
      <point x="781" y="383"/>
      <point x="824" y="426"/>
      <point x="872" y="426" type="curve" smooth="yes"/>
      <point x="912" y="426"/>
      <point x="934" y="403"/>
      <point x="937" y="370" type="curve" smooth="yes"/>
      <point x="941" y="331"/>
      <point x="922" y="298"/>
      <point x="815" y="292" type="curve"/>
      <point x="804" y="302"/>
      <point x="795" y="316"/>
    </contour>
    <component base="f_f_e"/>
  </outline>
</glyph>
<glyph name="f_v_e" format="2">
  <advance width="728"/>
  <unicode hex="F2160"/>
  <outline>
    <contour>
      <point x="384" y="260" type="line"/>
      <point x="718" y="260" type="line"/>
      <point x="718" y="290" type="line"/>
      <point x="684" y="290" type="line"/>
      <point x="671" y="370"/>
      <point x="611" y="450"/>
      <point x="506" y="450" type="curve" smooth="yes"/>
      <point x="458" y="450"/>
      <point x="415" y="435"/>
      <point x="382" y="407" type="curve"/>
    </contour>
    <contour>
      <point x="-25" y="412" type="line"/>
      <point x="186" y="413" type="line"/>
      <point x="186" y="440" type="line"/>
      <point x="111" y="440" type="line"/>
      <point x="113" y="529"/>
      <point x="134" y="575"/>
      <point x="175" y="572" type="curve" smooth="yes"/>
      <point x="192" y="570"/>
      <point x="202" y="560"/>
      <point x="208" y="538" type="curve"/>
      <point x="208" y="517"/>
      <point x="215" y="507"/>
      <point x="223" y="500" type="curve" smooth="yes"/>
      <point x="240" y="485"/>
      <point x="265" y="482"/>
      <point x="283" y="498" type="curve" smooth="yes"/>
      <point x="304" y="516"/>
      <point x="303" y="553"/>
      <point x="279" y="579" type="curve" smooth="yes"/>
      <point x="258" y="602"/>
      <point x="224" y="606"/>
      <point x="175" y="603" type="curve" smooth="yes"/>
      <point x="109" y="597"/>
      <point x="56" y="535"/>
      <point x="41" y="440" type="curve"/>
      <point x="-25" y="440" type="line"/>
    </contour>
    <contour>
      <point x="394" y="291" type="line"/>
      <point x="405" y="364"/>
      <point x="443" y="423"/>
      <point x="506" y="423" type="curve" smooth="yes"/>
      <point x="581" y="423"/>
      <point x="601" y="348"/>
      <point x="600" y="291" type="curve"/>
    </contour>
    <component base="v"/>
  </outline>
</glyph>
<glyph name="f_v_e_s" format="2">
  <advance width="1066"/>
  <unicode hex="F2170"/>
  <outline>
    <contour>
      <point x="893" y="-10" type="curve" smooth="yes"/>
      <point x="961" y="-10"/>
      <point x="1036" y="25"/>
      <point x="1036" y="124" type="curve" smooth="yes"/>
      <point x="1036" y="196"/>
      <point x="956" y="239"/>
      <point x="871" y="263" type="curve" smooth="yes"/>
      <point x="864" y="265"/>
      <point x="858" y="268"/>
      <point x="851" y="271" type="curve"/>
      <point x="962" y="276"/>
      <point x="1028" y="303"/>
      <point x="1003" y="386" type="curve" smooth="yes"/>
      <point x="989" y="432"/>
      <point x="933" y="450"/>
      <point x="874" y="450" type="curve" smooth="yes"/>
      <point x="800" y="450"/>
      <point x="738" y="402"/>
      <point x="738" y="327" type="curve" smooth="yes"/>
      <point x="738" y="313"/>
      <point x="740" y="301"/>
      <point x="743" y="290" type="curve"/>
      <point x="654" y="290" type="line"/>
      <point x="652" y="304"/>
      <point x="648" y="317"/>
      <point x="643" y="331" type="curve"/>
      <point x="607" y="260" type="line"/>
      <point x="688" y="260" type="line" smooth="yes"/>
      <point x="709" y="260"/>
      <point x="732" y="261"/>
      <point x="755" y="262" type="curve"/>
      <point x="776" y="228"/>
      <point x="814" y="205"/>
      <point x="864" y="184" type="curve" smooth="yes"/>
      <point x="922" y="160"/>
      <point x="964" y="150"/>
      <point x="971" y="110" type="curve" smooth="yes"/>
      <point x="979" y="63"/>
      <point x="932" y="22"/>
      <point x="888" y="22" type="curve" smooth="yes"/>
      <point x="835" y="22"/>
      <point x="779" y="79"/>
      <point x="771" y="169" type="curve"/>
      <point x="745" y="169" type="line"/>
      <point x="745" y="24" type="line"/>
      <point x="769" y="24" type="line"/>
      <point x="769" y="38" type="line"/>
      <point x="786" y="38" type="line"/>
      <point x="827" y="4"/>
      <point x="841" y="-10"/>
    </contour>
    <contour>
      <point x="796" y="335" type="curve" smooth="yes"/>
      <point x="786" y="383"/>
      <point x="829" y="426"/>
      <point x="877" y="426" type="curve" smooth="yes"/>
      <point x="917" y="426"/>
      <point x="939" y="403"/>
      <point x="942" y="370" type="curve" smooth="yes"/>
      <point x="946" y="331"/>
      <point x="927" y="298"/>
      <point x="820" y="292" type="curve"/>
      <point x="809" y="302"/>
      <point x="800" y="316"/>
    </contour>
    <component base="f_v_e"/>
  </outline>
</glyph>
<glyph name="G_U_E" format="2">
  <advance width="1107"/>
  <unicode hex="F2210"/>
  <outline>
    <contour>
      <point x="321" y="-180" type="curve" smooth="yes"/>
      <point x="421" y="-182"/>
      <point x="501" y="-86"/>
      <point x="502" y="43" type="curve"/>
      <point x="544" y="4"/>
      <point x="601" y="-9"/>
      <point x="671" y="-10" type="curve" smooth="yes"/>
      <point x="702" y="-10"/>
      <point x="732" y="-7"/>
      <point x="757" y="0" type="curve"/>
      <point x="1077" y="0" type="line"/>
      <point x="1077" y="105" type="line"/>
      <point x="1049" y="105" type="line"/>
      <point x="1049" y="57" type="line"/>
      <point x="1027" y="38" type="line"/>
      <point x="828" y="38" type="line"/>
      <point x="874" y="79"/>
      <point x="895" y="146"/>
      <point x="897" y="243" type="curve" smooth="yes"/>
      <point x="898" y="311" type="line"/>
      <point x="994" y="311" type="line"/>
      <point x="1016" y="292" type="line"/>
      <point x="1016" y="262" type="line"/>
      <point x="1044" y="262" type="line"/>
      <point x="1044" y="394" type="line"/>
      <point x="1016" y="394" type="line"/>
      <point x="1016" y="366" type="line"/>
      <point x="994" y="347" type="line"/>
      <point x="898" y="347" type="line"/>
      <point x="897" y="539" type="line"/>
      <point x="897" y="550" type="line"/>
      <point x="907" y="562" type="line"/>
      <point x="993" y="562" type="line"/>
      <point x="1015" y="543" type="line"/>
      <point x="1015" y="497" type="line"/>
      <point x="1043" y="497" type="line"/>
      <point x="1043" y="600" type="line"/>
      <point x="770" y="600" type="line"/>
      <point x="770" y="572" type="line"/>
      <point x="820" y="572" type="line"/>
      <point x="839" y="550" type="line"/>
      <point x="839" y="538" type="line" smooth="yes"/>
      <point x="838" y="477"/>
      <point x="838" y="396"/>
      <point x="839" y="229" type="curve" smooth="yes"/>
      <point x="840" y="88"/>
      <point x="774" y="39"/>
      <point x="690" y="38" type="curve" smooth="yes"/>
      <point x="596" y="37"/>
      <point x="530" y="79"/>
      <point x="530" y="218" type="curve" smooth="yes"/>
      <point x="530" y="314" type="line"/>
      <point x="349" y="248" type="line"/>
      <point x="349" y="225" type="line"/>
      <point x="408" y="225" type="line"/>
      <point x="430" y="206" type="line"/>
      <point x="430" y="153" type="line"/>
      <point x="431" y="84" type="line"/>
      <point x="269" y="-58"/>
      <point x="132" y="84"/>
      <point x="132" y="344" type="curve" smooth="yes"/>
      <point x="132" y="494"/>
      <point x="208" y="579"/>
      <point x="305" y="581" type="curve" smooth="yes"/>
      <point x="422" y="584"/>
      <point x="484" y="485"/>
      <point x="493" y="379" type="curve"/>
      <point x="528" y="379" type="line"/>
      <point x="528" y="560" type="line"/>
      <point x="547" y="582" type="line"/>
      <point x="595" y="582" type="line"/>
      <point x="595" y="610" type="line"/>
      <point x="289" y="610" type="line"/>
      <point x="290" y="610" type="line" smooth="yes"/>
      <point x="133" y="603"/>
      <point x="40" y="481"/>
      <point x="40" y="305" type="curve" smooth="yes"/>
      <point x="40" y="113"/>
      <point x="152" y="-10"/>
      <point x="282" y="-10" type="curve" smooth="yes"/>
      <point x="384" y="-10"/>
      <point x="430" y="49"/>
      <point x="430" y="49" type="curve"/>
      <point x="426" y="-89"/>
      <point x="403" y="-146"/>
      <point x="334" y="-133" type="curve"/>
      <point x="306" y="-119"/>
      <point x="318" y="-90"/>
      <point x="293" y="-86" type="curve" smooth="yes"/>
      <point x="262" y="-81"/>
      <point x="244" y="-104"/>
      <point x="240" y="-123" type="curve" smooth="yes"/>
      <point x="233" y="-154"/>
      <point x="256" y="-179"/>
    </contour>
  </outline>
</glyph>
<glyph name="g_u_e" format="2">
  <advance width="973"/>
  <unicode hex="F2310"/>
  <outline>
    <contour>
      <point x="412" y="110" type="line"/>
      <point x="339" y="87" type="line"/>
      <point x="339" y="-68" type="line" smooth="yes"/>
      <point x="339" y="-137"/>
      <point x="397" y="-184"/>
      <point x="477" y="-184" type="curve" smooth="yes"/>
      <point x="492" y="-184"/>
      <point x="507" y="-182"/>
      <point x="521" y="-178" type="curve" smooth="yes"/>
      <point x="573" y="-162"/>
      <point x="600" y="-137"/>
      <point x="627" y="-58" type="curve"/>
      <point x="653" y="-134"/>
      <point x="709" y="-185"/>
      <point x="797" y="-185" type="curve" smooth="yes"/>
      <point x="888" y="-185"/>
      <point x="952" y="-113"/>
      <point x="963" y="-32" type="curve"/>
      <point x="940" y="-24" type="line"/>
      <point x="911" y="-98"/>
      <point x="852" y="-146"/>
      <point x="797" y="-146" type="curve" smooth="yes"/>
      <point x="727" y="-146"/>
      <point x="675" y="-65"/>
      <point x="685" y="85" type="curve"/>
      <point x="949" y="85" type="line"/>
      <point x="949" y="115" type="line"/>
      <point x="683" y="115" type="line"/>
      <point x="683" y="265" type="line"/>
      <point x="529" y="204" type="line"/>
      <point x="529" y="186" type="line"/>
      <point x="588" y="186" type="line"/>
      <point x="610" y="167" type="line"/>
      <point x="610" y="-43" type="line"/>
      <point x="586" y="-106"/>
      <point x="554" y="-136"/>
      <point x="521" y="-143" type="curve" smooth="yes"/>
      <point x="515" y="-144"/>
      <point x="509" y="-145"/>
      <point x="503" y="-145" type="curve" smooth="yes"/>
      <point x="448" y="-145"/>
      <point x="412" y="-110"/>
      <point x="412" y="-17" type="curve" smooth="yes"/>
    </contour>
    <component base="g" identifier="BF96DB0D"/>
  </outline>
</glyph>
